<svg width="22" height="22" viewBox="0 0 22 22" fill="none" xmlns="http://www.w3.org/2000/svg">
<path d="M10.084 13.7487H11.9173V15.582H10.084V13.7487ZM10.084 6.41536H11.9173V11.9154H10.084V6.41536ZM10.9915 1.83203C5.93148 1.83203 1.83398 5.9387 1.83398 10.9987C1.83398 16.0587 5.93148 20.1654 10.9915 20.1654C16.0607 20.1654 20.1673 16.0587 20.1673 10.9987C20.1673 5.9387 16.0607 1.83203 10.9915 1.83203ZM11.0007 18.332C6.94898 18.332 3.66732 15.0504 3.66732 10.9987C3.66732 6.94703 6.94898 3.66536 11.0007 3.66536C15.0523 3.66536 18.334 6.94703 18.334 10.9987C18.334 15.0504 15.0523 18.332 11.0007 18.332Z" fill="#D32F2F"/>
</svg>
