<svg width="24" height="24" viewBox="0 0 24 24" fill="none" xmlns="http://www.w3.org/2000/svg">
<path fill-rule="evenodd" clip-rule="evenodd" d="M10.5303 5.46995C10.6708 5.61058 10.7497 5.8012 10.7497 5.99995C10.7497 6.1987 10.6708 6.38933 10.5303 6.52995L5.81032 11.25H20.0003C20.1992 11.25 20.39 11.329 20.5306 11.4696C20.6713 11.6103 20.7503 11.801 20.7503 12C20.7503 12.1989 20.6713 12.3896 20.5306 12.5303C20.39 12.6709 20.1992 12.75 20.0003 12.75H5.81032L10.5303 17.4699C10.604 17.5386 10.6631 17.6214 10.7041 17.7134C10.7451 17.8054 10.7671 17.9047 10.7689 18.0054C10.7707 18.1061 10.7522 18.2062 10.7144 18.2995C10.6767 18.3929 10.6206 18.4778 10.5494 18.549C10.4781 18.6202 10.3933 18.6764 10.2999 18.7141C10.2065 18.7518 10.1065 18.7703 10.0058 18.7685C9.90509 18.7668 9.80578 18.7447 9.71378 18.7037C9.62178 18.6627 9.53898 18.6036 9.47032 18.53L3.47032 12.53C3.32987 12.3893 3.25098 12.1987 3.25098 12C3.25098 11.8012 3.32987 11.6106 3.47032 11.47L9.47032 5.46995C9.61094 5.3295 9.80157 5.25061 10.0003 5.25061C10.1991 5.25061 10.3897 5.3295 10.5303 5.46995Z" fill="#3C3B3B"/>
</svg>
