<svg width="24" height="24" viewBox="0 0 24 24" fill="none" xmlns="http://www.w3.org/2000/svg">
<path fill-rule="evenodd" clip-rule="evenodd" d="M8.51187 4.43002C8.66295 4.30081 8.85914 4.23687 9.05734 4.25225C9.25554 4.26762 9.43952 4.36106 9.56887 4.51202L15.5689 11.512C15.6853 11.6479 15.7493 11.821 15.7493 12C15.7493 12.179 15.6853 12.3521 15.5689 12.488L9.56887 19.488C9.43738 19.6316 9.25522 19.7184 9.06088 19.7301C8.86655 19.7419 8.67527 19.6775 8.52749 19.5508C8.37971 19.4241 8.287 19.2448 8.26897 19.051C8.25094 18.8571 8.309 18.6638 8.43087 18.512L14.0119 12L8.43087 5.48802C8.30142 5.33719 8.23714 5.14115 8.25214 4.94296C8.26714 4.74478 8.3602 4.56064 8.51087 4.43102" fill="#3C3B3B"/>
</svg>
