<svg width="24" height="24" viewBox="0 0 24 24" fill="none" xmlns="http://www.w3.org/2000/svg">
<path fill-rule="evenodd" clip-rule="evenodd" d="M15.4885 4.42993C15.5633 4.49406 15.6247 4.5723 15.6693 4.66019C15.7139 4.74808 15.7407 4.84389 15.7482 4.94215C15.7557 5.0404 15.7438 5.13918 15.7131 5.23283C15.6825 5.32647 15.6336 5.41316 15.5695 5.48793L9.98845 11.9999L15.5695 18.5119C15.6374 18.5861 15.6897 18.6731 15.7232 18.7679C15.7568 18.8627 15.771 18.9632 15.765 19.0636C15.7589 19.1639 15.7328 19.2621 15.688 19.3521C15.6433 19.4422 15.5809 19.5223 15.5046 19.5877C15.4283 19.6532 15.3396 19.7026 15.2438 19.7331C15.1479 19.7636 15.047 19.7745 14.9469 19.7652C14.8468 19.7559 14.7495 19.7266 14.661 19.6789C14.5725 19.6313 14.4944 19.5663 14.4315 19.4879L8.43145 12.4879C8.31499 12.352 8.25098 12.1789 8.25098 11.9999C8.25098 11.8209 8.31499 11.6479 8.43145 11.5119L14.4315 4.51193C14.5609 4.36112 14.745 4.26787 14.9432 4.25268C15.1414 4.23749 15.3375 4.30161 15.4885 4.43093" fill="white"/>
</svg>
