<svg width="24" height="24" viewBox="0 0 24 24" fill="none" xmlns="http://www.w3.org/2000/svg">
<path fill-rule="evenodd" clip-rule="evenodd" d="M11.511 8.43048C11.6469 8.31401 11.82 8.25 11.999 8.25C12.178 8.25 12.3511 8.31401 12.487 8.43048L19.487 14.4305C19.5618 14.4946 19.6233 14.5728 19.668 14.6606C19.7126 14.7485 19.7395 14.8443 19.7471 14.9425C19.7547 15.0407 19.7429 15.1395 19.7123 15.2332C19.6818 15.3269 19.6331 15.4136 19.569 15.4885C19.5049 15.5633 19.4267 15.6248 19.3388 15.6695C19.251 15.7141 19.1552 15.741 19.057 15.7486C18.9587 15.7562 18.8599 15.7444 18.7663 15.7138C18.6726 15.6833 18.5858 15.6346 18.511 15.5705L11.999 9.98748L5.48698 15.5685C5.41283 15.6364 5.32579 15.6887 5.23102 15.7223C5.13625 15.7559 5.0357 15.77 4.93533 15.764C4.83497 15.7579 4.73685 15.7318 4.6468 15.687C4.55676 15.6423 4.47662 15.5799 4.41117 15.5036C4.34571 15.4273 4.29627 15.3386 4.26578 15.2428C4.23529 15.147 4.22438 15.046 4.23369 14.9459C4.243 14.8458 4.27235 14.7486 4.31999 14.66C4.36762 14.5715 4.43258 14.4934 4.51098 14.4305L11.511 8.43048Z" fill="#3C3B3B"/>
</svg>
