<svg width="24" height="24" viewBox="0 0 24 24" fill="none" xmlns="http://www.w3.org/2000/svg">
<path fill-rule="evenodd" clip-rule="evenodd" d="M4.43042 8.51206C4.49455 8.43723 4.57279 8.37578 4.66068 8.33121C4.74857 8.28664 4.84438 8.25983 4.94263 8.25231C5.04089 8.24479 5.13966 8.2567 5.23331 8.28737C5.32696 8.31804 5.41365 8.36687 5.48842 8.43106L12.0004 14.0121L18.5124 8.43106C18.6642 8.30919 18.8575 8.25113 19.0514 8.26916C19.2452 8.28719 19.4245 8.3799 19.5512 8.52768C19.6779 8.67546 19.7423 8.86674 19.7305 9.06107C19.7188 9.25541 19.632 9.43757 19.4884 9.56906L12.4884 15.5691C12.3525 15.6855 12.1794 15.7495 12.0004 15.7495C11.8214 15.7495 11.6483 15.6855 11.5124 15.5691L4.51242 9.56906C4.3616 9.43957 4.26836 9.25551 4.25317 9.05732C4.23798 8.85913 4.30209 8.66301 4.43142 8.51206" fill="#172948"/>
</svg>
