<svg width="24" height="24" viewBox="0 0 24 24" fill="none" xmlns="http://www.w3.org/2000/svg">
<path d="M16 9C16 9.26522 15.8946 9.51957 15.7071 9.70711C15.5196 9.89464 15.2652 10 15 10C14.7348 10 14.4804 9.89464 14.2929 9.70711C14.1054 9.51957 14 9.26522 14 9C14 8.73478 14.1054 8.48043 14.2929 8.29289C14.4804 8.10536 14.7348 8 15 8C15.2652 8 15.5196 8.10536 15.7071 8.29289C15.8946 8.48043 16 8.73478 16 9ZM10 9C10 9.26522 9.89464 9.51957 9.70711 9.70711C9.51957 9.89464 9.26522 10 9 10C8.73478 10 8.48043 9.89464 8.29289 9.70711C8.10536 9.51957 8 9.26522 8 9C8 8.73478 8.10536 8.48043 8.29289 8.29289C8.48043 8.10536 8.73478 8 9 8C9.26522 8 9.51957 8.10536 9.70711 8.29289C9.89464 8.48043 10 8.73478 10 9Z" fill="#3C3B3B"/>
<path fill-rule="evenodd" clip-rule="evenodd" d="M12.0004 2.75C11.4037 2.75 10.8314 2.98705 10.4094 3.40901C9.98747 3.83097 9.75042 4.40326 9.75042 5V5.254C10.1678 5.25067 10.6194 5.24933 11.1054 5.25H12.8954C13.3821 5.24933 13.8338 5.25067 14.2504 5.254V5C14.2504 4.40326 14.0134 3.83097 13.5914 3.40901C13.1695 2.98705 12.5972 2.75 12.0004 2.75ZM15.7504 5.307V5C15.7504 4.00544 15.3553 3.05161 14.6521 2.34835C13.9488 1.64509 12.995 1.25 12.0004 1.25C11.0059 1.25 10.052 1.64509 9.34877 2.34835C8.64551 3.05161 8.25042 4.00544 8.25042 5V5.307C8.11575 5.31633 7.98542 5.328 7.85942 5.342C6.98142 5.437 6.24642 5.635 5.59442 6.082C5.37074 6.23658 5.16004 6.40916 4.96442 6.598C4.39842 7.15 4.05942 7.832 3.79442 8.674C3.53742 9.493 3.32942 10.533 3.06742 11.84L3.04842 11.935C2.67242 13.818 2.37542 15.302 2.29042 16.484C2.20242 17.692 2.32442 18.707 2.89642 19.588C3.08842 19.8827 3.30975 20.1527 3.56042 20.398C4.31242 21.132 5.28442 21.45 6.48542 21.602C7.66142 21.75 9.17542 21.75 11.0954 21.75H12.9054C14.8264 21.75 16.3394 21.75 17.5154 21.602C18.7164 21.45 19.6894 21.132 20.4404 20.398C20.6906 20.153 20.9133 19.8814 21.1044 19.588C21.6764 18.708 21.7984 17.692 21.7114 16.484C21.6254 15.302 21.3294 13.818 20.9514 11.935L20.9334 11.84C20.6724 10.533 20.4634 9.493 20.2064 8.674C19.9414 7.832 19.6024 7.15 19.0364 6.598C18.8408 6.40916 18.6301 6.23658 18.4064 6.082C17.7544 5.635 17.0194 5.437 16.1414 5.342C16.0116 5.32802 15.8816 5.31635 15.7514 5.307M8.02042 6.833C7.27342 6.913 6.81242 7.066 6.44242 7.319C6.28902 7.42463 6.14484 7.54305 6.01142 7.673C5.69042 7.986 5.45142 8.408 5.22542 9.124C4.99542 9.857 4.80142 10.817 4.53042 12.176C4.14042 14.124 3.86342 15.516 3.78642 16.592C3.70942 17.654 3.83842 18.285 4.15442 18.771C4.28509 18.9723 4.43642 19.157 4.60842 19.325C5.02342 19.73 5.61642 19.98 6.67342 20.114C7.74342 20.249 9.16342 20.25 11.1494 20.25H12.8524C14.8384 20.25 16.2564 20.249 17.3274 20.114C18.3844 19.98 18.9774 19.73 19.3924 19.325C19.5634 19.1574 19.7156 18.9716 19.8464 18.771C20.1624 18.285 20.2914 17.654 20.2154 16.591C20.1374 15.515 19.8604 14.124 19.4714 12.176C19.1994 10.817 19.0064 9.856 18.7754 9.124C18.5504 8.408 18.3104 7.986 17.9894 7.673C17.8574 7.54192 17.7134 7.42341 17.5594 7.319C17.1894 7.066 16.7274 6.914 15.9804 6.833C15.2174 6.751 14.2374 6.75 12.8514 6.75H11.1504C9.76442 6.75 8.78442 6.751 8.02042 6.833Z" fill="#3C3B3B"/>
</svg>
