<svg width="41" height="40" viewBox="0 0 41 40" fill="none" xmlns="http://www.w3.org/2000/svg">
<rect x="0.5" width="40" height="40" rx="12" fill="url(#paint0_linear_22_5605)"/>
<path d="M31.0004 13.25V19.25C31.0004 19.4489 30.9214 19.6397 30.7807 19.7803C30.6401 19.921 30.4493 20 30.2504 20C30.0515 20 29.8607 19.921 29.7201 19.7803C29.5794 19.6397 29.5004 19.4489 29.5004 19.25V15.0603L21.781 22.7806C21.7114 22.8504 21.6287 22.9057 21.5376 22.9434C21.4466 22.9812 21.349 23.0006 21.2504 23.0006C21.1519 23.0006 21.0543 22.9812 20.9632 22.9434C20.8722 22.9057 20.7894 22.8504 20.7198 22.7806L17.5004 19.5603L11.281 25.7806C11.1403 25.9214 10.9494 26.0004 10.7504 26.0004C10.5514 26.0004 10.3605 25.9214 10.2198 25.7806C10.0791 25.6399 10 25.449 10 25.25C10 25.051 10.0791 24.8601 10.2198 24.7194L16.9698 17.9694C17.0394 17.8996 17.1222 17.8443 17.2132 17.8066C17.3043 17.7688 17.4019 17.7494 17.5004 17.7494C17.599 17.7494 17.6966 17.7688 17.7876 17.8066C17.8787 17.8443 17.9614 17.8996 18.031 17.9694L21.2504 21.1897L28.4401 14H24.2504C24.0515 14 23.8607 13.921 23.7201 13.7803C23.5794 13.6397 23.5004 13.4489 23.5004 13.25C23.5004 13.0511 23.5794 12.8603 23.7201 12.7197C23.8607 12.579 24.0515 12.5 24.2504 12.5H30.2504C30.4493 12.5 30.6401 12.579 30.7807 12.7197C30.9214 12.8603 31.0004 13.0511 31.0004 13.25Z" fill="white"/>
<defs>
<linearGradient id="paint0_linear_22_5605" x1="7" y1="2.5" x2="35.5" y2="37" gradientUnits="userSpaceOnUse">
<stop stop-color="#23E679"/>
<stop offset="1" stop-color="#00BF75"/>
</linearGradient>
</defs>
</svg>
