<svg width="21" height="20" viewBox="0 0 21 20" fill="none" xmlns="http://www.w3.org/2000/svg">
<path fill-rule="evenodd" clip-rule="evenodd" d="M2.36386 1.90676C2.20649 1.85438 2.03477 1.86666 1.88646 1.94089C1.73815 2.01513 1.6254 2.14524 1.57302 2.3026C1.52064 2.45996 1.53292 2.63168 1.60715 2.77999C1.68139 2.9283 1.81149 3.04105 1.96886 3.09343L2.18969 3.16676C2.75302 3.35426 3.12636 3.4801 3.40052 3.6076C3.66052 3.72843 3.77302 3.82593 3.84469 3.92593C3.91636 4.02593 3.97386 4.1626 4.00636 4.4476C4.04052 4.74843 4.04136 5.14176 4.04136 5.73593V7.9626C4.04136 9.10176 4.04136 10.0209 4.13886 10.7434C4.23886 11.4934 4.45552 12.1251 4.95719 12.6268C5.45802 13.1284 6.09052 13.3434 6.84052 13.4451C7.56219 13.5418 8.48136 13.5418 9.62052 13.5418H16.333C16.4988 13.5418 16.6578 13.4759 16.775 13.3587C16.8922 13.2415 16.958 13.0825 16.958 12.9168C16.958 12.751 16.8922 12.592 16.775 12.4748C16.6578 12.3576 16.4988 12.2918 16.333 12.2918H9.66636C8.47052 12.2918 7.63636 12.2901 7.00636 12.2059C6.39552 12.1234 6.07136 11.9726 5.84052 11.7426C5.75654 11.6585 5.68498 11.5628 5.62802 11.4584H13.8822C14.2555 11.4584 14.5839 11.4584 14.8572 11.4293C15.1522 11.3968 15.4389 11.3259 15.7072 11.1484C15.9772 10.9709 16.1547 10.7359 16.3005 10.4768C16.4347 10.2384 16.5647 9.93593 16.7114 9.5926L17.1005 8.68426C17.4214 7.9376 17.6889 7.31176 17.823 6.80343C17.963 6.2726 17.9997 5.71843 17.6697 5.2176C17.3397 4.7176 16.8155 4.5326 16.273 4.45176C15.7522 4.3751 15.0722 4.3751 14.2589 4.3751H5.25552L5.24802 4.30593C5.20219 3.90176 5.10136 3.53093 4.85886 3.1951C4.61636 2.85843 4.29636 2.6451 3.92802 2.47426C3.58052 2.3126 3.13969 2.16593 2.61802 1.99093L2.36386 1.90676ZM5.29136 5.6251V7.91676C5.29136 8.89343 5.29219 9.62843 5.33886 10.2084H13.8514C14.2647 10.2084 14.5255 10.2076 14.723 10.1859C14.9055 10.1668 14.9755 10.1343 15.0197 10.1051C15.0639 10.0759 15.1214 10.0243 15.2114 9.86426C15.3089 9.69093 15.4114 9.45176 15.5747 9.0726L15.9322 8.23926C16.2772 7.4326 16.5072 6.8926 16.6147 6.48426C16.7197 6.0876 16.6664 5.9676 16.6264 5.90593C16.5855 5.8451 16.4955 5.74843 16.0897 5.68926C15.6722 5.62676 15.0855 5.6251 14.2089 5.6251H5.29136ZM4.87469 16.2501C4.87469 16.7474 5.07223 17.2243 5.42386 17.5759C5.7755 17.9276 6.25241 18.1251 6.74969 18.1251C7.24697 18.1251 7.72388 17.9276 8.07551 17.5759C8.42715 17.2243 8.62469 16.7474 8.62469 16.2501C8.62469 15.7528 8.42715 15.2759 8.07551 14.9243C7.72388 14.5726 7.24697 14.3751 6.74969 14.3751C6.25241 14.3751 5.7755 14.5726 5.42386 14.9243C5.07223 15.2759 4.87469 15.7528 4.87469 16.2501ZM6.74969 16.8751C6.58393 16.8751 6.42496 16.8092 6.30775 16.692C6.19054 16.5748 6.12469 16.4159 6.12469 16.2501C6.12469 16.0843 6.19054 15.9254 6.30775 15.8082C6.42496 15.6909 6.58393 15.6251 6.74969 15.6251C6.91545 15.6251 7.07442 15.6909 7.19163 15.8082C7.30884 15.9254 7.37469 16.0843 7.37469 16.2501C7.37469 16.4159 7.30884 16.5748 7.19163 16.692C7.07442 16.8092 6.91545 16.8751 6.74969 16.8751ZM14.2497 18.1251C13.7524 18.1251 13.2755 17.9276 12.9239 17.5759C12.5722 17.2243 12.3747 16.7474 12.3747 16.2501C12.3747 15.7528 12.5722 15.2759 12.9239 14.9243C13.2755 14.5726 13.7524 14.3751 14.2497 14.3751C14.747 14.3751 15.2239 14.5726 15.5755 14.9243C15.9271 15.2759 16.1247 15.7528 16.1247 16.2501C16.1247 16.7474 15.9271 17.2243 15.5755 17.5759C15.2239 17.9276 14.747 18.1251 14.2497 18.1251ZM13.6247 16.2501C13.6247 16.4159 13.6905 16.5748 13.8077 16.692C13.925 16.8092 14.0839 16.8751 14.2497 16.8751C14.4155 16.8751 14.5744 16.8092 14.6916 16.692C14.8088 16.5748 14.8747 16.4159 14.8747 16.2501C14.8747 16.0843 14.8088 15.9254 14.6916 15.8082C14.5744 15.6909 14.4155 15.6251 14.2497 15.6251C14.0839 15.6251 13.925 15.6909 13.8077 15.8082C13.6905 15.9254 13.6247 16.0843 13.6247 16.2501Z" fill="#3C3B3B"/>
</svg>
