<svg width="84" height="84" viewBox="0 0 84 84" fill="none" xmlns="http://www.w3.org/2000/svg">
<g filter="url(#filter0_d_15_1442)">
<rect x="10" y="6" width="64" height="64" rx="20" fill="url(#paint0_linear_15_1442)"/>
<path d="M28.667 33H55.3337L53.942 48.3017C53.8667 49.1299 53.4846 49.9 52.8707 50.4609C52.2567 51.0218 51.4553 51.333 50.6237 51.3333H33.377C32.5454 51.333 31.7439 51.0218 31.13 50.4609C30.516 49.9 30.1339 49.1299 30.0587 48.3017L28.667 33Z" stroke="white" stroke-width="2.5" stroke-linejoin="round"/>
<path d="M35.334 36.3332V31.3332C35.334 29.5651 36.0364 27.8694 37.2866 26.6191C38.5368 25.3689 40.2325 24.6665 42.0007 24.6665C43.7688 24.6665 45.4645 25.3689 46.7147 26.6191C47.9649 27.8694 48.6673 29.5651 48.6673 31.3332V36.3332" stroke="white" stroke-width="2.5" stroke-linecap="round"/>
</g>
<defs>
<filter id="filter0_d_15_1442" x="0" y="0" width="84" height="84" filterUnits="userSpaceOnUse" color-interpolation-filters="sRGB">
<feFlood flood-opacity="0" result="BackgroundImageFix"/>
<feColorMatrix in="SourceAlpha" type="matrix" values="0 0 0 0 0 0 0 0 0 0 0 0 0 0 0 0 0 0 127 0" result="hardAlpha"/>
<feOffset dy="4"/>
<feGaussianBlur stdDeviation="5"/>
<feComposite in2="hardAlpha" operator="out"/>
<feColorMatrix type="matrix" values="0 0 0 0 0 0 0 0 0 0 0 0 0 0 0 0 0 0 0.25 0"/>
<feBlend mode="normal" in2="BackgroundImageFix" result="effect1_dropShadow_15_1442"/>
<feBlend mode="normal" in="SourceGraphic" in2="effect1_dropShadow_15_1442" result="shape"/>
</filter>
<linearGradient id="paint0_linear_15_1442" x1="20.4" y1="10" x2="66" y2="65.2" gradientUnits="userSpaceOnUse">
<stop stop-color="#FF7B94"/>
<stop offset="1" stop-color="#FF0004"/>
</linearGradient>
</defs>
</svg>
