<svg width="40" height="40" viewBox="0 0 40 40" fill="none" xmlns="http://www.w3.org/2000/svg">
<path d="M34.9325 19.3065C34.9775 19.7381 35 20.1923 35 20.669C35 23.9115 33.87 26.0915 32.775 27.4565C32.3329 28.0108 31.8269 28.5109 31.2675 28.9465C31.0774 29.0908 30.8805 29.2259 30.6775 29.3515L30.655 29.364C30.4568 29.4712 30.2913 29.6301 30.176 29.8238C30.0607 30.0174 29.9999 30.2386 30 30.464V33.7515C30 34.083 29.8683 34.4009 29.6339 34.6354C29.3995 34.8698 29.0815 35.0015 28.75 35.0015H27.5C27.5 34.3384 27.2366 33.7025 26.7678 33.2337C26.2989 32.7649 25.663 32.5015 25 32.5015H20C19.337 32.5015 18.7011 32.7649 18.2322 33.2337C17.7634 33.7025 17.5 34.3384 17.5 35.0015H16.25C15.9185 35.0015 15.6005 34.8698 15.3661 34.6354C15.1317 34.4009 15 34.083 15 33.7515V32.244C15.0003 31.9339 14.8854 31.6347 14.6774 31.4046C14.4695 31.1746 14.1835 31.03 13.875 30.999L13.635 30.944C12.279 30.5841 11.0434 29.8696 10.055 28.874C8.95 27.749 8.2725 26.269 7.91 25.2415C7.55 24.219 6.73 23.294 5.56 22.964C5.39971 22.9177 5.25863 22.8209 5.15774 22.6881C5.05685 22.5552 5.00153 22.3933 5 22.2265V20.2415C4.99986 20.084 5.05103 19.9307 5.14575 19.8048C5.24047 19.679 5.3736 19.5874 5.525 19.544C6.7375 19.1965 7.5475 18.2165 7.89 17.1815C8.17 16.3315 8.665 15.2415 9.47 14.424C10.3917 13.5027 11.4573 12.7376 12.625 12.159C12.725 12.109 12.8 12.0731 12.85 12.0515L12.9 12.0265L12.91 12.024C13.135 11.9275 13.3267 11.7671 13.4614 11.5627C13.596 11.3583 13.6677 11.1188 13.6675 10.874V6.68897C14.2227 7.16425 14.8072 7.60428 15.4175 8.00647C16.21 8.52647 17.135 9.01897 18.1025 9.28147C18.3875 8.46147 18.7775 7.68147 19.2625 6.96147H19.2475C18.55 6.88897 17.6975 6.51147 16.785 5.91397C15.9486 5.35197 15.1624 4.71878 14.435 4.02147C14.1638 3.76536 13.824 3.59357 13.4569 3.527C13.0899 3.46042 12.7114 3.50193 12.3675 3.64647C12.0145 3.78635 11.7115 4.02878 11.4977 4.34249C11.2838 4.65619 11.1688 5.02679 11.1675 5.40647V10.099C9.89117 10.7834 8.72069 11.649 7.6925 12.669C6.5 13.874 5.8525 15.379 5.5175 16.3965C5.3775 16.814 5.0975 17.0665 4.8375 17.139C4.16407 17.3317 3.57172 17.7385 3.14999 18.2978C2.72827 18.8571 2.5001 19.5385 2.5 20.239V22.2265C2.5 23.689 3.4725 24.9715 4.8775 25.369C5.03738 25.4246 5.18185 25.5173 5.29915 25.6394C5.41645 25.7614 5.50325 25.9095 5.5525 26.0715C5.9675 27.2515 6.7975 29.129 8.2775 30.629C9.45585 31.8198 10.9044 32.7083 12.5 33.219V33.7515C12.5 34.746 12.8951 35.6999 13.5983 36.4031C14.3016 37.1064 15.2554 37.5015 16.25 37.5015H17.5C18.163 37.5015 18.7989 37.2381 19.2678 36.7692C19.7366 36.3004 20 35.6645 20 35.0015H25C25 35.6645 25.2634 36.3004 25.7322 36.7692C26.2011 37.2381 26.837 37.5015 27.5 37.5015H28.75C29.7446 37.5015 30.6984 37.1064 31.4017 36.4031C32.1049 35.6999 32.5 34.746 32.5 33.7515V31.144C32.5917 31.079 32.69 31.0056 32.795 30.924C33.5112 30.3673 34.159 29.7279 34.725 29.019C36.13 27.269 37.5 24.549 37.5 20.669C37.4967 19.0473 37.2717 17.5873 36.825 16.289C36.3798 17.4 35.7388 18.422 34.9325 19.3065ZM34.4775 9.68897C35.1029 11.197 35.2191 12.868 34.8085 14.4481C34.3979 16.0282 33.4829 17.4311 32.2025 18.444C31.16 19.2665 29.7325 19.204 28.5075 18.694L22.5325 16.2215C21.3075 15.714 20.2525 14.749 20.0975 13.4315C19.8899 11.6345 20.3386 9.82301 21.3609 8.33064C22.3831 6.83826 23.9102 5.76549 25.6608 5.30988C27.4114 4.85427 29.2677 5.0465 30.8878 5.85118C32.5079 6.65585 33.7827 8.01878 34.4775 9.68897ZM30.6525 16.4815C31.3367 15.9408 31.8678 15.2306 32.1929 14.4214C32.518 13.6121 32.6259 12.732 32.5059 11.8682C32.3859 11.0044 32.0422 10.187 31.5088 9.49698C30.9754 8.80701 30.271 8.26845 29.4652 7.93474C28.6595 7.60102 27.7806 7.48373 26.9155 7.5945C26.0505 7.70528 25.2295 8.04027 24.5338 8.56625C23.8382 9.09223 23.2922 9.79093 22.9499 10.593C22.6076 11.3951 22.481 12.2728 22.5825 13.139C22.5875 13.189 22.6075 13.2815 22.7475 13.429C22.9606 13.6374 23.213 13.8014 23.49 13.9115L29.465 16.3865C29.7369 16.5114 30.0333 16.5738 30.3325 16.569C30.5325 16.564 30.615 16.5115 30.6525 16.4815ZM14.375 18.7515C14.8723 18.7515 15.3492 18.5539 15.7008 18.2023C16.0525 17.8507 16.25 17.3738 16.25 16.8765C16.25 16.3792 16.0525 15.9023 15.7008 15.5506C15.3492 15.199 14.8723 15.0015 14.375 15.0015C13.8777 15.0015 13.4008 15.199 13.0492 15.5506C12.6975 15.9023 12.5 16.3792 12.5 16.8765C12.5 17.3738 12.6975 17.8507 13.0492 18.2023C13.4008 18.5539 13.8777 18.7515 14.375 18.7515Z" fill="#E4022C"/>
</svg>
