<svg width="24" height="24" viewBox="0 0 24 24" fill="none" xmlns="http://www.w3.org/2000/svg">
<path fill-rule="evenodd" clip-rule="evenodd" d="M9.59175 3.20003C9.43392 3.34168 9.26869 3.47487 9.09675 3.59903C8.79875 3.79903 8.46375 3.93703 8.11175 4.00703C7.95875 4.03703 7.79875 4.05003 7.47975 4.07503C6.67875 4.13903 6.27775 4.17103 5.94375 4.28903C5.56174 4.42368 5.21478 4.64224 4.92837 4.92865C4.64196 5.21506 4.4234 5.56202 4.28875 5.94403C4.17075 6.27803 4.13875 6.67903 4.07475 7.48003C4.06327 7.69175 4.04057 7.90271 4.00675 8.11203C3.93675 8.46403 3.79875 8.79903 3.59875 9.09703C3.51175 9.22703 3.40775 9.34903 3.19975 9.59203C2.67875 10.204 2.41775 10.51 2.26475 10.83C1.91175 11.57 1.91175 12.43 2.26475 13.17C2.41775 13.49 2.67875 13.796 3.19975 14.408C3.40775 14.651 3.51175 14.773 3.59875 14.903C3.79875 15.201 3.93675 15.536 4.00675 15.888C4.03675 16.041 4.04975 16.201 4.07475 16.52C4.13875 17.321 4.17075 17.722 4.28875 18.056C4.4234 18.438 4.64196 18.785 4.92837 19.0714C5.21478 19.3578 5.56174 19.5764 5.94375 19.711C6.27775 19.829 6.67875 19.861 7.47975 19.925C7.79875 19.95 7.95875 19.963 8.11175 19.993C8.46375 20.063 8.79875 20.202 9.09675 20.401C9.22675 20.488 9.34875 20.592 9.59175 20.8C10.2037 21.321 10.5098 21.582 10.8298 21.735C11.5697 22.088 12.4298 22.088 13.1698 21.735C13.4897 21.582 13.7957 21.321 14.4078 20.8C14.6508 20.592 14.7727 20.488 14.9028 20.401C15.2008 20.201 15.5357 20.063 15.8877 19.993C16.0407 19.963 16.2008 19.95 16.5198 19.925C17.3208 19.861 17.7218 19.829 18.0557 19.711C18.4378 19.5764 18.7847 19.3578 19.0711 19.0714C19.3575 18.785 19.5761 18.438 19.7108 18.056C19.8288 17.722 19.8608 17.321 19.9247 16.52C19.9497 16.201 19.9627 16.041 19.9928 15.888C20.0627 15.536 20.2017 15.201 20.4007 14.903C20.4877 14.773 20.5917 14.651 20.7997 14.408C21.3207 13.796 21.5818 13.49 21.7348 13.17C22.0878 12.43 22.0878 11.57 21.7348 10.83C21.5818 10.51 21.3207 10.204 20.7997 9.59203C20.6581 9.4342 20.5249 9.26896 20.4007 9.09703C20.2006 8.79908 20.0619 8.46422 19.9928 8.11203C19.9589 7.90271 19.9362 7.69175 19.9247 7.48003C19.8608 6.67903 19.8288 6.27803 19.7108 5.94403C19.5761 5.56202 19.3575 5.21506 19.0711 4.92865C18.7847 4.64224 18.4378 4.42368 18.0557 4.28903C17.7218 4.17103 17.3208 4.13903 16.5198 4.07503C16.308 4.06354 16.0971 4.04085 15.8877 4.00703C15.5356 3.93785 15.2007 3.79915 14.9028 3.59903C14.7308 3.47487 14.5656 3.34168 14.4078 3.20003C13.7957 2.67903 13.4897 2.41803 13.1698 2.26503C12.8045 2.0902 12.4047 1.99945 11.9998 1.99945C11.5948 1.99945 11.195 2.0902 10.8298 2.26503C10.5098 2.41803 10.2037 2.67903 9.59175 3.20003ZM16.3727 9.86303C16.5141 9.70834 16.5903 9.5051 16.5856 9.29562C16.5809 9.08614 16.4956 8.88655 16.3474 8.73839C16.1992 8.59022 15.9996 8.5049 15.7902 8.50018C15.5807 8.49545 15.3774 8.57169 15.2227 8.71303L10.3728 13.563L8.77675 11.968C8.62206 11.8267 8.41882 11.7505 8.20934 11.7552C7.99986 11.7599 7.80027 11.8452 7.65211 11.9934C7.50394 12.1415 7.41862 12.3411 7.4139 12.5506C7.40918 12.7601 7.48541 12.9633 7.62675 13.118L9.79675 15.288C9.94936 15.4403 10.1561 15.5259 10.3717 15.5259C10.5873 15.5259 10.7941 15.4403 10.9467 15.288L16.3727 9.86303Z" fill="#52C41A"/>
</svg>
