<svg width="72" height="72" viewBox="0 0 72 72" fill="none" xmlns="http://www.w3.org/2000/svg">
<circle cx="36" cy="36" r="36" fill="#D9F7BE"/>
<path fill-rule="evenodd" clip-rule="evenodd" d="M49.7871 26.1975C50.0683 26.4788 50.2262 26.8602 50.2262 27.258C50.2262 27.6557 50.0683 28.0372 49.7871 28.3185L32.9241 45.183C32.7708 45.3363 32.5889 45.4579 32.3887 45.5409C32.1884 45.6238 31.9738 45.6665 31.7571 45.6665C31.5403 45.6665 31.3257 45.6238 31.1255 45.5409C30.9252 45.4579 30.7433 45.3363 30.5901 45.183L22.2111 36.804C22.0717 36.6646 21.9612 36.4992 21.8857 36.3171C21.8103 36.135 21.7715 35.9398 21.7715 35.7427C21.7715 35.5456 21.8103 35.3505 21.8857 35.1684C21.9612 34.9863 22.0717 34.8208 22.2111 34.6815C22.3504 34.5421 22.5159 34.4316 22.698 34.3561C22.8801 34.2807 23.0752 34.2419 23.2723 34.2419C23.4694 34.2419 23.6646 34.2807 23.8467 34.3561C24.0288 34.4316 24.1942 34.5421 24.3336 34.6815L31.7586 42.1065L47.6646 26.1975C47.9459 25.9163 48.3273 25.7583 48.7251 25.7583C49.1228 25.7583 49.5058 25.9163 49.7871 26.1975Z" fill="#389E0D"/>
</svg>
