<svg width="16" height="16" viewBox="0 0 16 16" fill="none" xmlns="http://www.w3.org/2000/svg">
<g clip-path="url(#clip0_631_91301)">
<mask id="mask0_631_91301" style="mask-type:luminance" maskUnits="userSpaceOnUse" x="0" y="0" width="16" height="16">
<path d="M7.9987 14.6673C8.87435 14.6685 9.74159 14.4965 10.5506 14.1614C11.3596 13.8263 12.0943 13.3346 12.7127 12.7147C13.3327 12.0963 13.8244 11.3615 14.1595 10.5525C14.4946 9.74354 14.6665 8.8763 14.6654 8.00066C14.6665 7.12501 14.4946 6.25778 14.1594 5.4488C13.8243 4.63981 13.3327 3.90503 12.7127 3.28666C12.0943 2.66667 11.3596 2.17499 10.5506 1.83989C9.74159 1.50478 8.87435 1.33286 7.9987 1.33399C7.12306 1.33287 6.25583 1.50481 5.44685 1.83991C4.63786 2.17501 3.90307 2.66668 3.2847 3.28666C2.66473 3.90503 2.17306 4.63981 1.83796 5.4488C1.50285 6.25778 1.33092 7.12501 1.33204 8.00066C1.3309 8.8763 1.50283 9.74354 1.83793 10.5525C2.17304 11.3615 2.66471 12.0963 3.2847 12.7147C3.90307 13.3346 4.63786 13.8263 5.44685 14.1614C6.25583 14.4965 7.12306 14.6684 7.9987 14.6673Z" fill="white" stroke="white" stroke-width="1.33333" stroke-linejoin="round"/>
<path d="M5.33203 8L7.33203 10L11.332 6" stroke="black" stroke-width="1.33333" stroke-linecap="round" stroke-linejoin="round"/>
</mask>
<g mask="url(#mask0_631_91301)">
<path d="M0 0H16V16H0V0Z" fill="#389E0D"/>
</g>
</g>
<defs>
<clipPath id="clip0_631_91301">
<rect width="16" height="16" fill="white"/>
</clipPath>
</defs>
</svg>
