<svg width="24" height="24" viewBox="0 0 24 24" fill="none" xmlns="http://www.w3.org/2000/svg">
<path d="M16.0308 10.0292C16.1045 9.96052 16.1636 9.87771 16.2046 9.78572C16.2456 9.69372 16.2676 9.5944 16.2694 9.4937C16.2712 9.393 16.2527 9.29297 16.2149 9.19958C16.1772 9.10619 16.1211 9.02136 16.0499 8.95014C15.9786 8.87892 15.8938 8.82278 15.8004 8.78505C15.707 8.74733 15.607 8.72881 15.5063 8.73059C15.4056 8.73236 15.3063 8.7544 15.2143 8.7954C15.1223 8.83639 15.0395 8.89549 14.9708 8.96918L10.5008 13.4392L9.03082 11.9692C8.88865 11.8367 8.7006 11.7646 8.5063 11.768C8.312 11.7714 8.12661 11.8501 7.9892 11.9876C7.85179 12.125 7.77308 12.3104 7.76965 12.5047C7.76622 12.699 7.83834 12.887 7.97082 13.0292L9.97082 15.0292C10.1114 15.1696 10.3021 15.2485 10.5008 15.2485C10.6996 15.2485 10.8902 15.1696 11.0308 15.0292L16.0308 10.0292Z" fill="#E4022C"/>
<path fill-rule="evenodd" clip-rule="evenodd" d="M12 1.25C6.063 1.25 1.25 6.063 1.25 12C1.25 17.937 6.063 22.75 12 22.75C17.937 22.75 22.75 17.937 22.75 12C22.75 6.063 17.937 1.25 12 1.25ZM2.75 12C2.75 9.54675 3.72455 7.19397 5.45926 5.45926C7.19397 3.72455 9.54675 2.75 12 2.75C14.4533 2.75 16.806 3.72455 18.5407 5.45926C20.2754 7.19397 21.25 9.54675 21.25 12C21.25 14.4533 20.2754 16.806 18.5407 18.5407C16.806 20.2754 14.4533 21.25 12 21.25C9.54675 21.25 7.19397 20.2754 5.45926 18.5407C3.72455 16.806 2.75 14.4533 2.75 12Z" fill="#E4022C"/>
</svg>
