<svg width="24" height="24" viewBox="0 0 24 24" fill="none" xmlns="http://www.w3.org/2000/svg">
<path d="M10.0292 8.96997C9.887 8.83749 9.69896 8.76537 9.50466 8.7688C9.31035 8.77222 9.12497 8.85094 8.98756 8.98835C8.85014 9.12576 8.77143 9.31115 8.768 9.50545C8.76457 9.69975 8.8367 9.8878 8.96918 10.03L10.9392 12L8.96918 13.97C8.89549 14.0386 8.83639 14.1214 8.7954 14.2134C8.7544 14.3054 8.73236 14.4047 8.73059 14.5054C8.72881 14.6062 8.74733 14.7062 8.78505 14.7996C8.82278 14.893 8.87892 14.9778 8.95014 15.049C9.02136 15.1202 9.10619 15.1764 9.19958 15.2141C9.29297 15.2518 9.393 15.2703 9.4937 15.2686C9.5944 15.2668 9.69372 15.2447 9.78572 15.2038C9.87771 15.1628 9.96052 15.1037 10.0292 15.03L11.9992 13.06L13.9692 15.03C14.1114 15.1625 14.2994 15.2346 14.4937 15.2311C14.688 15.2277 14.8734 15.149 15.0108 15.0116C15.1482 14.8742 15.2269 14.6888 15.2304 14.4945C15.2338 14.3002 15.1617 14.1121 15.0292 13.97L13.0592 12L15.0292 10.03C15.1029 9.96131 15.162 9.87851 15.203 9.78651C15.244 9.69451 15.266 9.5952 15.2678 9.49449C15.2695 9.39379 15.251 9.29376 15.2133 9.20037C15.1756 9.10698 15.1194 9.02215 15.0482 8.95093C14.977 8.87971 14.8922 8.82357 14.7988 8.78585C14.7054 8.74813 14.6054 8.7296 14.5047 8.73138C14.404 8.73316 14.3046 8.7552 14.2126 8.79619C14.1206 8.83718 14.0378 8.89628 13.9692 8.96997L11.9992 10.94L10.0292 8.96997Z" fill="#F5222D"/>
<path fill-rule="evenodd" clip-rule="evenodd" d="M12 1.25C6.063 1.25 1.25 6.063 1.25 12C1.25 17.937 6.063 22.75 12 22.75C17.937 22.75 22.75 17.937 22.75 12C22.75 6.063 17.937 1.25 12 1.25ZM2.75 12C2.75 9.54675 3.72455 7.19397 5.45926 5.45926C7.19397 3.72455 9.54675 2.75 12 2.75C14.4533 2.75 16.806 3.72455 18.5407 5.45926C20.2754 7.19397 21.25 9.54675 21.25 12C21.25 14.4533 20.2754 16.806 18.5407 18.5407C16.806 20.2754 14.4533 21.25 12 21.25C9.54675 21.25 7.19397 20.2754 5.45926 18.5407C3.72455 16.806 2.75 14.4533 2.75 12Z" fill="#F5222D"/>
</svg>
