<svg width="24" height="24" viewBox="0 0 24 24" fill="none" xmlns="http://www.w3.org/2000/svg">
<path d="M10.0302 8.96997C9.88798 8.83749 9.69993 8.76537 9.50563 8.7688C9.31133 8.77222 9.12595 8.85094 8.98853 8.98835C8.85112 9.12576 8.77241 9.31115 8.76898 9.50545C8.76555 9.69975 8.83767 9.8878 8.97015 10.03L10.9402 12L8.97015 13.97C8.89647 14.0386 8.83736 14.1214 8.79637 14.2134C8.75538 14.3054 8.73334 14.4047 8.73156 14.5054C8.72979 14.6062 8.74831 14.7062 8.78603 14.7996C8.82375 14.893 8.8799 14.9778 8.95112 15.049C9.02233 15.1202 9.10717 15.1764 9.20056 15.2141C9.29394 15.2518 9.39397 15.2703 9.49468 15.2686C9.59538 15.2668 9.69469 15.2447 9.78669 15.2038C9.87869 15.1628 9.96149 15.1037 10.0302 15.03L12.0002 13.06L13.9702 15.03C14.1123 15.1625 14.3004 15.2346 14.4947 15.2311C14.689 15.2277 14.8744 15.149 15.0118 15.0116C15.1492 14.8742 15.2279 14.6888 15.2313 14.4945C15.2348 14.3002 15.1626 14.1121 15.0302 13.97L13.0602 12L15.0302 10.03C15.1038 9.96131 15.1629 9.87851 15.2039 9.78651C15.2449 9.69451 15.267 9.5952 15.2687 9.49449C15.2705 9.39379 15.252 9.29376 15.2143 9.20037C15.1766 9.10698 15.1204 9.02215 15.0492 8.95093C14.978 8.87971 14.8931 8.82357 14.7998 8.78585C14.7064 8.74813 14.6063 8.7296 14.5056 8.73138C14.4049 8.73316 14.3056 8.7552 14.2136 8.79619C14.1216 8.83718 14.0388 8.89628 13.9702 8.96997L12.0002 10.94L10.0302 8.96997Z" fill="#3C3B3B"/>
<path fill-rule="evenodd" clip-rule="evenodd" d="M12 1.25C6.063 1.25 1.25 6.063 1.25 12C1.25 17.937 6.063 22.75 12 22.75C17.937 22.75 22.75 17.937 22.75 12C22.75 6.063 17.937 1.25 12 1.25ZM2.75 12C2.75 9.54675 3.72455 7.19397 5.45926 5.45926C7.19397 3.72455 9.54675 2.75 12 2.75C14.4533 2.75 16.806 3.72455 18.5407 5.45926C20.2754 7.19397 21.25 9.54675 21.25 12C21.25 14.4533 20.2754 16.806 18.5407 18.5407C16.806 20.2754 14.4533 21.25 12 21.25C9.54675 21.25 7.19397 20.2754 5.45926 18.5407C3.72455 16.806 2.75 14.4533 2.75 12Z" fill="#3C3B3B"/>
</svg>
