<svg width="84" height="84" viewBox="0 0 84 84" fill="none" xmlns="http://www.w3.org/2000/svg">
<g filter="url(#filter0_d_15_1456)">
<rect x="10" y="6" width="64" height="64" rx="20" fill="url(#paint0_linear_15_1456)"/>
<path d="M40.5 32.6139C40.18 32.9819 40 33.4899 40 33.9999C40 34.2651 39.8946 34.5195 39.7071 34.707C39.5196 34.8946 39.2652 34.9999 39 34.9999C38.7348 34.9999 38.4804 34.8946 38.2929 34.707C38.1054 34.5195 38 34.2651 38 33.9999C38 33.0539 38.322 32.0599 39 31.2919C39.694 30.5039 40.72 29.9999 42 29.9999C43.28 29.9999 44.306 30.5039 45 31.2919C45.678 32.0619 46 33.0519 46 33.9999C46 34.9799 45.768 35.7399 45.396 36.3799C45.07 36.9379 44.644 37.3799 44.306 37.7339L44.222 37.8199C43.85 38.2099 43.564 38.5279 43.354 38.9279C43.154 39.3099 43 39.8159 43 40.5859C43 40.8511 42.8946 41.1055 42.7071 41.293C42.5196 41.4806 42.2652 41.5859 42 41.5859C41.7348 41.5859 41.4804 41.4806 41.2929 41.293C41.1054 41.1055 41 40.8511 41 40.5859C41 39.5219 41.22 38.6919 41.582 37.9999C41.936 37.3259 42.402 36.8319 42.778 36.4379L42.822 36.3919C43.198 35.9979 43.466 35.7179 43.668 35.3719C43.858 35.0459 44 34.6339 44 33.9999C44 33.4899 43.822 32.9799 43.5 32.6139C43.194 32.2679 42.72 31.9999 42 31.9999C41.28 31.9999 40.806 32.2679 40.5 32.6139ZM42 46.4239C42.1882 46.431 42.3758 46.4001 42.5518 46.333C42.7277 46.2659 42.8883 46.164 43.024 46.0334C43.1596 45.9028 43.2675 45.7462 43.3412 45.5729C43.4149 45.3996 43.4529 45.2132 43.4529 45.0249C43.4529 44.8366 43.4149 44.6502 43.3412 44.477C43.2675 44.3037 43.1596 44.147 43.024 44.0164C42.8883 43.8858 42.7277 43.7839 42.5518 43.7168C42.3758 43.6497 42.1882 43.6188 42 43.6259C41.6287 43.6259 41.2726 43.7734 41.0101 44.036C40.7475 44.2985 40.6 44.6546 40.6 45.0259C40.6 45.3972 40.7475 45.7533 41.0101 46.0159C41.2726 46.2784 41.6287 46.4259 42 46.4259M26 37.9999C26.0009 34.5036 27.147 31.1037 29.263 28.3204C31.3791 25.5371 34.3486 23.5236 37.7174 22.5877C41.0862 21.6519 44.6688 21.8453 47.9172 23.1383C51.1657 24.4313 53.9012 26.7529 55.7053 29.7478C57.5095 32.7427 58.283 36.2461 57.9075 39.7223C57.532 43.1984 56.0282 46.4559 53.6261 48.9964C51.224 51.537 48.0558 53.2207 44.6061 53.7902C41.1565 54.3597 37.6152 53.7836 34.524 52.1499L27.244 53.9699C27.0765 54.012 26.9009 54.01 26.7343 53.9641C26.5678 53.9181 26.416 53.8298 26.2937 53.7078C26.1715 53.5857 26.0829 53.4341 26.0367 53.2676C25.9905 53.1011 25.9882 52.9255 26.03 52.7579L27.85 45.4759C26.6338 43.1717 25.9988 40.6054 26 37.9999ZM42 23.9999C39.5568 23.9992 37.1559 24.6378 35.0359 25.8524C32.916 27.0671 31.1508 28.8153 29.9158 30.9235C28.6809 33.0316 28.0191 35.4263 27.9963 37.8694C27.9736 40.3125 28.5906 42.7191 29.786 44.8499C29.9116 45.0722 29.9473 45.3341 29.886 45.5819L28.374 51.6259L34.418 50.1139C34.6658 50.0526 34.9277 50.0884 35.15 50.2139C37.0165 51.2596 39.0979 51.8635 41.2342 51.9794C43.3705 52.0952 45.5049 51.7199 47.4736 50.8823C49.4422 50.0447 51.1927 48.767 52.5907 47.1474C53.9886 45.5278 54.9967 43.6094 55.5376 41.5394C56.0785 39.4695 56.1378 37.3031 55.7109 35.2067C55.284 33.1102 54.3824 31.1395 53.0752 29.4459C51.768 27.7522 50.09 26.3807 48.1701 25.4366C46.2502 24.4926 44.1395 24.0011 42 23.9999Z" fill="white"/>
</g>
<defs>
<filter id="filter0_d_15_1456" x="0" y="0" width="84" height="84" filterUnits="userSpaceOnUse" color-interpolation-filters="sRGB">
<feFlood flood-opacity="0" result="BackgroundImageFix"/>
<feColorMatrix in="SourceAlpha" type="matrix" values="0 0 0 0 0 0 0 0 0 0 0 0 0 0 0 0 0 0 127 0" result="hardAlpha"/>
<feOffset dy="4"/>
<feGaussianBlur stdDeviation="5"/>
<feComposite in2="hardAlpha" operator="out"/>
<feColorMatrix type="matrix" values="0 0 0 0 0 0 0 0 0 0 0 0 0 0 0 0 0 0 0.25 0"/>
<feBlend mode="normal" in2="BackgroundImageFix" result="effect1_dropShadow_15_1456"/>
<feBlend mode="normal" in="SourceGraphic" in2="effect1_dropShadow_15_1456" result="shape"/>
</filter>
<linearGradient id="paint0_linear_15_1456" x1="20.4" y1="10" x2="66" y2="65.2" gradientUnits="userSpaceOnUse">
<stop stop-color="#FF005E"/>
<stop offset="1" stop-color="#FD2876"/>
</linearGradient>
</defs>
</svg>
