<svg width="16" height="14" viewBox="0 0 16 14" fill="none" xmlns="http://www.w3.org/2000/svg">
<path d="M14.9602 5.00537L13.1762 1.84204C13.0891 1.68768 12.9626 1.55923 12.8095 1.46985C12.6565 1.38047 12.4824 1.33337 12.3052 1.33337H3.6952C3.51802 1.33343 3.34404 1.38055 3.19105 1.46993C3.03807 1.55931 2.91158 1.68772 2.82453 1.84204L1.0402 5.00537C0.932877 5.19559 0.890778 5.4157 0.920333 5.63209C0.949887 5.84848 1.04947 6.04924 1.20386 6.20371L7.52886 12.5287C7.65388 12.6537 7.82342 12.7239 8.0002 12.7239C8.17697 12.7239 8.34651 12.6537 8.47153 12.5287L14.7969 6.20337C14.9513 6.04895 15.051 5.8482 15.0806 5.63181C15.1102 5.41542 15.0681 5.19529 14.9609 5.00504L14.9602 5.00537Z" fill="#8FBFFA"/>
<path d="M14.9602 5.00537L13.1762 1.84204C13.0891 1.68768 12.9626 1.55923 12.8095 1.46985C12.6565 1.38047 12.4824 1.33337 12.3052 1.33337H3.6952C3.51802 1.33343 3.34404 1.38055 3.19105 1.46993C3.03807 1.55931 2.91158 1.68772 2.82453 1.84204L1.0402 5.00537C0.932877 5.19559 0.890778 5.4157 0.920333 5.63209C0.949887 5.84848 1.04947 6.04924 1.20386 6.20371L7.52886 12.5287C7.65388 12.6537 7.82342 12.7239 8.0002 12.7239C8.17697 12.7239 8.34651 12.6537 8.47153 12.5287L14.7969 6.20337C14.9513 6.04895 15.051 5.8482 15.0806 5.63181C15.1102 5.41542 15.0681 5.19529 14.9609 5.00504L14.9602 5.00537Z" stroke="#2859C5" stroke-linecap="round" stroke-linejoin="round"/>
<path d="M6.25805 1.33325L5.27272 5.24659C5.20403 5.51959 5.22352 5.80733 5.32839 6.06859L7.99772 12.7239H8.00339" stroke="#2859C5" stroke-linecap="round" stroke-linejoin="round"/>
<path d="M9.74233 1.33325L10.7273 5.24659C10.7961 5.51956 10.7768 5.8073 10.672 6.06859L8.00267 12.7239M1 5.66659H15" stroke="#2859C5" stroke-linecap="round" stroke-linejoin="round"/>
</svg>
