<svg width="24" height="24" viewBox="0 0 24 24" fill="none" xmlns="http://www.w3.org/2000/svg">
<path fill-rule="evenodd" clip-rule="evenodd" d="M12 2.75004C10.3424 2.75004 8.75269 3.40852 7.58059 4.58062C6.40848 5.75272 5.75 7.34243 5.75 9.00004C5.75 10.6576 6.40848 12.2474 7.58059 13.4195C8.75269 14.5916 10.3424 15.25 12 15.25C13.6576 15.25 15.2473 14.5916 16.4194 13.4195C17.5915 12.2474 18.25 10.6576 18.25 9.00004C18.25 7.34243 17.5915 5.75272 16.4194 4.58062C15.2473 3.40852 13.6576 2.75004 12 2.75004ZM4.25 9.00004C4.25 7.71552 4.56927 6.45113 5.17911 5.32061C5.78895 4.19008 6.67023 3.22887 7.74369 2.52341C8.81715 1.81794 10.0491 1.39036 11.3288 1.27912C12.6085 1.16788 13.8958 1.37646 15.0749 1.8861C16.254 2.39575 17.2879 3.19047 18.0837 4.19881C18.8794 5.20714 19.4121 6.39746 19.6338 7.66272C19.8554 8.92797 19.7591 10.2285 19.3535 11.4473C18.9478 12.6661 18.2456 13.7649 17.31 14.645C17.3351 14.6955 17.3558 14.748 17.372 14.802L18.022 17.171C18.325 18.278 18.57 19.169 18.681 19.861C18.79 20.539 18.812 21.237 18.433 21.805C18.217 22.128 17.923 22.393 17.577 22.569C16.947 22.889 16.26 22.732 15.645 22.499C15.017 22.263 14.229 21.852 13.261 21.347L13.214 21.323C12.49 20.946 12.301 20.861 12.119 20.842C12.04 20.8326 11.9601 20.8326 11.881 20.842C11.699 20.861 11.511 20.946 10.786 21.323L10.739 21.347C9.77101 21.852 8.983 22.262 8.355 22.499C7.74 22.732 7.053 22.889 6.423 22.569C6.07771 22.3908 5.78322 22.1279 5.567 21.805C5.188 21.237 5.21 20.539 5.319 19.861C5.43 19.169 5.675 18.278 5.979 17.171L6.628 14.801C6.64426 14.7474 6.665 14.6952 6.69 14.645C5.91869 13.9211 5.30417 13.0466 4.88447 12.0756C4.46477 11.1046 4.24883 10.0578 4.25 9.00004ZM7.96 15.615L7.438 17.521C7.11801 18.685 6.89701 19.497 6.8 20.099C6.70001 20.724 6.775 20.912 6.815 20.971C6.88824 21.0809 6.98753 21.1709 7.104 21.233C7.127 21.244 7.27 21.306 7.826 21.096C8.359 20.895 9.06601 20.527 10.093 19.993L10.196 19.939C10.764 19.642 11.221 19.404 11.722 19.35C11.9073 19.33 12.0927 19.33 12.278 19.35C12.778 19.403 13.236 19.642 13.804 19.939L13.907 19.993C14.933 20.527 15.641 20.895 16.174 21.096C16.73 21.306 16.874 21.244 16.896 21.233C17.0128 21.171 17.1125 21.081 17.186 20.971C17.226 20.911 17.3 20.724 17.2 20.099C17.103 19.497 16.881 18.685 16.563 17.521L16.04 15.615C14.8244 16.3601 13.4258 16.753 12 16.75C10.5742 16.753 9.17562 16.3601 7.96 15.615ZM12 7.03504C11.9427 7.13437 11.8763 7.25204 11.801 7.38804L11.703 7.56404L11.68 7.60404C11.602 7.74804 11.472 7.98604 11.255 8.15104C11.034 8.31904 10.767 8.37704 10.612 8.41104L10.568 8.42004L10.378 8.46304C10.202 8.50304 10.059 8.53504 9.938 8.56604C10.017 8.66304 10.12 8.78504 10.254 8.94204L10.384 9.09404L10.414 9.12804C10.522 9.25304 10.696 9.45304 10.777 9.71304C10.857 9.96904 10.829 10.233 10.812 10.399L10.807 10.446L10.787 10.649L10.745 11.109C10.85 11.063 10.968 11.009 11.109 10.944L11.288 10.862L11.328 10.842C11.472 10.775 11.721 10.658 12 10.658C12.279 10.658 12.528 10.775 12.672 10.843L12.712 10.862L12.891 10.944C13.0303 11.0094 13.1517 11.0644 13.255 11.109L13.213 10.649L13.193 10.446L13.188 10.399C13.171 10.232 13.143 9.96904 13.223 9.71304C13.303 9.45304 13.478 9.25304 13.586 9.12804L13.616 9.09404L13.746 8.94204C13.88 8.78504 13.983 8.66304 14.062 8.56604C13.941 8.53604 13.798 8.50304 13.622 8.46304L13.432 8.42004L13.388 8.41004C13.233 8.37704 12.966 8.31904 12.745 8.15003C12.528 7.98603 12.398 7.74804 12.32 7.60504L12.297 7.56404L12.199 7.38804C12.1243 7.25204 12.058 7.13504 12 7.03504ZM11.014 5.80004C11.186 5.57504 11.498 5.25004 12 5.25004C12.502 5.25004 12.814 5.57504 12.986 5.80004C13.151 6.01404 13.316 6.31104 13.486 6.61604L13.509 6.65704L13.607 6.83404L13.664 6.93404L13.763 6.95704L13.953 7.00004L14.001 7.01004C14.328 7.08504 14.654 7.15804 14.904 7.25704C15.18 7.36604 15.554 7.57703 15.699 8.04204C15.841 8.49704 15.662 8.88304 15.506 9.13204C15.361 9.36203 15.141 9.61803 14.916 9.88103L14.886 9.91604L14.756 10.069L14.674 10.166C14.676 10.202 14.681 10.244 14.686 10.301L14.706 10.504L14.71 10.55C14.744 10.902 14.777 11.242 14.765 11.514C14.753 11.8 14.685 12.232 14.297 12.525C13.897 12.829 13.457 12.763 13.177 12.682C12.919 12.609 12.614 12.468 12.307 12.327L12.264 12.307L12.084 12.224L12 12.185L11.915 12.225L11.736 12.307L11.692 12.327C11.386 12.468 11.081 12.609 10.823 12.682C10.543 12.762 10.103 12.829 9.703 12.525C9.316 12.232 9.247 11.8 9.235 11.515C9.223 11.242 9.255 10.902 9.29 10.55L9.294 10.504L9.314 10.301L9.327 10.166L9.24401 10.069L9.11401 9.91604L9.084 9.88103C8.859 9.61803 8.63901 9.36103 8.49401 9.13103C8.33801 8.88303 8.159 8.49704 8.301 8.04104C8.445 7.57804 8.82 7.36604 9.096 7.25704C9.346 7.15804 9.672 7.08504 9.999 7.01104L10.046 7.00104L10.237 6.95704L10.337 6.93404L10.393 6.83404L10.491 6.65704L10.514 6.61604C10.684 6.31104 10.849 6.01404 11.014 5.80004Z" fill="#3C3B3B"/>
</svg>
