<svg width="24" height="24" viewBox="0 0 24 24" fill="none" xmlns="http://www.w3.org/2000/svg">
<path fill-rule="evenodd" clip-rule="evenodd" d="M14.1003 2.39102C14.8335 1.67252 15.8206 1.27241 16.8471 1.27764C17.8736 1.28287 18.8566 1.69302 19.5824 2.41895C20.3082 3.14488 20.7182 4.12793 20.7232 5.15444C20.7283 6.18096 20.328 7.16799 19.6093 7.90102L12.0153 15.495C11.5873 15.923 11.3253 16.185 11.0353 16.412C10.6919 16.6795 10.3204 16.9089 9.92734 17.096C9.59334 17.255 9.24234 17.372 8.66834 17.563L5.99634 18.454L5.35434 18.668C5.07269 18.7621 4.7704 18.7759 4.48137 18.7077C4.19234 18.6396 3.92802 18.4923 3.71804 18.2823C3.50807 18.0723 3.36075 17.808 3.29263 17.519C3.2245 17.23 3.23825 16.9277 3.33234 16.646L4.43734 13.332C4.62834 12.758 4.74534 12.407 4.90434 12.073C5.09185 11.6803 5.32153 11.3091 5.58934 10.966C5.81634 10.675 6.07734 10.413 6.50534 9.98602L14.1003 2.39102ZM5.96034 16.885L5.11634 16.039L5.84434 13.854C6.05634 13.218 6.14434 12.959 6.25834 12.719C6.39967 12.4237 6.57067 12.147 6.77134 11.889C6.93534 11.679 7.12734 11.485 7.60134 11.01L13.4923 5.12002C13.7984 5.88476 14.2575 6.57894 14.8413 7.16002C15.4225 7.74351 16.1167 8.20221 16.8813 8.50802L10.9903 14.398C10.5153 14.873 10.3223 15.065 10.1123 15.228C9.85367 15.4293 9.57701 15.6007 9.28234 15.742C9.04234 15.856 8.78234 15.944 8.14634 16.156L5.96034 16.885ZM18.0763 7.31202C17.9223 7.27803 17.7703 7.23495 17.6213 7.18302C16.9728 6.95762 16.3845 6.58683 15.9013 6.09902C15.4146 5.615 15.044 5.02692 14.8173 4.37902C14.7651 4.23005 14.7217 4.07811 14.6873 3.92402L15.1603 3.45202C15.6121 3.01484 16.2176 2.77273 16.8462 2.77788C17.4748 2.78304 18.0763 3.03505 18.5208 3.47957C18.9653 3.9241 19.2173 4.52552 19.2225 5.15415C19.2276 5.78278 18.9855 6.38826 18.5483 6.84002L18.0763 7.31202ZM3.25034 22C3.25034 21.8011 3.32936 21.6103 3.47001 21.4697C3.61066 21.329 3.80143 21.25 4.00034 21.25H20.0003V22.75H4.00034C3.80143 22.75 3.61066 22.671 3.47001 22.5303C3.32936 22.3897 3.25034 22.1989 3.25034 22Z" fill="#E4022C"/>
</svg>
