<svg width="20" height="20" viewBox="0 0 20 20" fill="none" xmlns="http://www.w3.org/2000/svg">
<path d="M10.0013 2.29169C9.61347 2.29157 9.23514 2.41172 8.91844 2.63559C8.60173 2.85946 8.36225 3.17603 8.23297 3.54169C8.17577 3.69538 8.06047 3.82043 7.91191 3.88988C7.76336 3.95933 7.59346 3.96761 7.43885 3.91295C7.28425 3.85828 7.15732 3.74503 7.08545 3.59764C7.01357 3.45024 7.00251 3.2805 7.05464 3.12502C7.2701 2.51557 7.6692 1.98791 8.19699 1.61469C8.72479 1.24148 9.3553 1.04108 10.0017 1.04108C10.6481 1.04108 11.2787 1.24148 11.8064 1.61469C12.3342 1.98791 12.7333 2.51557 12.9488 3.12502C13.0041 3.28139 12.9949 3.4533 12.9234 3.60294C12.8519 3.75258 12.7239 3.86768 12.5676 3.92294C12.4112 3.97819 12.2393 3.96906 12.0896 3.89757C11.94 3.82607 11.8249 3.69805 11.7696 3.54169C11.6404 3.17603 11.4009 2.85946 11.0842 2.63559C10.7675 2.41172 10.3891 2.29157 10.0013 2.29169ZM2.29297 5.00002C2.29297 4.83426 2.35882 4.67529 2.47603 4.55808C2.59324 4.44087 2.75221 4.37502 2.91797 4.37502H17.0846C17.2504 4.37502 17.4094 4.44087 17.5266 4.55808C17.6438 4.67529 17.7096 4.83426 17.7096 5.00002C17.7096 5.16578 17.6438 5.32475 17.5266 5.44196C17.4094 5.55917 17.2504 5.62502 17.0846 5.62502H2.91797C2.75221 5.62502 2.59324 5.55917 2.47603 5.44196C2.35882 5.32475 2.29297 5.16578 2.29297 5.00002ZM4.93047 7.04169C4.91942 6.87626 4.8431 6.722 4.71831 6.61283C4.59352 6.50367 4.43048 6.44855 4.26505 6.4596C4.09962 6.47065 3.94536 6.54697 3.8362 6.67176C3.72704 6.79655 3.67192 6.95959 3.68297 7.12502L4.06964 12.9184C4.14047 13.9867 4.19797 14.85 4.33297 15.5284C4.4738 16.2325 4.71214 16.8209 5.20547 17.2817C5.6988 17.7425 6.3013 17.9425 7.0138 18.035C7.6988 18.125 8.5638 18.125 9.63547 18.125H10.368C11.4388 18.125 12.3046 18.125 12.9896 18.035C13.7013 17.9425 14.3046 17.7434 14.798 17.2817C15.2905 16.8209 15.5288 16.2317 15.6696 15.5284C15.8046 14.85 15.8613 13.9867 15.933 12.9184L16.3196 7.12502C16.3307 6.95959 16.2756 6.79655 16.1664 6.67176C16.0572 6.54697 15.903 6.47065 15.7376 6.4596C15.5721 6.44855 15.4091 6.50367 15.2843 6.61283C15.1595 6.722 15.0832 6.87626 15.0721 7.04169L14.6888 12.7917C14.6138 13.9142 14.5605 14.6959 14.4438 15.2834C14.3296 15.8542 14.1713 16.1559 13.9438 16.3692C13.7155 16.5825 13.4038 16.7209 12.8271 16.7959C12.233 16.8734 11.4496 16.875 10.3238 16.875H9.6788C8.5538 16.875 7.77047 16.8734 7.17547 16.7959C6.5988 16.7209 6.28714 16.5825 6.0588 16.3692C5.8313 16.1559 5.67297 15.8542 5.5588 15.2834C5.44214 14.6959 5.3888 13.9142 5.3138 12.7917L4.93047 7.04169Z" fill="#E4022C"/>
<path d="M7.85525 8.54499C8.02012 8.52847 8.1848 8.57809 8.31309 8.68294C8.44138 8.78779 8.52279 8.9393 8.53942 9.10415L8.95609 13.2708C8.96829 13.4334 8.91649 13.5943 8.81174 13.7192C8.70698 13.8441 8.55757 13.9232 8.39536 13.9395C8.23315 13.9558 8.07099 13.9081 7.94347 13.8065C7.81594 13.7049 7.73315 13.5576 7.71275 13.3958L7.29609 9.22915C7.27956 9.06429 7.32918 8.89961 7.43404 8.77132C7.53889 8.64302 7.6904 8.56161 7.85525 8.54499ZM12.7061 9.22915C12.7183 9.06659 12.6665 8.90568 12.5617 8.78077C12.457 8.65585 12.3076 8.57681 12.1454 8.5605C11.9832 8.54419 11.821 8.59191 11.6935 8.69347C11.5659 8.79504 11.4832 8.94241 11.4628 9.10415L11.0461 13.2708C11.0339 13.4334 11.0857 13.5943 11.1904 13.7192C11.2952 13.8441 11.4446 13.9232 11.6068 13.9395C11.769 13.9558 11.9312 13.9081 12.0587 13.8065C12.1862 13.7049 12.269 13.5576 12.2894 13.3958L12.7061 9.22915Z" fill="#E4022C"/>
</svg>
