<svg width="24" height="24" viewBox="0 0 24 24" fill="none" xmlns="http://www.w3.org/2000/svg">
<path fill-rule="evenodd" clip-rule="evenodd" d="M18.0906 2.54902C17.5386 2.23902 16.9506 2.20902 16.3296 2.28602C15.7396 2.36002 15.0206 2.54602 14.1576 2.77102L12.1386 3.29502C11.2756 3.52002 10.5576 3.70602 10.0086 3.92902C9.42956 4.16302 8.92956 4.47702 8.60556 5.02202C8.27956 5.57002 8.24756 6.15602 8.32856 6.76802C8.40556 7.34502 8.59856 8.04502 8.82856 8.87902L9.37156 10.843C9.60156 11.678 9.79556 12.377 10.0266 12.913C10.2716 13.483 10.5986 13.968 11.1546 14.28C11.7066 14.589 12.2946 14.62 12.9166 14.542C13.5066 14.469 14.2256 14.282 15.0886 14.057L17.1076 13.533C17.9706 13.309 18.6886 13.122 19.2376 12.899C19.8166 12.665 20.3166 12.351 20.6406 11.806C20.9666 11.258 20.9986 10.672 20.9176 10.061C20.8406 9.48402 20.6476 8.78302 20.4176 7.94902L19.8746 5.98502C19.6446 5.15102 19.4506 4.45102 19.2196 3.91502C18.9746 3.34502 18.6456 2.86002 18.0906 2.54902ZM14.4866 4.23502C15.4116 3.99502 16.0346 3.83502 16.5166 3.77502C16.9776 3.71702 17.1986 3.76802 17.3596 3.85802C17.5166 3.94602 17.6676 4.09902 17.8426 4.50802C18.0276 4.93802 18.1956 5.53702 18.4436 6.43502L18.9576 8.29802C19.2066 9.19602 19.3706 9.79602 19.4316 10.258C19.4896 10.697 19.4376 10.896 19.3516 11.039C19.2646 11.186 19.1066 11.335 18.6766 11.509C18.2286 11.69 17.6066 11.854 16.6816 12.094L14.7616 12.593C13.8366 12.833 13.2136 12.993 12.7316 13.053C12.2696 13.112 12.0496 13.061 11.8886 12.971C11.7316 12.883 11.5806 12.729 11.4056 12.321C11.2206 11.891 11.0526 11.291 10.8046 10.393L10.2906 8.53102C10.0416 7.63102 9.87756 7.03202 9.81656 6.57102C9.75856 6.13102 9.81056 5.93302 9.89656 5.78902C9.98356 5.64202 10.1416 5.49302 10.5716 5.31902C11.0196 5.13802 11.6416 4.97502 12.5666 4.73402L14.4866 4.23502Z" fill="#E4022C"/>
<path fill-rule="evenodd" clip-rule="evenodd" d="M3.20007 4.725C3.01062 4.67856 2.81052 4.70775 2.64223 4.80639C2.47395 4.90503 2.35071 5.06535 2.29867 5.25334C2.24663 5.44134 2.26988 5.64221 2.36349 5.81335C2.4571 5.98448 2.6137 6.11242 2.80007 6.17L4.50307 6.643C4.92907 6.761 5.24607 7.083 5.35407 7.474L7.30607 14.537C7.23074 14.5517 7.15574 14.569 7.08107 14.589C5.10407 15.102 3.89607 17.091 4.43807 19.056C4.97807 21.011 7.03207 22.138 9.00107 21.626C10.7251 21.179 11.8641 19.61 11.7681 17.914L20.1881 15.726C20.2834 15.7012 20.3729 15.658 20.4515 15.5986C20.5302 15.5392 20.5963 15.465 20.6462 15.3801C20.6961 15.2952 20.7288 15.2012 20.7424 15.1037C20.7561 15.0061 20.7503 14.9068 20.7256 14.8115C20.7008 14.7162 20.6575 14.6266 20.5982 14.548C20.5388 14.4694 20.4646 14.4033 20.3796 14.3534C20.2947 14.3034 20.2008 14.2707 20.1032 14.2571C20.0057 14.2435 19.9064 14.2492 19.8111 14.274L11.3731 16.467C11.1206 15.9847 10.7653 15.5636 10.3323 15.2336C9.89927 14.9035 9.3991 14.6726 8.86707 14.557L6.80007 7.074C6.67293 6.62399 6.4315 6.21453 6.09926 5.88545C5.76702 5.55636 5.35528 5.31885 4.90407 5.196L3.20007 4.725ZM7.45907 16.04C8.67107 15.726 9.88707 16.429 10.1991 17.559C10.5091 18.679 9.82907 19.862 8.62507 20.175C7.41307 20.49 6.19707 19.786 5.88507 18.656C5.57507 17.536 6.25507 16.353 7.45907 16.04Z" fill="#E4022C"/>
</svg>
