<svg width="41" height="40" viewBox="0 0 41 40" fill="none" xmlns="http://www.w3.org/2000/svg">
<rect x="0.5" width="40" height="40" rx="12" fill="url(#paint0_linear_22_5595)"/>
<path d="M30.9234 17.1182C30.8297 16.83 30.6527 16.5759 30.4148 16.3881C30.1769 16.2002 29.8887 16.087 29.5866 16.0626L24.0553 15.6164L21.9197 10.4517C21.8042 10.1703 21.6076 9.92953 21.355 9.76012C21.1023 9.5907 20.805 9.50024 20.5008 9.50024C20.1966 9.50024 19.8992 9.5907 19.6466 9.76012C19.3939 9.92953 19.1974 10.1703 19.0819 10.4517L16.9481 15.6154L11.4141 16.0626C11.1114 16.0882 10.823 16.2025 10.5851 16.3913C10.3471 16.5801 10.1702 16.8348 10.0764 17.1237C9.9826 17.4126 9.97615 17.7227 10.0578 18.0153C10.1395 18.3078 10.3057 18.5697 10.5356 18.7682L14.7544 22.4086L13.4691 27.8517C13.3972 28.1474 13.4148 28.4578 13.5196 28.7435C13.6245 29.0292 13.8118 29.2773 14.058 29.4563C14.3041 29.6353 14.5978 29.7371 14.9019 29.7489C15.206 29.7606 15.5067 29.6818 15.7659 29.5223L20.5003 26.6086L25.2375 29.5223C25.4968 29.6799 25.7969 29.7572 26.1001 29.7446C26.4032 29.732 26.6958 29.6299 26.9411 29.4513C27.1864 29.2727 27.3733 29.0255 27.4784 28.7408C27.5835 28.4562 27.602 28.1468 27.5316 27.8517L26.2416 22.4076L30.4603 18.7673C30.6921 18.5691 30.8598 18.3066 30.9422 18.0131C31.0247 17.7195 31.0181 17.4081 30.9234 17.1182ZM29.4853 17.6311L24.9197 21.5686C24.8156 21.6583 24.7381 21.7749 24.6958 21.9057C24.6535 22.0365 24.6479 22.1764 24.6797 22.3101L26.0747 28.1976C26.0783 28.2057 26.0787 28.2149 26.0757 28.2233C26.0727 28.2317 26.0667 28.2386 26.0587 28.2426C26.0419 28.2557 26.0372 28.2529 26.0231 28.2426L20.8931 25.0879C20.775 25.0153 20.639 24.9768 20.5003 24.9768C20.3616 24.9768 20.2256 25.0153 20.1075 25.0879L14.9775 28.2445C14.9634 28.2529 14.9597 28.2557 14.9419 28.2445C14.934 28.2405 14.9279 28.2335 14.9249 28.2252C14.922 28.2168 14.9223 28.2076 14.9259 28.1995L16.3209 22.312C16.3527 22.1783 16.3472 22.0384 16.3048 21.9076C16.2625 21.7768 16.1851 21.6602 16.0809 21.5704L11.5153 17.6329C11.5041 17.6236 11.4937 17.6151 11.5031 17.5861C11.5125 17.557 11.52 17.5607 11.5341 17.5589L17.5266 17.0751C17.664 17.0633 17.7955 17.0139 17.9067 16.9321C18.0178 16.8504 18.1043 16.7397 18.1566 16.612L20.4647 11.0236C20.4722 11.0076 20.475 11.0001 20.4975 11.0001C20.52 11.0001 20.5228 11.0076 20.5303 11.0236L22.8441 16.612C22.8968 16.7397 22.9838 16.8504 23.0955 16.9318C23.2072 17.0132 23.3391 17.0621 23.4769 17.0732L29.4694 17.557C29.4834 17.557 29.4919 17.557 29.5003 17.5842C29.5087 17.6114 29.5003 17.6217 29.4853 17.6311Z" fill="white"/>
<defs>
<linearGradient id="paint0_linear_22_5595" x1="7" y1="2.5" x2="35.5" y2="37" gradientUnits="userSpaceOnUse">
<stop stop-color="#F3AC00"/>
<stop offset="1" stop-color="#FFC35E"/>
</linearGradient>
</defs>
</svg>
