<svg width="24" height="24" viewBox="0 0 24 24" fill="none" xmlns="http://www.w3.org/2000/svg">
<path fill-rule="evenodd" clip-rule="evenodd" d="M13.6423 5.138C13.3353 5.538 12.9863 6.161 12.4673 7.092L12.2043 7.562L12.1533 7.655C11.9183 8.078 11.7003 8.471 11.3463 8.74C10.9893 9.011 10.5533 9.109 10.0963 9.211L9.99627 9.234L9.48627 9.349C8.47626 9.578 7.80726 9.731 7.35326 9.91C6.91326 10.084 6.86826 10.207 6.85126 10.26C6.83126 10.323 6.80326 10.465 7.06826 10.886C7.33826 11.314 7.79626 11.853 8.48326 12.656L8.83026 13.062L8.89626 13.14C9.21226 13.507 9.50126 13.844 9.63426 14.271C9.76626 14.696 9.72227 15.141 9.67426 15.631L9.66426 15.734L9.61127 16.276C9.50727 17.346 9.43927 18.067 9.46227 18.583C9.48526 19.097 9.59227 19.185 9.62726 19.211L9.62827 19.212C9.65326 19.232 9.74727 19.304 10.1943 19.176C10.6623 19.042 11.2913 18.755 12.2363 18.32L12.7123 18.1L12.8083 18.056C13.2343 17.859 13.6423 17.67 14.0893 17.67C14.5363 17.67 14.9443 17.859 15.3693 18.056L15.4663 18.1L15.9423 18.32C16.8873 18.755 17.5163 19.042 17.9843 19.176C18.4313 19.304 18.5243 19.232 18.5493 19.212L18.5513 19.211C18.5863 19.185 18.6933 19.097 18.7163 18.583C18.7393 18.068 18.6713 17.346 18.5673 16.276L18.5153 15.734L18.5053 15.631C18.4563 15.141 18.4123 14.696 18.5453 14.271C18.6773 13.844 18.9663 13.507 19.2823 13.14L19.3483 13.062L19.6953 12.657C20.3823 11.853 20.8403 11.314 21.1103 10.886C21.3753 10.465 21.3463 10.323 21.3273 10.261C21.3103 10.207 21.2663 10.084 20.8253 9.911C20.3713 9.731 19.7013 9.578 18.6923 9.349L18.1823 9.234L18.0823 9.211C17.6253 9.109 17.1893 9.011 16.8323 8.74C16.4783 8.471 16.2603 8.078 16.0253 7.655L15.9743 7.562L15.7113 7.092C15.1933 6.162 14.8433 5.538 14.5363 5.138C14.2383 4.748 14.1143 4.75 14.0913 4.75H14.0873C14.0643 4.75 13.9403 4.748 13.6423 5.138ZM12.4513 4.226C12.8413 3.716 13.3513 3.25 14.0893 3.25C14.8273 3.25 15.3383 3.717 15.7273 4.226C16.1093 4.724 16.5113 5.445 16.9923 6.308L17.2843 6.832C17.6043 7.407 17.6693 7.492 17.7383 7.545C17.8043 7.595 17.8903 7.63 18.5143 7.771L19.0843 7.9C20.0163 8.11 20.8003 8.288 21.3753 8.515C21.9773 8.752 22.5423 9.116 22.7593 9.815C22.9743 10.506 22.7273 11.133 22.3793 11.685C22.0443 12.218 21.5123 12.84 20.8743 13.585L20.8343 13.631L20.4883 14.037C20.0663 14.53 20.0063 14.623 19.9773 14.717C19.9473 14.814 19.9443 14.932 20.0073 15.59L20.0663 16.19C20.1623 17.186 20.2433 18.015 20.2143 18.65C20.1853 19.298 20.0373 19.966 19.4583 20.406C18.8683 20.854 18.1873 20.795 17.5713 20.618C16.9783 20.448 16.2443 20.11 15.3723 19.708L14.8383 19.463C14.2523 19.193 14.1643 19.17 14.0893 19.17C14.0143 19.17 13.9263 19.193 13.3393 19.463L12.8053 19.709C11.9343 20.11 11.2003 20.449 10.6073 20.619C9.99127 20.794 9.31126 20.854 8.72026 20.406C8.14026 19.966 7.99326 19.298 7.96426 18.65C7.93527 18.015 8.01626 17.186 8.11227 16.19L8.17026 15.59C8.23426 14.932 8.23226 14.814 8.20226 14.717C8.17226 14.623 8.11226 14.53 7.69026 14.037L7.30426 13.585C6.66726 12.84 6.13426 12.218 5.79826 11.685C5.45126 11.133 5.20426 10.506 5.41826 9.815C5.63626 9.116 6.20126 8.752 6.80326 8.515C7.37826 8.288 8.16327 8.111 9.09327 7.9L9.66426 7.77C10.2883 7.63 10.3743 7.594 10.4403 7.545C10.5103 7.492 10.5743 7.407 10.8943 6.832L11.1863 6.308C11.6683 5.445 12.0693 4.724 12.4513 4.226ZM8.74526 5.202C6.76426 4.632 4.63826 4.932 2.58726 6.134L2.37926 6.256C2.29423 6.30577 2.20023 6.33831 2.10263 6.35175C2.00502 6.36519 1.90573 6.35928 1.81041 6.33435C1.71509 6.30941 1.62561 6.26595 1.54709 6.20644C1.46857 6.14693 1.40254 6.07253 1.35276 5.9875C1.30299 5.90247 1.27046 5.80847 1.25702 5.71086C1.24357 5.61326 1.24949 5.51396 1.27442 5.41864C1.29935 5.32332 1.34282 5.23385 1.40233 5.15532C1.46184 5.0768 1.53623 5.01077 1.62126 4.961L1.82926 4.84C4.18926 3.457 6.73726 3.062 9.16126 3.76L9.36927 3.82C9.56049 3.87516 9.72196 4.00403 9.81817 4.17825C9.91437 4.35248 9.93743 4.55778 9.88227 4.749C9.8271 4.94022 9.69823 5.1017 9.52401 5.1979C9.34979 5.29411 9.14449 5.31717 8.95326 5.262L8.74526 5.202ZM4.83626 9.936C4.85317 10.1341 4.79072 10.3308 4.66265 10.4829C4.53457 10.635 4.35135 10.73 4.15326 10.747C3.99926 10.76 3.88326 10.767 3.78326 10.774C3.63428 10.7789 3.48587 10.795 3.33926 10.822C3.14326 10.86 2.88726 10.939 2.42426 11.171C2.33605 11.2159 2.23983 11.2429 2.14113 11.2504C2.04244 11.258 1.94323 11.2459 1.84922 11.2149C1.75521 11.1839 1.66827 11.1346 1.59341 11.0699C1.51855 11.0051 1.45724 10.9262 1.41303 10.8376C1.36881 10.7491 1.34257 10.6526 1.3358 10.5539C1.32904 10.4551 1.34188 10.356 1.37361 10.2622C1.40533 10.1685 1.4553 10.0819 1.52063 10.0076C1.58596 9.93321 1.66537 9.87252 1.75426 9.829C2.29126 9.561 2.68026 9.421 3.05626 9.349C3.30326 9.301 3.55826 9.285 3.78726 9.269L4.02526 9.253C4.22337 9.2361 4.42007 9.29855 4.57215 9.42662C4.72422 9.55469 4.81922 9.73791 4.83626 9.936ZM5.91826 15.856C5.33824 15.7191 4.73491 15.7139 4.15261 15.8408C3.5703 15.9676 3.02381 16.2233 2.55326 16.589C2.47619 16.6526 2.38719 16.7001 2.2915 16.7288C2.1958 16.7575 2.09533 16.7668 1.996 16.7561C1.89666 16.7455 1.80046 16.7151 1.71303 16.6667C1.62561 16.6183 1.54873 16.553 1.4869 16.4745C1.42508 16.396 1.37956 16.306 1.35301 16.2097C1.32646 16.1134 1.31943 16.0127 1.33232 15.9137C1.34521 15.8146 1.37776 15.7191 1.42807 15.6328C1.47837 15.5464 1.54542 15.471 1.62526 15.411C2.27275 14.9059 3.02529 14.5526 3.82745 14.3769C4.62961 14.2012 5.46096 14.2078 6.26026 14.396C6.44955 14.4454 6.61204 14.5668 6.71307 14.7344C6.8141 14.9019 6.84567 15.1023 6.80105 15.2927C6.75643 15.4832 6.63915 15.6487 6.47424 15.7539C6.30932 15.8592 6.10981 15.8958 5.91826 15.856Z" fill="#E4022C"/>
</svg>
