<svg width="24" height="24" viewBox="0 0 24 24" fill="none" xmlns="http://www.w3.org/2000/svg">
<path fill-rule="evenodd" clip-rule="evenodd" d="M11.2927 3.308C10.8987 3.822 10.4547 4.616 9.80872 5.774L9.48172 6.361L9.42272 6.467C9.12272 7.007 8.86772 7.465 8.45872 7.775C8.04572 8.089 7.54172 8.202 6.95572 8.334L6.84172 8.36L6.20572 8.504C4.95072 8.788 4.09572 8.983 3.51172 9.214C2.94072 9.438 2.82072 9.623 2.77472 9.77C2.72572 9.926 2.72472 10.165 3.06472 10.707C3.41172 11.257 3.99672 11.943 4.85072 12.943L5.28472 13.45L5.35972 13.537C5.76272 14.007 6.09872 14.399 6.25272 14.895C6.40572 15.388 6.35472 15.905 6.29272 16.533L6.28272 16.65L6.21672 17.327C6.08672 18.659 6.00072 19.577 6.02972 20.237C6.05972 20.897 6.19872 21.079 6.30972 21.163C6.40772 21.238 6.58972 21.32 7.18272 21.15C7.78572 20.978 8.58772 20.611 9.76272 20.07L10.3587 19.796L10.4677 19.746C11.0127 19.493 11.4847 19.275 12.0007 19.275C12.5167 19.275 12.9887 19.493 13.5337 19.745C13.5691 19.7623 13.6057 19.779 13.6437 19.795L14.2387 20.07C15.4137 20.611 16.2157 20.978 16.8187 21.15C17.4117 21.32 17.5937 21.238 17.6917 21.163C17.8027 21.079 17.9417 20.896 17.9717 20.237C18.0017 19.577 17.9137 18.659 17.7847 17.327L17.7187 16.65L17.7087 16.533C17.6467 15.905 17.5957 15.388 17.7487 14.895C17.9027 14.399 18.2387 14.007 18.6417 13.537L18.7167 13.45L19.1507 12.943C20.0047 11.943 20.5897 11.257 20.9357 10.707C21.2767 10.165 21.2757 9.927 21.2267 9.77C21.1807 9.623 21.0607 9.438 20.4897 9.214C19.9047 8.983 19.0507 8.788 17.7957 8.504L17.1597 8.36L17.0457 8.334C16.4597 8.202 15.9557 8.089 15.5427 7.775C15.1327 7.465 14.8797 7.008 14.5787 6.467L14.5207 6.361L14.1927 5.774C13.5467 4.616 13.1027 3.822 12.7087 3.308C12.3147 2.794 12.1147 2.75 12.0007 2.75C11.8867 2.75 11.6857 2.794 11.2927 3.308ZM10.1027 2.396C10.5777 1.774 11.1667 1.25 12.0007 1.25C12.8347 1.25 13.4227 1.774 13.8997 2.396C14.3677 3.008 14.8647 3.899 15.4717 4.988L15.8307 5.631C16.2227 6.335 16.3237 6.485 16.4497 6.581C16.5697 6.672 16.7267 6.724 17.4897 6.897L18.1897 7.055C19.3657 7.321 20.3347 7.54 21.0397 7.818C21.7717 8.107 22.4127 8.532 22.6597 9.325C22.9037 10.11 22.6297 10.832 22.2057 11.505C21.7937 12.16 21.1357 12.93 20.3317 13.87L19.8567 14.425C19.3397 15.029 19.2317 15.177 19.1807 15.34C19.1297 15.507 19.1337 15.7 19.2127 16.505L19.2837 17.243C19.4057 18.499 19.5047 19.523 19.4697 20.303C19.4347 21.098 19.2547 21.86 18.5997 22.358C17.9317 22.864 17.1547 22.808 16.4047 22.592C15.6777 22.384 14.7717 21.967 13.6717 21.46L13.0157 21.158C12.2977 20.828 12.1447 20.775 12.0007 20.775C11.8567 20.775 11.7037 20.828 10.9857 21.158L10.3307 21.46C9.22972 21.967 8.32372 22.384 7.59672 22.592C6.84672 22.807 6.06972 22.864 5.40272 22.358C4.74672 21.86 4.56672 21.098 4.53172 20.304C4.49672 19.524 4.59572 18.499 4.71772 17.244L4.78972 16.505C4.86772 15.699 4.87172 15.507 4.81972 15.34C4.76972 15.177 4.66172 15.03 4.14472 14.425L3.66972 13.87C2.86672 12.93 2.20872 12.16 1.79672 11.506C1.37172 10.832 1.09772 10.11 1.34172 9.325C1.58872 8.532 2.22972 8.107 2.96172 7.818C3.66672 7.54 4.63572 7.321 5.81172 7.055L5.87472 7.041L6.51072 6.897C7.27472 6.724 7.43072 6.672 7.55172 6.58C7.67772 6.485 7.77872 6.335 8.17172 5.631L8.52972 4.988C9.13672 3.898 9.63372 3.008 10.1017 2.396" fill="#3C3B3B"/>
</svg>
