<svg width="24" height="24" viewBox="0 0 24 24" fill="none" xmlns="http://www.w3.org/2000/svg">
<path fill-rule="evenodd" clip-rule="evenodd" d="M12.4227 3.07208C12.0487 3.42708 11.5947 4.00108 10.9217 4.85708L10.5817 5.29008L10.5147 5.37508C10.2097 5.76508 9.92773 6.12408 9.53173 6.33508C9.12873 6.55008 8.67773 6.57508 8.20373 6.60108L8.09973 6.60708L7.57273 6.63708C6.52673 6.69708 5.83273 6.74008 5.34973 6.84408C4.88373 6.94408 4.81373 7.06208 4.78373 7.12208C4.74773 7.19408 4.69973 7.34508 4.89473 7.81908C5.09373 8.30308 5.46173 8.92908 6.01273 9.86108L6.29173 10.3311L6.34373 10.4201C6.59873 10.8481 6.82773 11.2341 6.88773 11.6841C6.94773 12.1301 6.83173 12.5671 6.70073 13.0591L6.67373 13.1601L6.53073 13.7001C6.24873 14.7691 6.05873 15.4911 5.99573 16.0211C5.93273 16.5511 6.02373 16.6711 6.06073 16.7101L6.06273 16.7121C6.08673 16.7381 6.16773 16.8271 6.63473 16.7731C7.08273 16.7221 7.68573 16.5631 8.56273 16.3221C8.30803 16.1158 8.06624 15.894 7.83873 15.6581C7.49873 15.2931 7.17673 14.8091 7.26573 14.1841C7.35573 13.5541 7.80473 13.1841 8.23573 12.9341C8.64973 12.6971 9.22573 12.4721 9.88673 12.2131L10.3077 12.0481C10.5207 11.9641 10.6377 11.9181 10.7237 11.8761C10.7498 11.8647 10.7746 11.8507 10.7977 11.8341C10.8136 11.8112 10.827 11.7867 10.8377 11.7611C10.8777 11.6751 10.9227 11.5561 11.0027 11.3431L11.1597 10.9191C11.4077 10.2541 11.6227 9.67608 11.8547 9.25908C12.0957 8.82408 12.4587 8.36908 13.0867 8.26908C13.7097 8.16908 14.1987 8.48108 14.5717 8.81308C14.9297 9.13408 15.3297 9.61208 15.7917 10.1641L16.0827 10.5141C16.2307 10.6901 16.3147 10.7901 16.3827 10.8591C16.4048 10.8808 16.4278 10.9015 16.4517 10.9211L16.4547 10.9231L16.4567 10.9241L16.4667 10.9271L16.5467 10.9421C16.6973 10.958 16.8484 10.969 16.9997 10.9751L17.4527 10.9991L18.0677 11.0341C18.5377 10.6211 18.8507 10.3171 19.0457 10.0621C19.2557 9.78808 19.2577 9.66508 19.2477 9.59308C19.2377 9.52108 19.2067 9.38508 18.7977 9.13508C18.3727 8.87508 17.7297 8.60508 16.7607 8.20308L16.2717 7.99908L16.1767 7.95908C15.7357 7.77708 15.3187 7.60508 15.0087 7.27008C14.7037 6.94108 14.5537 6.51008 14.3897 6.04008L14.3537 5.93808L14.1707 5.41608C13.8087 4.38408 13.5637 3.69008 13.3237 3.22908C13.0877 2.77708 12.9607 2.75708 12.9367 2.75308H12.9337C12.9117 2.74808 12.7887 2.72508 12.4237 3.07208M19.8937 11.3741C20.0154 11.2469 20.1302 11.1134 20.2377 10.9741C20.5817 10.5251 20.8177 10.0081 20.7357 9.39408C20.6377 8.66108 20.1437 8.19908 19.5807 7.85508C19.0447 7.52808 18.2907 7.21508 17.3967 6.84208L16.8497 6.61408C16.2517 6.36508 16.1697 6.31408 16.1097 6.25108C16.0457 6.18108 15.9937 6.07808 15.7697 5.44108L15.5677 4.86108C15.2307 3.90208 14.9507 3.10408 14.6547 2.53608C14.3527 1.95808 13.9247 1.40008 13.1887 1.27408C12.4487 1.14808 11.8627 1.53608 11.3917 1.98408C10.9277 2.42408 10.4067 3.08608 9.78173 3.88108L9.40373 4.36208C8.98773 4.89108 8.90673 4.96908 8.82673 5.01208C8.75273 5.05208 8.66073 5.07208 8.01473 5.10908L7.48773 5.13908L7.42373 5.14308C6.45873 5.19908 5.64573 5.24608 5.03373 5.37808C4.39073 5.51708 3.77073 5.79108 3.44173 6.45508C3.11773 7.10708 3.25473 7.77308 3.50873 8.39008C3.75373 8.98608 4.17973 9.70708 4.69273 10.5731L5.00173 11.0951C5.33873 11.6651 5.38773 11.7751 5.40173 11.8831C5.41673 11.9961 5.39673 12.1231 5.22473 12.7771L5.06673 13.3751C4.80273 14.3711 4.58473 15.1951 4.50673 15.8421C4.42773 16.5021 4.46473 17.1921 4.96173 17.7291C5.47273 18.2821 6.16173 18.3391 6.80773 18.2641C7.42773 18.1921 8.21773 17.9741 9.15473 17.7141L9.28273 17.6791L9.88073 17.3891L9.92373 17.4281C9.94575 17.4494 9.96677 17.4718 9.98673 17.4951L9.98773 17.4971L9.98873 17.5001L9.99273 17.5101C9.99607 17.5207 10.0014 17.5464 10.0087 17.5871C10.0269 17.7369 10.0403 17.8874 10.0487 18.0381L10.0817 18.4911C10.1337 19.2031 10.1787 19.8211 10.2827 20.2881C10.3927 20.7781 10.6107 21.3111 11.1727 21.5941C11.7367 21.8771 12.2947 21.7301 12.7507 21.5221C13.1847 21.3241 13.7007 20.9871 14.2957 20.6001L14.6737 20.3541C14.7977 20.27 14.9248 20.1906 15.0547 20.1161L15.1247 20.0831L15.1327 20.0801H15.1457C15.1564 20.0794 15.1827 20.0827 15.2247 20.0901C15.3197 20.1061 15.4447 20.1381 15.6677 20.1961L16.1077 20.3111C16.8027 20.4911 17.4047 20.6481 17.8807 20.7001C18.3757 20.7541 18.9587 20.7221 19.4037 20.2701C19.8497 19.8171 19.8717 19.2331 19.8087 18.7401C19.7487 18.2641 19.5797 17.6671 19.3867 16.9771L19.2637 16.5401C19.2206 16.3947 19.1823 16.248 19.1487 16.1001L19.1367 16.0221V16.0121L19.1397 16.0031L19.1717 15.9331C19.2147 15.8501 19.2817 15.7431 19.4027 15.5501L19.6427 15.1681C20.0207 14.5681 20.3487 14.0471 20.5387 13.6091C20.7387 13.1511 20.8767 12.5891 20.5817 12.0301C20.4296 11.7426 20.1881 11.5124 19.8937 11.3741ZM13.3037 9.74908L13.3147 9.75108C13.3081 9.75108 13.3044 9.75041 13.3037 9.74908ZM13.3277 9.75608C13.4178 9.80202 13.5004 9.86136 13.5727 9.93208C13.8397 10.1701 14.1687 10.5611 14.6777 11.1701L14.9337 11.4761L14.9877 11.5411C15.2107 11.8091 15.4477 12.0961 15.7817 12.2631C16.1167 12.4311 16.4877 12.4501 16.8347 12.4681L16.9197 12.4731L17.3147 12.4931C18.1047 12.5371 18.6107 12.5661 18.9597 12.6371C19.0613 12.6532 19.1598 12.6849 19.2517 12.7311V12.7351C19.2361 12.8301 19.2068 12.9224 19.1647 13.0091C19.0247 13.3301 18.7597 13.7551 18.3417 14.4191L18.1327 14.7521L18.0877 14.8231C17.9047 15.1131 17.7047 15.4291 17.6517 15.8001C17.5987 16.1701 17.7017 16.5301 17.7957 16.8631L17.8197 16.9451L17.9267 17.3271C18.1407 18.0891 18.2767 18.5781 18.3207 18.9291C18.3407 19.0891 18.3357 19.1731 18.3287 19.2121C18.2337 19.2248 18.1374 19.2238 18.0427 19.2091C17.6897 19.1701 17.1967 19.0441 16.4297 18.8451L16.0447 18.7451L15.9627 18.7231C15.6267 18.6351 15.2657 18.5391 14.8967 18.5981C14.5267 18.6581 14.2137 18.8621 13.9267 19.0511L13.8557 19.0971L13.5257 19.3111C12.8687 19.7401 12.4467 20.0111 12.1277 20.1581C12.041 20.2019 11.9484 20.2329 11.8527 20.2501H11.8467L11.8417 20.2421C11.7964 20.154 11.7644 20.0596 11.7467 19.9621C11.6697 19.6151 11.6317 19.1111 11.5737 18.3241L11.5457 17.9301L11.5397 17.8451C11.5157 17.5001 11.4897 17.1291 11.3147 16.7981C11.1407 16.4681 10.8487 16.2351 10.5767 16.0181L10.5097 15.9651L10.1997 15.7151C9.57973 15.2191 9.18173 14.8981 8.93773 14.6351C8.86625 14.5655 8.80558 14.4856 8.75773 14.3981C8.82571 14.3333 8.90246 14.2784 8.98573 14.2351C9.28973 14.0601 9.75673 13.8751 10.4897 13.5881L10.8557 13.4441L10.9357 13.4141C11.2557 13.2891 11.6057 13.1541 11.8677 12.8871C12.1307 12.6191 12.2607 12.2671 12.3797 11.9471L12.4097 11.8671L12.5467 11.4981C12.8207 10.7621 12.9967 10.2931 13.1667 9.98708C13.2092 9.90287 13.2634 9.8251 13.3277 9.75608ZM8.75073 14.3721L8.75273 14.3841C8.75007 14.3761 8.7494 14.3721 8.75073 14.3721ZM8.74873 14.4091L8.74273 14.4211C8.7414 14.4211 8.7434 14.4171 8.74873 14.4091ZM18.3197 19.2411L18.3247 19.2301C18.3227 19.2381 18.3211 19.2424 18.3197 19.2411ZM13.3377 9.74608C13.3457 9.74074 13.3497 9.73874 13.3497 9.74008L13.3377 9.74608Z" fill="#E4022C"/>
</svg>
