<svg width="24" height="24" viewBox="0 0 24 24" fill="none" xmlns="http://www.w3.org/2000/svg">
<path d="M9.44693 15.398C9.36807 15.3366 9.27775 15.2916 9.18127 15.2656C9.08479 15.2397 8.98409 15.2332 8.88509 15.2467C8.78608 15.2602 8.69077 15.2934 8.60475 15.3442C8.51874 15.395 8.44374 15.4625 8.38417 15.5428C8.32461 15.623 8.28167 15.7143 8.25789 15.8113C8.2341 15.9084 8.22995 16.0092 8.24567 16.1079C8.26139 16.2065 8.29667 16.3011 8.34943 16.3859C8.4022 16.4708 8.47138 16.5442 8.55293 16.602C9.54834 17.3458 10.7573 17.7485 11.9999 17.75C13.2426 17.7485 14.4515 17.3458 15.4469 16.602C15.5285 16.5442 15.5977 16.4708 15.6504 16.3859C15.7032 16.3011 15.7385 16.2065 15.7542 16.1079C15.7699 16.0092 15.7658 15.9084 15.742 15.8113C15.7182 15.7143 15.6753 15.623 15.6157 15.5428C15.5561 15.4625 15.4811 15.395 15.3951 15.3442C15.3091 15.2934 15.2138 15.2602 15.1148 15.2467C15.0158 15.2332 14.9151 15.2397 14.8186 15.2656C14.7221 15.2916 14.6318 15.3366 14.5529 15.398C13.816 15.9498 12.9205 16.2486 11.9999 16.25C11.0793 16.2486 10.1838 15.9498 9.44693 15.398Z" fill="#3C3B3B"/>
<path fill-rule="evenodd" clip-rule="evenodd" d="M12 1.25C11.292 1.25 10.649 1.453 9.95 1.792C9.276 2.12 8.496 2.604 7.523 3.208L5.456 4.491C4.536 5.063 3.797 5.521 3.229 5.956C2.64 6.406 2.188 6.866 1.861 7.463C1.535 8.058 1.389 8.692 1.318 9.441C1.25 10.166 1.25 11.054 1.25 12.167V13.78C1.25 15.684 1.25 17.187 1.403 18.362C1.559 19.567 1.889 20.54 2.633 21.309C3.38 22.082 4.33 22.428 5.508 22.591C6.648 22.75 8.106 22.75 9.942 22.75H14.058C15.894 22.75 17.352 22.75 18.492 22.591C19.669 22.428 20.62 22.082 21.368 21.309C22.111 20.54 22.441 19.567 22.598 18.362C22.75 17.187 22.75 15.684 22.75 13.78V12.167C22.75 11.054 22.75 10.167 22.682 9.441C22.612 8.691 22.465 8.058 22.139 7.463C21.812 6.866 21.359 6.407 20.771 5.956C20.203 5.52 19.465 5.063 18.544 4.491L16.477 3.208C15.504 2.604 14.724 2.12 14.049 1.792C13.352 1.452 12.709 1.25 12 1.25ZM8.28 4.504C9.295 3.874 10.01 3.432 10.607 3.141C11.188 2.858 11.6 2.75 12 2.75C12.4 2.75 12.812 2.858 13.393 3.141C13.991 3.431 14.705 3.874 15.72 4.504L17.72 5.745C18.681 6.342 19.356 6.761 19.86 7.147C20.349 7.522 20.63 7.831 20.823 8.183C21.016 8.536 21.129 8.949 21.188 9.581C21.249 10.229 21.25 11.046 21.25 12.204V13.725C21.25 15.695 21.248 17.101 21.11 18.168C20.974 19.216 20.717 19.824 20.29 20.267C19.865 20.706 19.287 20.967 18.286 21.106C17.26 21.248 15.907 21.25 14 21.25H10C8.092 21.25 6.74 21.248 5.714 21.106C4.713 20.966 4.135 20.706 3.711 20.266C3.283 19.824 3.026 19.216 2.891 18.168C2.751 17.101 2.75 15.696 2.75 13.725V12.204C2.75 11.046 2.75 10.229 2.812 9.581C2.871 8.949 2.984 8.536 3.177 8.183C3.37 7.831 3.651 7.522 4.141 7.147C4.644 6.761 5.319 6.342 6.28 5.745L8.28 4.504Z" fill="#3C3B3B"/>
</svg>
