<svg width="22" height="22" viewBox="0 0 22 22" fill="none" xmlns="http://www.w3.org/2000/svg">
<path d="M10.083 6.41665H11.9163V8.24998H10.083V6.41665ZM10.083 10.0833H11.9163V15.5833H10.083V10.0833ZM10.9997 1.83331C5.93967 1.83331 1.83301 5.93998 1.83301 11C1.83301 16.06 5.93967 20.1666 10.9997 20.1666C16.0597 20.1666 20.1663 16.06 20.1663 11C20.1663 5.93998 16.0597 1.83331 10.9997 1.83331ZM10.9997 18.3333C6.95717 18.3333 3.66634 15.0425 3.66634 11C3.66634 6.95748 6.95717 3.66665 10.9997 3.66665C15.0422 3.66665 18.333 6.95748 18.333 11C18.333 15.0425 15.0422 18.3333 10.9997 18.3333Z" fill="#0288D1"/>
</svg>
