<svg width="40" height="40" viewBox="0 0 40 40" fill="none" xmlns="http://www.w3.org/2000/svg">
<circle cx="20" cy="20" r="20" fill="#D9F7BE"/>
<path fill-rule="evenodd" clip-rule="evenodd" d="M23.6688 15C23.6688 14.8011 23.7478 14.6103 23.8885 14.4697C24.0291 14.329 24.2199 14.25 24.4188 14.25H30.0008C30.1997 14.25 30.3905 14.329 30.5311 14.4697C30.6718 14.6103 30.7508 14.8011 30.7508 15V20.546C30.7508 20.7449 30.6718 20.9357 30.5311 21.0763C30.3905 21.217 30.1997 21.296 30.0008 21.296C29.8019 21.296 29.6111 21.217 29.4705 21.0763C29.3298 20.9357 29.2508 20.7449 29.2508 20.546V16.803L23.1148 22.9C22.6458 23.366 22.2418 23.768 21.8748 24.047C21.4808 24.345 21.0448 24.571 20.5058 24.571C19.9678 24.571 19.5308 24.345 19.1368 24.046C18.7698 23.768 18.3668 23.366 17.8968 22.9L17.6228 22.627C17.1088 22.116 16.7758 21.787 16.4978 21.576C16.2378 21.378 16.1158 21.356 16.0348 21.356C15.9548 21.356 15.8328 21.379 15.5728 21.576C15.2958 21.787 14.9628 22.116 14.4488 22.628L10.5298 26.53C10.3874 26.6622 10.1992 26.734 10.0049 26.7302C9.8106 26.7264 9.62536 26.6474 9.4882 26.5097C9.35104 26.372 9.27268 26.1865 9.26962 25.9922C9.26657 25.7978 9.33905 25.6099 9.47181 25.468L13.4248 21.53C13.8948 21.064 14.2978 20.661 14.6648 20.382C15.0588 20.082 15.4958 19.857 16.0348 19.856C16.5738 19.856 17.0108 20.082 17.4048 20.381C17.7718 20.66 18.1758 21.062 18.6448 21.529L18.9198 21.801C19.4338 22.312 19.7668 22.641 20.0438 22.851C20.3038 23.049 20.4258 23.071 20.5058 23.071C20.5858 23.071 20.7078 23.049 20.9678 22.851C21.2458 22.641 21.5778 22.312 22.0928 21.801L28.1828 15.749H24.4188C24.2199 15.749 24.0291 15.67 23.8885 15.5293C23.7478 15.3887 23.6688 15.1989 23.6688 15Z" fill="#389E0D"/>
</svg>
