<svg width="41" height="40" viewBox="0 0 41 40" fill="none" xmlns="http://www.w3.org/2000/svg">
<rect x="0.5" width="40" height="40" rx="12" fill="url(#paint0_linear_22_5587)"/>
<path d="M26.9588 20.2756L22.0378 18.4625L20.2247 13.5416C20.1324 13.2912 19.9655 13.0751 19.7466 12.9226C19.5276 12.77 19.2672 12.6881 19.0003 12.6881C18.7335 12.6881 18.473 12.77 18.2541 12.9226C18.0352 13.0751 17.8683 13.2912 17.776 13.5416L15.9628 18.4625L11.0419 20.2756C10.7915 20.368 10.5755 20.5349 10.4229 20.7538C10.2703 20.9727 10.1885 21.2331 10.1885 21.5C10.1885 21.7669 10.2703 22.0273 10.4229 22.2462C10.5755 22.4651 10.7915 22.632 11.0419 22.7244L15.9628 24.5375L17.776 29.4584C17.8683 29.7088 18.0352 29.9249 18.2541 30.0774C18.473 30.23 18.7335 30.3119 19.0003 30.3119C19.2672 30.3119 19.5276 30.23 19.7466 30.0774C19.9655 29.9249 20.1324 29.7088 20.2247 29.4584L22.0378 24.5375L26.9588 22.7244C27.2091 22.632 27.4252 22.4651 27.5778 22.2462C27.7304 22.0273 27.8122 21.7669 27.8122 21.5C27.8122 21.2331 27.7304 20.9727 27.5778 20.7538C27.4252 20.5349 27.2091 20.368 26.9588 20.2756ZM26.5697 21.6688L21.406 23.5719C21.3295 23.6 21.26 23.6444 21.2024 23.7021C21.1448 23.7597 21.1003 23.8291 21.0722 23.9056L19.1691 29.0694C19.1563 29.1038 19.1333 29.1335 19.1031 29.1545C19.0729 29.1755 19.0371 29.1867 19.0003 29.1867C18.9636 29.1867 18.9277 29.1755 18.8976 29.1545C18.8674 29.1335 18.8444 29.1038 18.8316 29.0694L16.9285 23.9056C16.9003 23.8291 16.8559 23.7597 16.7983 23.7021C16.7407 23.6444 16.6712 23.6 16.5947 23.5719L11.431 21.6688C11.3965 21.656 11.3668 21.6329 11.3458 21.6028C11.3248 21.5726 11.3136 21.5367 11.3136 21.5C11.3136 21.4633 11.3248 21.4274 11.3458 21.3972C11.3668 21.3671 11.3965 21.344 11.431 21.3313L16.5947 19.4281C16.6712 19.4 16.7407 19.3556 16.7983 19.2979C16.8559 19.2403 16.9003 19.1709 16.9285 19.0944L18.8316 13.9306C18.8444 13.8962 18.8674 13.8665 18.8976 13.8455C18.9277 13.8245 18.9636 13.8133 19.0003 13.8133C19.0371 13.8133 19.0729 13.8245 19.1031 13.8455C19.1333 13.8665 19.1563 13.8962 19.1691 13.9306L21.0722 19.0944C21.1003 19.1709 21.1448 19.2403 21.2024 19.2979C21.26 19.3556 21.3295 19.4 21.406 19.4281L26.5697 21.3313C26.6042 21.344 26.6339 21.3671 26.6548 21.3972C26.6758 21.4274 26.6871 21.4633 26.6871 21.5C26.6871 21.5367 26.6758 21.5726 26.6548 21.6028C26.6339 21.6329 26.6042 21.656 26.5697 21.6688ZM22.1878 11.75C22.1878 11.6008 22.2471 11.4577 22.3526 11.3523C22.4581 11.2468 22.6011 11.1875 22.7503 11.1875H24.4378V9.5C24.4378 9.35082 24.4971 9.20774 24.6026 9.10225C24.7081 8.99676 24.8511 8.9375 25.0003 8.9375C25.1495 8.9375 25.2926 8.99676 25.3981 9.10225C25.5036 9.20774 25.5628 9.35082 25.5628 9.5V11.1875H27.2503C27.3995 11.1875 27.5426 11.2468 27.6481 11.3523C27.7536 11.4577 27.8128 11.6008 27.8128 11.75C27.8128 11.8992 27.7536 12.0423 27.6481 12.1477C27.5426 12.2532 27.3995 12.3125 27.2503 12.3125H25.5628V14C25.5628 14.1492 25.5036 14.2923 25.3981 14.3977C25.2926 14.5032 25.1495 14.5625 25.0003 14.5625C24.8511 14.5625 24.7081 14.5032 24.6026 14.3977C24.4971 14.2923 24.4378 14.1492 24.4378 14V12.3125H22.7503C22.6011 12.3125 22.4581 12.2532 22.3526 12.1477C22.2471 12.0423 22.1878 11.8992 22.1878 11.75ZM31.5628 16.25C31.5628 16.3992 31.5036 16.5423 31.3981 16.6477C31.2926 16.7532 31.1495 16.8125 31.0003 16.8125H30.0628V17.75C30.0628 17.8992 30.0036 18.0423 29.8981 18.1477C29.7926 18.2532 29.6495 18.3125 29.5003 18.3125C29.3511 18.3125 29.2081 18.2532 29.1026 18.1477C28.9971 18.0423 28.9378 17.8992 28.9378 17.75V16.8125H28.0003C27.8511 16.8125 27.7081 16.7532 27.6026 16.6477C27.4971 16.5423 27.4378 16.3992 27.4378 16.25C27.4378 16.1008 27.4971 15.9577 27.6026 15.8523C27.7081 15.7468 27.8511 15.6875 28.0003 15.6875H28.9378V14.75C28.9378 14.6008 28.9971 14.4577 29.1026 14.3523C29.2081 14.2468 29.3511 14.1875 29.5003 14.1875C29.6495 14.1875 29.7926 14.2468 29.8981 14.3523C30.0036 14.4577 30.0628 14.6008 30.0628 14.75V15.6875H31.0003C31.1495 15.6875 31.2926 15.7468 31.3981 15.8523C31.5036 15.9577 31.5628 16.1008 31.5628 16.25Z" fill="white"/>
<defs>
<linearGradient id="paint0_linear_22_5587" x1="7" y1="2.5" x2="35.5" y2="37" gradientUnits="userSpaceOnUse">
<stop stop-color="#1E89FE"/>
<stop offset="1" stop-color="#00AFE3"/>
</linearGradient>
</defs>
</svg>
