<svg width="24" height="24" viewBox="0 0 24 24" fill="none" xmlns="http://www.w3.org/2000/svg">
<path d="M12 8.75C12.862 8.75 13.6884 9.09266 14.2979 9.70215C14.9073 10.3116 15.25 11.138 15.25 12C15.25 12.862 14.9073 13.6884 14.2979 14.2979C13.6884 14.9073 12.862 15.25 12 15.25C11.138 15.25 10.3116 14.9073 9.70215 14.2979C9.09266 13.6884 8.75 12.862 8.75 12C8.75 11.138 9.09266 10.3116 9.70215 9.70215C10.3116 9.09266 11.138 8.75 12 8.75ZM12 9.25C11.2707 9.25 10.5714 9.53994 10.0557 10.0557C9.53994 10.5714 9.25 11.2707 9.25 12C9.25 12.7293 9.53994 13.4286 10.0557 13.9443C10.5714 14.4601 11.2707 14.75 12 14.75C12.7293 14.75 13.4286 14.4601 13.9443 13.9443C14.4601 13.4286 14.75 12.7293 14.75 12C14.75 11.2707 14.4601 10.5714 13.9443 10.0557C13.4286 9.53994 12.7293 9.25 12 9.25Z" stroke="black"/>
<path d="M12 3.75C16.2923 3.75 19.2038 6.31725 20.9229 8.55176L20.9248 8.55469L20.957 8.5957C21.3612 9.1215 21.688 9.55111 21.9092 10.0498C22.1399 10.5727 22.25 11.158 22.25 12C22.25 12.842 22.1399 13.4273 21.9092 13.9502C21.6887 14.4496 21.3608 14.8809 20.9551 15.4062L20.9521 15.4102L20.9209 15.4512C19.2005 17.685 16.2902 20.25 12 20.25C7.70768 20.25 4.79615 17.6828 3.07715 15.4482L3.0752 15.4453L3.04297 15.4043C2.63915 14.88 2.31211 14.449 2.09082 13.9502C1.86005 13.4273 1.75 12.842 1.75 12C1.75 11.158 1.86005 10.5727 2.09082 10.0498C2.31132 9.55047 2.63869 9.11985 3.04492 8.59277L3.04785 8.58984L3.07812 8.54785C4.79854 6.31404 7.70993 3.75 12 3.75ZM12 4.25C8.18316 4.25 5.50017 6.38711 3.80078 8.44727L3.47363 8.85742C3.09975 9.34398 2.82304 9.70353 2.62695 10.0859L2.54785 10.252C2.35362 10.6921 2.25 11.203 2.25 12C2.25 12.6974 2.32955 13.1756 2.47949 13.5791L2.54785 13.748C2.74591 14.1957 3.0432 14.585 3.47363 15.1426C5.14796 17.3185 7.92871 19.75 12 19.75C16.0713 19.75 18.8512 17.3191 20.5273 15.1436V15.1426C20.9017 14.6555 21.1773 14.2962 21.373 13.9141L21.4521 13.748C21.6464 13.3079 21.75 12.797 21.75 12C21.75 11.203 21.6464 10.6921 21.4521 10.252L21.373 10.0859C21.1775 9.7038 20.9023 9.3447 20.5254 8.85645C18.851 6.68075 16.0708 4.25 12 4.25Z" stroke="black"/>
</svg>
