<svg width="24" height="24" viewBox="0 0 24 24" fill="none" xmlns="http://www.w3.org/2000/svg">
<path d="M10.4334 14.8622C10.562 14.9872 10.6343 15.1566 10.6343 15.3333C10.6343 15.51 10.562 15.6794 10.4334 15.8044L6.31149 19.8044C6.24796 19.8646 6.17341 19.9129 6.09165 19.9466C6.0078 19.9818 5.91739 20 5.82602 20C5.73465 20 5.64424 19.9818 5.56039 19.9466C5.47863 19.9129 5.40408 19.8646 5.34055 19.8044L1.21865 15.8044C1.15116 15.7434 1.09702 15.6698 1.05947 15.588C1.02192 15.5062 1.00173 15.4179 1.00011 15.3284C0.998479 15.2389 1.01545 15.15 1.05 15.067C1.08455 14.984 1.13598 14.9086 1.20121 14.8453C1.26645 14.782 1.34415 14.7321 1.42969 14.6985C1.51524 14.665 1.60686 14.6485 1.6991 14.6501C1.79134 14.6517 1.88231 14.6713 1.96658 14.7077C2.05085 14.7442 2.1267 14.7967 2.18959 14.8622L5.13904 17.7244V4.66673C5.13904 4.48992 5.21141 4.32035 5.34025 4.19533C5.46908 4.0703 5.64382 4.00007 5.82602 4.00007C6.00822 4.00007 6.18296 4.0703 6.31179 4.19533C6.44062 4.32035 6.513 4.48992 6.513 4.66673V17.7244L9.46245 14.8622C9.59126 14.7374 9.76587 14.6672 9.94792 14.6672C10.13 14.6672 10.3046 14.7374 10.4334 14.8622ZM22.7991 8.19559L18.6772 4.19562C18.6028 4.13139 18.5155 4.08295 18.4207 4.0534C18.3369 4.01817 18.2465 4 18.1551 4C18.0637 4 17.9733 4.01817 17.8894 4.0534C17.8077 4.08713 17.7331 4.13536 17.6696 4.19562L13.5477 8.19559C13.4802 8.25662 13.4261 8.33022 13.3885 8.412C13.351 8.49377 13.3308 8.58205 13.3292 8.67156C13.3275 8.76108 13.3445 8.84999 13.3791 8.933C13.4136 9.01601 13.465 9.09142 13.5303 9.15472C13.5955 9.21803 13.6732 9.26794 13.7588 9.30147C13.8443 9.33499 13.9359 9.35146 14.0282 9.34988C14.1204 9.3483 14.2114 9.32871 14.2956 9.29227C14.3799 9.25584 14.4558 9.2033 14.5186 9.1378L17.5047 6.2756V19.3333C17.5047 19.5101 17.5771 19.6797 17.7059 19.8047C17.8348 19.9297 18.0095 19.9999 18.1917 19.9999C18.3739 19.9999 18.5487 19.9297 18.6775 19.8047C18.8063 19.6797 18.8787 19.5101 18.8787 19.3333V6.2756L21.8282 9.1378C21.957 9.26264 22.1316 9.33277 22.3136 9.33277C22.4957 9.33277 22.6703 9.26264 22.7991 9.1378C22.9277 9.0128 23 8.84336 23 8.66669C23 8.49003 22.9277 8.32059 22.7991 8.19559Z" fill="#3C3B3B"/>
</svg>
