<svg width="24" height="24" viewBox="0 0 24 24" fill="none" xmlns="http://www.w3.org/2000/svg">
<path fill-rule="evenodd" clip-rule="evenodd" d="M9 1.25C7.74022 1.25 6.53204 1.75044 5.64124 2.64124C4.75045 3.53204 4.25 4.74022 4.25 6C4.25 7.25978 4.75045 8.46796 5.64124 9.35876C6.53204 10.2496 7.74022 10.75 9 10.75C10.2598 10.75 11.468 10.2496 12.3588 9.35876C13.2496 8.46796 13.75 7.25978 13.75 6C13.75 4.74022 13.2496 3.53204 12.3588 2.64124C11.468 1.75044 10.2598 1.25 9 1.25ZM5.75 6C5.75 5.13805 6.09241 4.3114 6.7019 3.7019C7.3114 3.09241 8.13805 2.75 9 2.75C9.86195 2.75 10.6886 3.09241 11.2981 3.7019C11.9076 4.3114 12.25 5.13805 12.25 6C12.25 6.86195 11.9076 7.6886 11.2981 8.2981C10.6886 8.90759 9.86195 9.25 9 9.25C8.13805 9.25 7.3114 8.90759 6.7019 8.2981C6.09241 7.6886 5.75 6.86195 5.75 6Z" fill="#3C3B3B"/>
<path d="M15 2.25C14.8011 2.25 14.6103 2.32902 14.4697 2.46967C14.329 2.61032 14.25 2.80109 14.25 3C14.25 3.19891 14.329 3.38968 14.4697 3.53033C14.6103 3.67098 14.8011 3.75 15 3.75C15.5967 3.75 16.169 3.98705 16.591 4.40901C17.0129 4.83097 17.25 5.40326 17.25 6C17.25 6.59674 17.0129 7.16903 16.591 7.59099C16.169 8.01295 15.5967 8.25 15 8.25C14.8011 8.25 14.6103 8.32902 14.4697 8.46967C14.329 8.61032 14.25 8.80109 14.25 9C14.25 9.19891 14.329 9.38968 14.4697 9.53033C14.6103 9.67098 14.8011 9.75 15 9.75C15.9946 9.75 16.9484 9.35491 17.6517 8.65165C18.3549 7.94839 18.75 6.99456 18.75 6C18.75 5.00544 18.3549 4.05161 17.6517 3.34835C16.9484 2.64509 15.9946 2.25 15 2.25Z" fill="#3C3B3B"/>
<path fill-rule="evenodd" clip-rule="evenodd" d="M3.678 13.52C5.078 12.72 6.961 12.25 9 12.25C11.039 12.25 12.922 12.72 14.322 13.52C15.7 14.308 16.75 15.51 16.75 17C16.75 18.49 15.7 19.692 14.322 20.48C12.922 21.28 11.039 21.75 9 21.75C6.961 21.75 5.078 21.28 3.678 20.48C2.3 19.692 1.25 18.49 1.25 17C1.25 15.51 2.3 14.308 3.678 13.52ZM4.422 14.823C3.267 15.483 2.75 16.28 2.75 17C2.75 17.72 3.267 18.517 4.422 19.177C5.556 19.825 7.173 20.25 9 20.25C10.827 20.25 12.444 19.825 13.578 19.177C14.733 18.517 15.25 17.719 15.25 17C15.25 16.281 14.733 15.483 13.578 14.823C12.444 14.175 10.827 13.75 9 13.75C7.173 13.75 5.556 14.175 4.422 14.823Z" fill="#3C3B3B"/>
<path d="M18.1603 13.2673C17.9659 13.2248 17.7626 13.2614 17.5951 13.3688C17.4276 13.4763 17.3097 13.6459 17.2673 13.8403C17.2248 14.0347 17.2614 14.238 17.3688 14.4054C17.4763 14.5729 17.6459 14.6908 17.8403 14.7333C18.6323 14.9063 19.2653 15.2053 19.6833 15.5473C20.1013 15.8893 20.2503 16.2243 20.2503 16.5003C20.2503 16.7503 20.1303 17.0453 19.7973 17.3543C19.4623 17.6653 18.9473 17.9523 18.2843 18.1523C18.1899 18.1806 18.1021 18.2273 18.0257 18.2896C17.9494 18.3519 17.8861 18.4287 17.8395 18.5154C17.7928 18.6022 17.7637 18.6973 17.7538 18.7954C17.7439 18.8934 17.7534 18.9924 17.7818 19.0868C17.8101 19.1811 17.8568 19.269 17.9191 19.3453C17.9814 19.4216 18.0582 19.4849 18.1449 19.5316C18.2317 19.5782 18.3268 19.6073 18.4249 19.6172C18.5229 19.6271 18.6219 19.6176 18.7163 19.5893C19.5393 19.3413 20.2743 18.9583 20.8183 18.4533C21.3643 17.9463 21.7503 17.2793 21.7503 16.5003C21.7503 15.6353 21.2763 14.9123 20.6333 14.3863C19.9893 13.8593 19.1223 13.4783 18.1603 13.2673Z" fill="#3C3B3B"/>
</svg>
