<svg width="20" height="20" viewBox="0 0 20 20" fill="none" xmlns="http://www.w3.org/2000/svg">
<path fill-rule="evenodd" clip-rule="evenodd" d="M2.70801 8.45246C2.70801 4.36996 5.96217 1.04163 9.99967 1.04163C14.0372 1.04163 17.2913 4.36996 17.2913 8.45246C17.2913 10.4233 16.7297 12.54 15.7363 14.3683C14.7447 16.1941 13.2963 17.7808 11.4838 18.6283C11.0193 18.8458 10.5126 18.9586 9.99967 18.9586C9.48673 18.9586 8.98005 18.8458 8.51551 18.6283C6.70301 17.7808 5.25467 16.195 4.26301 14.3683C3.26967 12.54 2.70801 10.4233 2.70801 8.45246ZM9.99967 2.29163C6.67301 2.29163 3.95801 5.03913 3.95801 8.45246C3.95801 10.2 4.46051 12.1125 5.36134 13.7716C6.26301 15.4325 7.53801 16.7916 9.04467 17.4958C9.34344 17.6358 9.66933 17.7083 9.99926 17.7083C10.3292 17.7083 10.6551 17.6358 10.9538 17.4958C12.4613 16.7916 13.7363 15.4325 14.638 13.7716C15.5388 12.1133 16.0413 10.2 16.0413 8.45246C16.0413 5.03913 13.3263 2.29163 9.99967 2.29163ZM9.99967 5.62496C10.1654 5.62496 10.3244 5.69081 10.4416 5.80802C10.5588 5.92523 10.6247 6.0842 10.6247 6.24996V7.70829H12.083C12.2488 7.70829 12.4077 7.77414 12.5249 7.89135C12.6422 8.00856 12.708 8.16753 12.708 8.33329C12.708 8.49905 12.6422 8.65802 12.5249 8.77523C12.4077 8.89244 12.2488 8.95829 12.083 8.95829H10.6247V10.4166C10.6247 10.5824 10.5588 10.7414 10.4416 10.8586C10.3244 10.9758 10.1654 11.0416 9.99967 11.0416C9.83391 11.0416 9.67494 10.9758 9.55773 10.8586C9.44052 10.7414 9.37467 10.5824 9.37467 10.4166V8.95829H7.91634C7.75058 8.95829 7.59161 8.89244 7.4744 8.77523C7.35719 8.65802 7.29134 8.49905 7.29134 8.33329C7.29134 8.16753 7.35719 8.00856 7.4744 7.89135C7.59161 7.77414 7.75058 7.70829 7.91634 7.70829H9.37467V6.24996C9.37467 6.0842 9.44052 5.92523 9.55773 5.80802C9.67494 5.69081 9.83391 5.62496 9.99967 5.62496Z" fill="#E4022C"/>
</svg>
