<svg width="41" height="40" viewBox="0 0 41 40" fill="none" xmlns="http://www.w3.org/2000/svg">
<rect x="0.5" width="40" height="40" rx="12" fill="url(#paint0_linear_22_5629)"/>
<path d="M29.5394 17.7687C29.1737 17.3872 28.7959 16.9934 28.6441 16.6269C28.5034 16.2866 28.4959 15.7831 28.4875 15.2506C28.4744 14.3712 28.4594 13.3756 27.7919 12.7081C27.1244 12.0406 26.125 12.0256 25.2494 12.0125C24.7169 12.0041 24.2181 11.9966 23.8731 11.8559C23.5066 11.7041 23.1128 11.3262 22.7313 10.9606C22.1088 10.3644 21.4038 9.6875 20.5 9.6875C19.5962 9.6875 18.8912 10.3644 18.2687 10.9606C17.8872 11.3262 17.4934 11.7041 17.1269 11.8559C16.7866 11.9966 16.2831 12.0041 15.7506 12.0125C14.8712 12.0256 13.8756 12.0406 13.2081 12.7081C12.5406 13.3756 12.5256 14.375 12.5125 15.2506C12.5041 15.7831 12.4966 16.2819 12.3559 16.6269C12.2041 16.9934 11.8262 17.3872 11.4606 17.7687C10.8644 18.3912 10.1875 19.0962 10.1875 20C10.1875 20.9038 10.8644 21.6088 11.4606 22.2313C11.8262 22.6128 12.2041 23.0066 12.3559 23.3731C12.4966 23.7134 12.5041 24.2169 12.5125 24.7494C12.5256 25.6288 12.5406 26.6244 13.2081 27.2919C13.8756 27.9594 14.875 27.9744 15.7506 27.9875C16.2831 27.9959 16.7819 28.0034 17.1269 28.1441C17.4934 28.2959 17.8872 28.6737 18.2687 29.0394C18.8912 29.6356 19.5962 30.3125 20.5 30.3125C21.4038 30.3125 22.1088 29.6356 22.7313 29.0394C23.1128 28.6737 23.5066 28.2959 23.8731 28.1441C24.2134 28.0034 24.7169 27.9959 25.2494 27.9875C26.1288 27.9744 27.1244 27.9594 27.7919 27.2919C28.4594 26.6244 28.4744 25.6288 28.4875 24.7494C28.4959 24.2169 28.5034 23.7181 28.6441 23.3731C28.7959 23.0066 29.1737 22.6128 29.5394 22.2313C30.1356 21.6088 30.8125 20.9038 30.8125 20C30.8125 19.0962 30.1356 18.3912 29.5394 17.7687ZM28.7275 21.4522C28.2897 21.9088 27.8369 22.3812 27.6025 22.9437C27.3794 23.4819 27.37 24.1175 27.3606 24.7325C27.3503 25.43 27.3391 26.1519 26.995 26.4969C26.6509 26.8419 25.9281 26.8522 25.2306 26.8625C24.6156 26.8719 23.98 26.8813 23.4419 27.1044C22.8794 27.3369 22.4106 27.7897 21.9503 28.2294C21.4581 28.6981 20.9491 29.1894 20.4981 29.1894C20.0472 29.1894 19.5381 28.7009 19.045 28.2294C18.5894 27.7916 18.1169 27.3387 17.5544 27.1044C17.0163 26.8813 16.3806 26.8719 15.7656 26.8625C15.0681 26.8522 14.3463 26.8409 14.0013 26.4969C13.6562 26.1528 13.6459 25.43 13.6356 24.7325C13.6262 24.1175 13.6169 23.4819 13.3938 22.9437C13.1613 22.3812 12.7084 21.9125 12.2688 21.4522C11.8009 20.96 11.3125 20.4509 11.3125 20C11.3125 19.5491 11.8009 19.04 12.2725 18.5478C12.7103 18.0913 13.1631 17.6187 13.3975 17.0562C13.6206 16.5181 13.63 15.8825 13.6394 15.2675C13.6497 14.57 13.6609 13.8481 14.005 13.5031C14.3491 13.1581 15.0719 13.1478 15.7694 13.1375C16.3844 13.1281 17.02 13.1188 17.5581 12.8956C18.1206 12.6631 18.5894 12.2103 19.0497 11.7706C19.54 11.3009 20.0491 10.8125 20.5 10.8125C20.9509 10.8125 21.46 11.3009 21.9531 11.7725C22.4087 12.2103 22.8812 12.6631 23.4437 12.8975C23.9819 13.1206 24.6175 13.13 25.2325 13.1394C25.93 13.1497 26.6519 13.1609 26.9969 13.505C27.3419 13.8491 27.3522 14.5719 27.3625 15.2694C27.3719 15.8844 27.3813 16.52 27.6044 17.0581C27.8369 17.6206 28.2897 18.0894 28.7294 18.5497C29.1981 19.0419 29.6894 19.5509 29.6894 20.0019C29.6894 20.4528 29.1991 20.96 28.7275 21.4522ZM19.5625 17C19.5625 16.5921 19.4415 16.1933 19.2149 15.8541C18.9883 15.515 18.6662 15.2506 18.2893 15.0945C17.9124 14.9384 17.4977 14.8975 17.0976 14.9771C16.6975 15.0567 16.33 15.2531 16.0416 15.5416C15.7531 15.83 15.5567 16.1975 15.4771 16.5976C15.3975 16.9977 15.4384 17.4124 15.5945 17.7893C15.7506 18.1662 16.015 18.4883 16.3541 18.7149C16.6933 18.9415 17.0921 19.0625 17.5 19.0625C18.047 19.0625 18.5716 18.8452 18.9584 18.4584C19.3452 18.0716 19.5625 17.547 19.5625 17ZM16.5625 17C16.5625 16.8146 16.6175 16.6333 16.7205 16.4792C16.8235 16.325 16.9699 16.2048 17.1412 16.1339C17.3125 16.0629 17.501 16.0443 17.6829 16.0805C17.8648 16.1167 18.0318 16.206 18.1629 16.3371C18.294 16.4682 18.3833 16.6352 18.4195 16.8171C18.4557 16.999 18.4371 17.1875 18.3661 17.3588C18.2952 17.5301 18.175 17.6765 18.0208 17.7795C17.8667 17.8825 17.6854 17.9375 17.5 17.9375C17.2514 17.9375 17.0129 17.8387 16.8371 17.6629C16.6613 17.4871 16.5625 17.2486 16.5625 17ZM23.5 20.9375C23.0921 20.9375 22.6933 21.0585 22.3541 21.2851C22.015 21.5117 21.7506 21.8338 21.5945 22.2107C21.4384 22.5876 21.3975 23.0023 21.4771 23.4024C21.5567 23.8025 21.7531 24.17 22.0416 24.4584C22.33 24.7469 22.6975 24.9433 23.0976 25.0229C23.4977 25.1025 23.9124 25.0616 24.2893 24.9055C24.6662 24.7494 24.9883 24.485 25.2149 24.1459C25.4415 23.8067 25.5625 23.4079 25.5625 23C25.5625 22.453 25.3452 21.9284 24.9584 21.5416C24.5716 21.1548 24.047 20.9375 23.5 20.9375ZM23.5 23.9375C23.3146 23.9375 23.1333 23.8825 22.9792 23.7795C22.825 23.6765 22.7048 23.5301 22.6339 23.3588C22.5629 23.1875 22.5443 22.999 22.5805 22.8171C22.6167 22.6352 22.706 22.4682 22.8371 22.3371C22.9682 22.206 23.1352 22.1167 23.3171 22.0805C23.499 22.0443 23.6875 22.0629 23.8588 22.1339C24.0301 22.2048 24.1765 22.325 24.2795 22.4792C24.3825 22.6333 24.4375 22.8146 24.4375 23C24.4375 23.2486 24.3387 23.4871 24.1629 23.6629C23.9871 23.8387 23.7486 23.9375 23.5 23.9375ZM24.6475 16.6475L17.1475 24.1475C17.0409 24.2469 16.8998 24.301 16.7541 24.2984C16.6084 24.2958 16.4693 24.2368 16.3663 24.1337C16.2632 24.0307 16.2042 23.8916 16.2016 23.7459C16.199 23.6002 16.2531 23.4591 16.3525 23.3525L23.8525 15.8525C23.9591 15.7531 24.1002 15.699 24.2459 15.7016C24.3916 15.7042 24.5307 15.7632 24.6337 15.8663C24.7368 15.9693 24.7958 16.1084 24.7984 16.2541C24.801 16.3998 24.7469 16.5409 24.6475 16.6475Z" fill="white"/>
<defs>
<linearGradient id="paint0_linear_22_5629" x1="7" y1="2.5" x2="35.5" y2="37" gradientUnits="userSpaceOnUse">
<stop stop-color="#FA2F4A"/>
<stop offset="1" stop-color="#F73387"/>
</linearGradient>
</defs>
</svg>
