<svg width="41" height="40" viewBox="0 0 41 40" fill="none" xmlns="http://www.w3.org/2000/svg">
<rect x="0.5" width="40" height="40" rx="12" fill="url(#paint0_linear_22_5613)"/>
<g clip-path="url(#clip0_22_5613)">
<path d="M22 22.7826C23.1757 22.0503 24.0809 20.955 24.5787 19.6625C25.0765 18.3699 25.1398 16.9504 24.759 15.6186C24.3782 14.2869 23.574 13.1154 22.4681 12.2814C21.3622 11.4475 20.0148 10.9963 18.6296 10.9963C17.2445 10.9963 15.8971 11.4475 14.7912 12.2814C13.6853 13.1154 12.8811 14.2869 12.5003 15.6186C12.1195 16.9504 12.1828 18.3699 12.6806 19.6625C13.1784 20.955 14.0836 22.0503 15.2593 22.7826C13.3234 23.4163 11.5815 24.6004 10.1809 26.2673C10.0528 26.4196 9.99053 26.6165 10.0077 26.8147C10.0248 27.013 10.12 27.1963 10.2723 27.3243C10.4246 27.4524 10.6215 27.5147 10.8197 27.4975C11.018 27.4804 11.2013 27.3852 11.3293 27.2329C13.2109 24.9867 15.804 23.7501 18.625 23.7501C21.4459 23.7501 24.039 24.9867 25.9253 27.2329C26.0533 27.3852 26.2366 27.4804 26.4348 27.4975C26.6331 27.5147 26.83 27.4524 26.9823 27.3243C27.1346 27.1963 27.2298 27.013 27.2469 26.8147C27.2641 26.6165 27.2018 26.4196 27.0737 26.2673C25.6731 24.6004 23.9312 23.4163 22 22.7826ZM13.75 17.3751C13.75 16.4109 14.0359 15.4684 14.5715 14.6667C15.1072 13.865 15.8686 13.2402 16.7594 12.8712C17.6502 12.5022 18.6304 12.4057 19.576 12.5938C20.5217 12.7819 21.3903 13.2462 22.0721 13.9279C22.7539 14.6097 23.2182 15.4784 23.4063 16.424C23.5944 17.3697 23.4978 18.3499 23.1289 19.2407C22.7599 20.1315 22.135 20.8928 21.3334 21.4285C20.5317 21.9642 19.5891 22.2501 18.625 22.2501C17.3325 22.2486 16.0934 21.7345 15.1795 20.8206C14.2655 19.9067 13.7514 18.6676 13.75 17.3751ZM32.2806 20.5307L29.2806 23.5307C29.2109 23.6004 29.1282 23.6558 29.0372 23.6935C28.9461 23.7313 28.8485 23.7507 28.75 23.7507C28.6514 23.7507 28.5538 23.7313 28.4627 23.6935C28.3717 23.6558 28.289 23.6004 28.2193 23.5307L26.7193 22.0307C26.5786 21.89 26.4995 21.6991 26.4995 21.5001C26.4995 21.3011 26.5786 21.1102 26.7193 20.9695C26.8601 20.8287 27.0509 20.7497 27.25 20.7497C27.449 20.7497 27.6398 20.8287 27.7806 20.9695L28.75 21.9398L31.2193 19.4695C31.3601 19.3287 31.5509 19.2497 31.75 19.2497C31.949 19.2497 32.1398 19.3287 32.2806 19.4695C32.4213 19.6102 32.5004 19.8011 32.5004 20.0001C32.5004 20.1991 32.4213 20.39 32.2806 20.5307Z" fill="white"/>
</g>
<defs>
<linearGradient id="paint0_linear_22_5613" x1="7" y1="2.5" x2="35.5" y2="37" gradientUnits="userSpaceOnUse">
<stop stop-color="#B949F5"/>
<stop offset="1" stop-color="#EA3DAC"/>
</linearGradient>
<clipPath id="clip0_22_5613">
<rect width="24" height="24" fill="white" transform="translate(8.5 8)"/>
</clipPath>
</defs>
</svg>
