<svg width="20" height="20" viewBox="0 0 20 20" fill="none" xmlns="http://www.w3.org/2000/svg">
<path d="M10.0674 1.87501C6.07243 1.87501 2.7891 4.92751 2.4691 8.81917H1.66826C1.54436 8.81912 1.42323 8.85589 1.32027 8.92482C1.2173 8.99375 1.13715 9.09174 1.09 9.20632C1.04284 9.3209 1.03081 9.44692 1.05543 9.56835C1.08005 9.68979 1.14021 9.80117 1.22826 9.88834L2.62826 11.2767C2.74531 11.3927 2.90345 11.4578 3.06826 11.4578C3.23307 11.4578 3.39121 11.3927 3.50826 11.2767L4.90826 9.88834C4.99632 9.80117 5.05648 9.68979 5.0811 9.56835C5.10572 9.44692 5.09368 9.3209 5.04653 9.20632C4.99937 9.09174 4.91922 8.99375 4.81626 8.92482C4.7133 8.85589 4.59217 8.81912 4.46826 8.81917H3.7241C4.04076 5.62667 6.75576 3.12501 10.0674 3.12501C11.1593 3.1229 12.2334 3.40089 13.1871 3.9324C14.1409 4.46391 14.9424 5.23117 15.5149 6.16084C15.5568 6.23298 15.6127 6.296 15.6794 6.3462C15.746 6.39639 15.822 6.43273 15.9029 6.45308C15.9838 6.47344 16.068 6.47739 16.1504 6.4647C16.2329 6.45202 16.312 6.42295 16.383 6.37923C16.4541 6.3355 16.5156 6.27799 16.5641 6.21009C16.6126 6.14219 16.6469 6.06528 16.6652 5.98388C16.6835 5.90249 16.6853 5.81825 16.6705 5.73615C16.6557 5.65405 16.6246 5.57574 16.5791 5.50584C15.8948 4.39452 14.9369 3.47722 13.7971 2.84156C12.6572 2.20591 11.3726 1.87313 10.0674 1.87501ZM17.3691 8.72251C17.2521 8.60699 17.0943 8.54221 16.9299 8.54221C16.7655 8.54221 16.6077 8.60699 16.4908 8.72251L15.0849 10.1108C14.9966 10.1979 14.9362 10.3093 14.9114 10.4308C14.8866 10.5523 14.8985 10.6784 14.9456 10.7932C14.9927 10.9079 15.0728 11.006 15.1758 11.075C15.2789 11.1441 15.4001 11.1809 15.5241 11.1808H16.2733C15.9549 14.3725 13.2308 16.875 9.90326 16.875C8.808 16.8778 7.73025 16.6003 6.77262 16.0687C5.81499 15.5372 5.00936 14.7693 4.43243 13.8383C4.38931 13.7685 4.33286 13.7078 4.26628 13.6597C4.19971 13.6117 4.12432 13.5772 4.04442 13.5583C3.96452 13.5393 3.88168 13.5363 3.80063 13.5494C3.71957 13.5625 3.64189 13.5915 3.57201 13.6346C3.4309 13.7217 3.33015 13.8612 3.29194 14.0226C3.25373 14.184 3.28118 14.3539 3.36826 14.495C4.05723 15.6075 5.01946 16.5251 6.16335 17.1605C7.30725 17.7959 8.59474 18.1279 9.90326 18.125C13.9099 18.125 17.2074 15.075 17.5283 11.1808H18.3349C18.4589 11.1809 18.5802 11.1441 18.6832 11.075C18.7862 11.006 18.8663 10.9079 18.9134 10.7932C18.9605 10.6784 18.9724 10.5523 18.9476 10.4308C18.9228 10.3093 18.8624 10.1979 18.7741 10.1108L17.3691 8.72251Z" fill="#E4022C"/>
</svg>
