<svg width="20" height="20" viewBox="0 0 20 20" fill="none" xmlns="http://www.w3.org/2000/svg">
<path d="M10.4633 2.07831C10.4048 2.01427 10.3335 1.96312 10.2541 1.92813C10.1747 1.89313 10.0889 1.87506 10.0021 1.87506C9.91531 1.87506 9.82948 1.89313 9.75007 1.92813C9.67066 1.96312 9.5994 2.01427 9.54084 2.07831L6.20751 5.72414C6.1045 5.84767 6.05307 6.00616 6.06393 6.16663C6.07479 6.32711 6.1471 6.47723 6.26582 6.58575C6.38453 6.69427 6.54052 6.75284 6.70133 6.74929C6.86213 6.74573 7.01538 6.68031 7.12918 6.56664L9.37585 4.10831V13.3333C9.37585 13.4991 9.44169 13.658 9.5589 13.7753C9.67611 13.8925 9.83508 13.9583 10.0008 13.9583C10.1666 13.9583 10.3256 13.8925 10.4428 13.7753C10.56 13.658 10.6258 13.4991 10.6258 13.3333V4.10998L12.8733 6.56831C12.9853 6.69064 13.1412 6.76349 13.3069 6.77084C13.4726 6.77818 13.6343 6.71942 13.7567 6.60748C13.879 6.49553 13.9519 6.33958 13.9592 6.17392C13.9666 6.00826 13.9078 5.84647 13.7958 5.72414L10.4633 2.07831Z" fill="#E4022C"/>
<path d="M3.125 12.5C3.125 12.3342 3.05915 12.1753 2.94194 12.0581C2.82473 11.9408 2.66576 11.875 2.5 11.875C2.33424 11.875 2.17527 11.9408 2.05806 12.0581C1.94085 12.1753 1.875 12.3342 1.875 12.5V12.5458C1.875 13.685 1.875 14.6042 1.9725 15.3267C2.0725 16.0767 2.28917 16.7083 2.79 17.21C3.29167 17.7117 3.92333 17.9267 4.67333 18.0283C5.39583 18.125 6.315 18.125 7.45417 18.125H12.5458C13.685 18.125 14.6042 18.125 15.3267 18.0283C16.0767 17.9267 16.7083 17.7117 17.21 17.21C17.7117 16.7083 17.9267 16.0767 18.0283 15.3267C18.125 14.6042 18.125 13.685 18.125 12.5458V12.5C18.125 12.3342 18.0592 12.1753 17.9419 12.0581C17.8247 11.9408 17.6658 11.875 17.5 11.875C17.3342 11.875 17.1753 11.9408 17.0581 12.0581C16.9408 12.1753 16.875 12.3342 16.875 12.5C16.875 13.6958 16.8733 14.53 16.7892 15.16C16.7067 15.7717 16.5558 16.095 16.3258 16.3258C16.095 16.5567 15.7717 16.7067 15.1592 16.7892C14.53 16.8733 13.6958 16.875 12.5 16.875H7.5C6.30417 16.875 5.46917 16.8733 4.84 16.7892C4.22833 16.7067 3.905 16.5558 3.67417 16.3258C3.44333 16.095 3.29333 15.7717 3.21083 15.1592C3.12667 14.53 3.125 13.6958 3.125 12.5Z" fill="#E4022C"/>
</svg>
