<svg width="24" height="24" viewBox="0 0 24 24" fill="none" xmlns="http://www.w3.org/2000/svg">
<path d="M12 2.75C11.5346 2.74986 11.0806 2.89404 10.7006 3.16269C10.3205 3.43133 10.0331 3.81121 9.878 4.25C9.80937 4.43443 9.671 4.58449 9.49273 4.66783C9.31447 4.75117 9.11059 4.76111 8.92506 4.69551C8.73954 4.62991 8.58722 4.49401 8.50097 4.31714C8.41472 4.14026 8.40144 3.93658 8.464 3.75C8.72255 3.01866 9.20148 2.38546 9.83483 1.93761C10.4682 1.48975 11.2248 1.24927 12.0005 1.24927C12.7762 1.24927 13.5328 1.48975 14.1662 1.93761C14.7995 2.38546 15.2784 3.01866 15.537 3.75C15.6033 3.93764 15.5924 4.14393 15.5066 4.3235C15.4208 4.50307 15.2671 4.6412 15.0795 4.7075C14.8919 4.7738 14.6856 4.76285 14.506 4.67705C14.3264 4.59126 14.1883 4.43764 14.122 4.25C13.9669 3.81121 13.6795 3.43133 13.2994 3.16269C12.9194 2.89404 12.4654 2.74986 12 2.75ZM2.75 6C2.75 5.80109 2.82902 5.61032 2.96967 5.46967C3.11032 5.32902 3.30109 5.25 3.5 5.25H20.5C20.6989 5.25 20.8897 5.32902 21.0303 5.46967C21.171 5.61032 21.25 5.80109 21.25 6C21.25 6.19891 21.171 6.38968 21.0303 6.53033C20.8897 6.67098 20.6989 6.75 20.5 6.75H3.5C3.30109 6.75 3.11032 6.67098 2.96967 6.53033C2.82902 6.38968 2.75 6.19891 2.75 6ZM5.915 8.45C5.90174 8.25149 5.81016 8.06637 5.66041 7.93538C5.51067 7.80438 5.31501 7.73824 5.1165 7.7515C4.91799 7.76476 4.73287 7.85634 4.60188 8.00609C4.47088 8.15583 4.40474 8.35149 4.418 8.55L4.882 15.502C4.967 16.784 5.036 17.82 5.198 18.634C5.367 19.479 5.653 20.185 6.245 20.738C6.837 21.291 7.56 21.531 8.415 21.642C9.237 21.75 10.275 21.75 11.561 21.75H12.44C13.725 21.75 14.764 21.75 15.586 21.642C16.44 21.531 17.164 21.292 17.756 20.738C18.347 20.185 18.633 19.478 18.802 18.634C18.964 17.82 19.032 16.784 19.118 15.502L19.582 8.55C19.5953 8.35149 19.5291 8.15583 19.3981 8.00609C19.2671 7.85634 19.082 7.76476 18.8835 7.7515C18.685 7.73824 18.4893 7.80438 18.3396 7.93538C18.1898 8.06637 18.0983 8.25149 18.085 8.45L17.625 15.35C17.535 16.697 17.471 17.635 17.331 18.34C17.194 19.025 17.004 19.387 16.731 19.643C16.457 19.899 16.083 20.065 15.391 20.155C14.678 20.248 13.738 20.25 12.387 20.25H11.613C10.263 20.25 9.323 20.248 8.609 20.155C7.917 20.065 7.543 19.899 7.269 19.643C6.996 19.387 6.806 19.025 6.669 18.34C6.529 17.635 6.465 16.697 6.375 15.35L5.915 8.45Z" fill="#172948"/>
<path d="M9.42498 10.254C9.62282 10.2342 9.82044 10.2937 9.97439 10.4195C10.1283 10.5454 10.226 10.7272 10.246 10.925L10.746 15.925C10.7606 16.1201 10.6985 16.3132 10.5728 16.4631C10.4471 16.613 10.2678 16.7078 10.0731 16.7274C9.87846 16.7469 9.68387 16.6897 9.53084 16.5678C9.37781 16.4459 9.27846 16.2691 9.25398 16.075L8.75398 11.075C8.73416 10.8771 8.7937 10.6795 8.91953 10.5256C9.04535 10.3716 9.22716 10.2739 9.42498 10.254ZM15.246 11.075C15.2606 10.8799 15.1985 10.6868 15.0728 10.5369C14.9471 10.387 14.7678 10.2922 14.5731 10.2726C14.3785 10.253 14.1839 10.3103 14.0308 10.4322C13.8778 10.554 13.7785 10.7309 13.754 10.925L13.254 15.925C13.2393 16.1201 13.3015 16.3132 13.4272 16.4631C13.5529 16.613 13.7322 16.7078 13.9269 16.7274C14.1215 16.7469 14.3161 16.6897 14.4691 16.5678C14.6222 16.4459 14.7215 16.2691 14.746 16.075L15.246 11.075Z" fill="#172948"/>
</svg>
