<svg width="24" height="24" viewBox="0 0 24 24" fill="none" xmlns="http://www.w3.org/2000/svg">
<path fill-rule="evenodd" clip-rule="evenodd" d="M10.948 1.25H13.052C13.951 1.25 14.7 1.25 15.294 1.33C15.922 1.414 16.489 1.6 16.944 2.055C17.4 2.511 17.586 3.078 17.67 3.705C17.75 4.3 17.75 5.05 17.75 5.948V7.25C18.327 7.25 18.815 7.255 19.219 7.296C19.692 7.344 20.132 7.449 20.528 7.713C20.828 7.914 21.086 8.172 21.287 8.473C21.551 8.868 21.656 9.308 21.704 9.781C21.75 10.233 21.75 10.792 21.75 11.461V21.25H22C22.1989 21.25 22.3897 21.329 22.5303 21.4697C22.671 21.6103 22.75 21.8011 22.75 22C22.75 22.1989 22.671 22.3897 22.5303 22.5303C22.3897 22.671 22.1989 22.75 22 22.75H2C1.80109 22.75 1.61032 22.671 1.46967 22.5303C1.32902 22.3897 1.25 22.1989 1.25 22C1.25 21.8011 1.32902 21.6103 1.46967 21.4697C1.61032 21.329 1.80109 21.25 2 21.25H2.25V11.462C2.25 10.792 2.25 10.233 2.296 9.781C2.344 9.308 2.449 8.868 2.713 8.472C2.914 8.172 3.172 7.914 3.473 7.713C3.868 7.449 4.308 7.344 4.781 7.296C5.185 7.255 5.673 7.251 6.25 7.25V5.948C6.25 5.05 6.25 4.3 6.33 3.706C6.414 3.078 6.6 2.511 7.055 2.056C7.511 1.6 8.078 1.414 8.705 1.33C9.3 1.25 10.05 1.25 10.948 1.25ZM6.25 8.75C5.667 8.75 5.256 8.755 4.933 8.788C4.578 8.824 4.414 8.888 4.306 8.961C4.17026 9.0532 4.0532 9.17026 3.961 9.306C3.888 9.414 3.824 9.578 3.788 9.933C3.751 10.3 3.75 10.783 3.75 11.5V21.25H6.25V8.75ZM7.75 21.25H11.25V19C11.25 18.8011 11.329 18.6103 11.4697 18.4697C11.6103 18.329 11.8011 18.25 12 18.25C12.1989 18.25 12.3897 18.329 12.5303 18.4697C12.671 18.6103 12.75 18.8011 12.75 19V21.25H16.25V6C16.25 5.036 16.248 4.388 16.183 3.905C16.121 3.444 16.014 3.246 15.883 3.116C15.752 2.986 15.556 2.879 15.095 2.816C14.612 2.752 13.964 2.75 13 2.75H11C10.036 2.75 9.388 2.752 8.905 2.817C8.444 2.879 8.246 2.986 8.116 3.117C7.986 3.248 7.879 3.444 7.816 3.905C7.753 4.388 7.75 5.036 7.75 6V21.25ZM17.75 21.25H20.25V11.5C20.25 10.782 20.25 10.3 20.212 9.933C20.176 9.578 20.112 9.414 20.039 9.306C19.9471 9.17035 19.8304 9.05329 19.695 8.961C19.586 8.888 19.422 8.824 19.067 8.788C18.744 8.755 18.333 8.751 17.75 8.75V21.25ZM9.25 5C9.25 4.80109 9.32902 4.61032 9.46967 4.46967C9.61032 4.32902 9.80109 4.25 10 4.25H14C14.1989 4.25 14.3897 4.32902 14.5303 4.46967C14.671 4.61032 14.75 4.80109 14.75 5C14.75 5.19891 14.671 5.38968 14.5303 5.53033C14.3897 5.67098 14.1989 5.75 14 5.75H10C9.80109 5.75 9.61032 5.67098 9.46967 5.53033C9.32902 5.38968 9.25 5.19891 9.25 5ZM9.25 8C9.25 7.80109 9.32902 7.61032 9.46967 7.46967C9.61032 7.32902 9.80109 7.25 10 7.25H14C14.1989 7.25 14.3897 7.32902 14.5303 7.46967C14.671 7.61032 14.75 7.80109 14.75 8C14.75 8.19891 14.671 8.38968 14.5303 8.53033C14.3897 8.67098 14.1989 8.75 14 8.75H10C9.80109 8.75 9.61032 8.67098 9.46967 8.53033C9.32902 8.38968 9.25 8.19891 9.25 8ZM9.25 11C9.25 10.8011 9.32902 10.6103 9.46967 10.4697C9.61032 10.329 9.80109 10.25 10 10.25H14C14.1989 10.25 14.3897 10.329 14.5303 10.4697C14.671 10.6103 14.75 10.8011 14.75 11C14.75 11.1989 14.671 11.3897 14.5303 11.5303C14.3897 11.671 14.1989 11.75 14 11.75H10C9.80109 11.75 9.61032 11.671 9.46967 11.5303C9.32902 11.3897 9.25 11.1989 9.25 11ZM9.25 14C9.25 13.8011 9.32902 13.6103 9.46967 13.4697C9.61032 13.329 9.80109 13.25 10 13.25H14C14.1989 13.25 14.3897 13.329 14.5303 13.4697C14.671 13.6103 14.75 13.8011 14.75 14C14.75 14.1989 14.671 14.3897 14.5303 14.5303C14.3897 14.671 14.1989 14.75 14 14.75H10C9.80109 14.75 9.61032 14.671 9.46967 14.5303C9.32902 14.3897 9.25 14.1989 9.25 14Z" fill="#3C3B3B"/>
</svg>
