<svg width="24" height="24" viewBox="0 0 24 24" fill="none" xmlns="http://www.w3.org/2000/svg">
<path d="M11.5005 7.48888V5.03888C11.5005 4.45888 12.2905 4.29188 12.5265 4.82088L13.9495 8.01888H12.9595C12.878 8.02022 12.797 8.00491 12.7215 7.97388L11.5005 7.48888ZM15.5905 8.01888L13.8965 4.21088C13.0025 2.20188 10.0005 2.84088 10.0005 5.03888V6.89288L8.50053 6.29688V4.75688C8.50053 3.01888 6.24153 2.34288 5.28753 3.79588L3.37753 6.70388C3.19186 6.98692 3.07083 7.3074 3.02306 7.64252C2.97529 7.97764 3.00195 8.31917 3.10114 8.64282C3.20034 8.96646 3.36963 9.26428 3.59698 9.51508C3.82433 9.76588 4.10414 9.9635 4.41653 10.0939L7.91953 11.5579L5.87453 13.4559C4.24753 14.9669 5.87053 17.6209 7.95653 16.8609L14.7175 14.3969L18.1805 15.8429C18.4899 15.972 18.8263 16.0227 19.1599 15.9905C19.4936 15.9583 19.8141 15.8443 20.0931 15.6585C20.372 15.4727 20.6008 15.2209 20.7591 14.9255C20.9175 14.63 21.0004 14.3001 21.0005 13.9649V12.7349C21.0007 12.1156 20.8788 11.5024 20.6419 10.9302C20.405 10.3581 20.0577 9.83816 19.6199 9.40023C19.1821 8.9623 18.6622 8.6149 18.0901 8.37789C17.518 8.14088 16.9048 8.01888 16.2855 8.01888H15.5905ZM7.00053 6.95088C7.00053 7.17088 7.13453 7.36788 7.33853 7.44888L12.1685 9.36788C12.4185 9.46788 12.6885 9.51888 12.9585 9.51888H16.2855C16.7078 9.51888 17.126 9.60208 17.5161 9.76371C17.9062 9.92534 18.2607 10.1622 18.5592 10.4609C18.8578 10.7595 19.0946 11.1141 19.2561 11.5043C19.4176 11.8944 19.5007 12.3126 19.5005 12.7349V13.9649C19.5005 14.3469 19.1105 14.6069 18.7585 14.4589L15.1155 12.9379C14.8836 12.8409 14.6237 12.8349 14.3875 12.9209L7.44353 15.4509C6.89353 15.6509 6.46653 14.9529 6.89553 14.5549L9.50953 12.1289C9.63226 12.015 9.72444 11.8722 9.77763 11.7135C9.83081 11.5547 9.8433 11.3852 9.81394 11.2204C9.78458 11.0556 9.71431 10.9008 9.60959 10.7702C9.50486 10.6396 9.36902 10.5374 9.21453 10.4729L4.99453 8.70988C4.88556 8.66433 4.78797 8.59532 4.70869 8.50778C4.62942 8.42023 4.5704 8.3163 4.53584 8.20336C4.50128 8.09042 4.49203 7.97126 4.50874 7.85434C4.52545 7.73742 4.56772 7.62562 4.63253 7.52688L6.54253 4.61888C6.57222 4.57436 6.6154 4.54054 6.66574 4.52239C6.71608 4.50424 6.77092 4.50272 6.82218 4.51806C6.87345 4.53339 6.91844 4.56477 6.95055 4.60758C6.98265 4.65039 7.00017 4.70237 7.00053 4.75588V6.95088ZM3.00053 20.2499C3.00053 20.051 3.07955 19.8602 3.2202 19.7196C3.36085 19.5789 3.55162 19.4999 3.75053 19.4999H20.2505C20.4494 19.4999 20.6402 19.5789 20.7809 19.7196C20.9215 19.8602 21.0005 20.051 21.0005 20.2499C21.0005 20.4488 20.9215 20.6396 20.7809 20.7802C20.6402 20.9209 20.4494 20.9999 20.2505 20.9999H3.75053C3.55162 20.9999 3.36085 20.9209 3.2202 20.7802C3.07955 20.6396 3.00053 20.4488 3.00053 20.2499Z" fill="#3C3B3B"/>
</svg>
