<svg width="24" height="24" viewBox="0 0 24 24" fill="none" xmlns="http://www.w3.org/2000/svg">
<path d="M3.65078 15.3992L4.70078 14.3492L7.20078 14.6992L11.1008 10.7992L3.30078 6.54922L4.70078 5.14922L14.2508 7.59922L18.1508 3.74922C18.4341 3.46589 18.7841 3.32422 19.2008 3.32422C19.6174 3.32422 19.9674 3.46589 20.2508 3.74922C20.5341 4.03255 20.6758 4.38255 20.6758 4.79922C20.6758 5.21589 20.5341 5.56589 20.2508 5.84922L16.4008 9.74922L18.8508 19.2992L17.4508 20.6992L13.2008 12.8992L9.30078 16.7992L9.65078 19.2992L8.60078 20.3492L6.85078 17.1492L3.65078 15.3992Z" fill="#666666"/>
</svg>
