<svg width="80" height="80" viewBox="0 0 80 80" fill="none" xmlns="http://www.w3.org/2000/svg">
<circle cx="40" cy="40" r="40" fill="url(#paint0_linear_169_124419)"/>
<path fill-rule="evenodd" clip-rule="evenodd" d="M39.9052 22.083C36.0568 22.083 33.0418 22.083 30.6885 22.3997C28.2818 22.723 26.3818 23.3997 24.8902 24.8897C23.3985 26.3813 22.7235 28.2813 22.4002 30.6897C22.0835 33.0413 22.0835 36.0563 22.0835 39.9047V40.0947C22.0835 43.943 22.0835 46.958 22.4002 49.3113C22.7235 51.718 23.4002 53.618 24.8902 55.1097C26.3818 56.6013 28.2818 57.2763 30.6902 57.5997C33.0418 57.9163 36.0568 57.9163 39.9052 57.9163H40.0952C43.9435 57.9163 46.9585 57.9163 49.3118 57.5997C51.7185 57.2763 53.6185 56.5997 55.1102 55.1097C56.6018 53.618 57.2768 51.718 57.6002 49.3097C57.9168 46.958 57.9168 43.943 57.9168 40.0947V39.9047C57.9168 36.0563 57.9168 33.0413 57.6002 30.688C57.2768 28.2813 56.6002 26.3813 55.1102 24.8897C53.6185 23.398 51.7185 22.723 49.3102 22.3997C46.9585 22.083 43.9435 22.083 40.0952 22.083H39.9052ZM38.7502 24.583C35.4268 24.5863 32.9552 24.6163 31.0235 24.8763C28.8918 25.163 27.6068 25.7097 26.6568 26.658C25.7085 27.608 25.1635 28.8913 24.8768 31.023C24.6185 32.9547 24.5868 35.4263 24.5835 38.7497H31.5235C30.9256 38.0017 30.4958 37.1337 30.2635 36.2047C29.3652 32.6163 32.6168 29.3647 36.2052 30.263C37.1341 30.4954 38.0022 30.9251 38.7502 31.523V24.583ZM24.5835 41.2497C24.5868 44.573 24.6168 47.0447 24.8768 48.9763C25.1635 51.108 25.7102 52.393 26.6585 53.343C27.6085 54.2913 28.8918 54.8363 31.0235 55.123C32.9552 55.3813 35.4268 55.413 38.7502 55.4163V43.5397C38.0925 44.8551 37.0815 45.9614 35.8304 46.7345C34.5792 47.5075 33.1375 47.9168 31.6668 47.9163C31.3353 47.9163 31.0174 47.7846 30.7829 47.5502C30.5485 47.3158 30.4168 46.9979 30.4168 46.6663C30.4168 46.3348 30.5485 46.0169 30.7829 45.7825C31.0174 45.548 31.3353 45.4163 31.6668 45.4163C32.8863 45.4166 34.0701 45.0054 35.0268 44.2492C35.9835 43.4931 36.6571 42.4362 36.9385 41.2497H24.5835ZM41.2502 55.4163C44.5735 55.413 47.0452 55.383 48.9768 55.123C51.1085 54.8363 52.3935 54.2897 53.3435 53.3413C54.2918 52.3913 54.8368 51.108 55.1235 48.9763C55.3818 47.0447 55.4135 44.573 55.4168 41.2497H43.0618C43.3432 42.4362 44.0168 43.4931 44.9735 44.2492C45.9302 45.0054 47.114 45.4166 48.3335 45.4163C48.665 45.4163 48.983 45.548 49.2174 45.7825C49.4518 46.0169 49.5835 46.3348 49.5835 46.6663C49.5835 46.9979 49.4518 47.3158 49.2174 47.5502C48.983 47.7846 48.665 47.9163 48.3335 47.9163C46.8628 47.9168 45.4211 47.5075 44.17 46.7345C42.9188 45.9614 41.9078 44.8551 41.2502 43.5397V55.4163ZM55.4168 38.7497H48.4768C49.0753 38.0018 49.5057 37.1338 49.7385 36.2047C50.6352 32.6163 47.3835 29.3647 43.7968 30.263C42.8673 30.4951 41.9986 30.9249 41.2502 31.523V24.583C44.5735 24.5863 47.0452 24.6163 48.9768 24.8763C51.1085 25.163 52.3935 25.7097 53.3435 26.658C54.2918 27.608 54.8368 28.8913 55.1235 31.023C55.3818 32.9547 55.4135 35.4263 55.4168 38.7497ZM41.2502 38.7497V36.7163C41.253 35.7901 41.5644 34.8912 42.1352 34.1617C42.7059 33.4322 43.5035 32.9136 44.4018 32.688C44.8038 32.5876 45.225 32.593 45.6243 32.7037C46.0236 32.8143 46.3874 33.0265 46.6804 33.3194C46.9734 33.6124 47.1855 33.9763 47.2962 34.3756C47.4068 34.7749 47.4122 35.196 47.3118 35.598C47.0863 36.4958 46.5683 37.293 45.8395 37.8637C45.1106 38.4343 44.2125 38.7461 43.2868 38.7497H41.2502ZM38.7502 36.7113C38.7462 35.786 38.4343 34.8882 37.8636 34.1597C37.293 33.4312 36.496 32.9134 35.5985 32.688C35.1965 32.5876 34.7754 32.593 34.3761 32.7037C33.9768 32.8143 33.6129 33.0265 33.3199 33.3194C33.0269 33.6124 32.8148 33.9763 32.7041 34.3756C32.5935 34.7749 32.5881 35.196 32.6885 35.598C32.914 36.4958 33.432 37.293 34.1609 37.8637C34.8897 38.4343 35.7878 38.7461 36.7135 38.7497H38.7502V36.7113Z" fill="white"/>
<defs>
<linearGradient id="paint0_linear_169_124419" x1="11.6667" y1="11.6667" x2="70" y2="67" gradientUnits="userSpaceOnUse">
<stop stop-color="#6098F8"/>
<stop offset="1" stop-color="#6273F3"/>
</linearGradient>
</defs>
</svg>
