<svg width="80" height="80" viewBox="0 0 80 80" fill="none" xmlns="http://www.w3.org/2000/svg">
<circle cx="40" cy="40" r="40" fill="url(#paint0_linear_169_124412)"/>
<path fill-rule="evenodd" clip-rule="evenodd" d="M40 20.8882C36.7503 20.8882 34.064 21.1744 31.9965 21.5229L31.7583 21.5638C29.9627 21.8642 28.4694 22.1149 27.3014 23.5513C26.5547 24.474 26.3111 25.4713 26.256 26.5824L25.3814 26.874C24.5582 27.1478 23.8347 27.3895 23.264 27.6562C22.6454 27.9442 22.0782 28.314 21.6445 28.9166C21.2107 29.5193 21.0382 30.1735 20.96 30.8509C20.8889 31.4784 20.8889 32.2375 20.8889 33.1069V33.3646C20.8889 34.0793 20.8889 34.7104 20.9422 35.2384C20.9991 35.8091 21.1254 36.3655 21.44 36.9024C21.7582 37.4411 22.1814 37.8215 22.6542 38.1486C23.0898 38.4509 23.6409 38.7584 24.2667 39.1051L28.96 41.7131C29.92 43.5993 31.2374 45.2811 33.0489 46.4953C34.6258 47.5549 36.5191 48.2198 38.7609 48.3958C38.7006 48.553 38.6687 48.7198 38.6667 48.8882V51.9993H36.1245C35.4052 51.9993 34.7082 52.2486 34.152 52.7046C33.5958 53.1607 33.2148 53.7953 33.0738 54.5006L32.6845 56.4438H29.3334C28.9797 56.4438 28.6406 56.5842 28.3906 56.8343C28.1405 57.0843 28 57.4235 28 57.7771C28 58.1307 28.1405 58.4699 28.3906 58.7199C28.6406 58.97 28.9797 59.1104 29.3334 59.1104H50.6667C51.0203 59.1104 51.3595 58.97 51.6095 58.7199C51.8596 58.4699 52 58.1307 52 57.7771C52 57.4235 51.8596 57.0843 51.6095 56.8343C51.3595 56.5842 51.0203 56.4438 50.6667 56.4438H47.3156L46.9263 54.5006C46.7853 53.7953 46.4043 53.1607 45.8481 52.7046C45.2919 52.2486 44.5948 51.9993 43.8756 51.9993H41.3334V48.8882C41.3314 48.7198 41.2995 48.553 41.2391 48.3958C43.4809 48.218 45.3743 47.5549 46.9511 46.4971C48.7645 45.2811 50.08 43.5993 51.04 41.7131L55.7334 39.1051C56.3591 38.7584 56.9103 38.4509 57.3458 38.1486C57.8169 37.8215 58.2418 37.4411 58.5583 36.9042C58.8747 36.3655 59.0027 35.8091 59.0578 35.2384C59.1111 34.7104 59.1111 34.0793 59.1111 33.3646V33.1069C59.1111 32.2393 59.1111 31.4784 59.04 30.8509C58.9618 30.1735 58.7911 29.5175 58.3556 28.9166C57.9218 28.314 57.3547 27.9442 56.7378 27.6544C56.1636 27.3878 55.4418 27.1478 54.6187 26.874L53.744 26.5824C53.6907 25.4695 53.4471 24.474 52.6987 23.5513C51.5325 22.1131 50.0391 21.8624 48.2436 21.5638L48.0036 21.5229C45.3581 21.0882 42.6809 20.8759 40 20.8882ZM44.5956 56.4438L44.3111 55.0233C44.291 54.9226 44.2366 54.832 44.1572 54.7668C44.0778 54.7017 43.9783 54.666 43.8756 54.666H36.1245C36.0218 54.666 35.9222 54.7017 35.8428 54.7668C35.7634 54.832 35.709 54.9226 35.6889 55.0233L35.4045 56.4438H44.5956ZM26.2898 29.3824L26.3147 29.3735C26.4427 32.0758 26.7467 35.0624 27.5076 37.8535L25.6125 36.8029C24.9209 36.4171 24.4871 36.1753 24.1742 35.9584C23.8862 35.7575 23.792 35.6384 23.7405 35.5495C23.6871 35.4606 23.6302 35.322 23.5947 34.9735C23.5579 34.4185 23.5449 33.8621 23.5556 33.306V33.1762C23.5556 32.218 23.5574 31.6118 23.6089 31.1531C23.6587 30.73 23.7369 30.5718 23.808 30.4758C23.8774 30.378 24.0018 30.2535 24.3876 30.074C24.8071 29.8784 25.3831 29.6864 26.2898 29.3824ZM53.6854 29.3718C53.5591 32.074 53.2534 35.0606 52.4943 37.8518L54.3876 36.8011C55.0791 36.4153 55.5129 36.1735 55.8258 35.9566C56.1138 35.7558 56.208 35.6366 56.2596 35.5478C56.3129 35.4589 56.3698 35.3202 56.4054 34.9718C56.4427 34.5913 56.4445 34.0953 56.4445 33.3042V33.1744C56.4445 32.2162 56.4427 31.61 56.3911 31.1513C56.3414 30.7282 56.2631 30.57 56.192 30.474C56.1227 30.3762 55.9983 30.2518 55.6125 30.0722C55.1929 29.8766 54.6169 29.6829 53.7103 29.3789L53.6854 29.3718ZM32.4409 24.1522C34.9396 23.7432 37.4681 23.5434 40 23.5549C43.0934 23.5549 45.6303 23.8269 47.5591 24.1522C49.7049 24.5149 50.1547 24.65 50.6294 25.2331C51.0951 25.8055 51.1396 26.3495 51.0436 28.7584C50.8836 32.7726 50.3538 37.1069 48.7147 40.4029C47.904 42.0278 46.8445 43.3575 45.4667 44.282C44.096 45.2011 42.3271 45.7771 40 45.7771C37.6729 45.7771 35.9058 45.2011 34.5351 44.282C33.1556 43.3575 32.096 42.0278 31.2871 40.4011C29.6462 37.1069 29.1182 32.7744 28.9583 28.7566C28.8622 26.3495 28.9049 25.8055 29.3725 25.2331C29.8454 24.65 30.2951 24.5149 32.4409 24.1522Z" fill="white"/>
<defs>
<linearGradient id="paint0_linear_169_124412" x1="11.6667" y1="11.6667" x2="70" y2="67" gradientUnits="userSpaceOnUse">
<stop stop-color="#FABC15"/>
<stop offset="1" stop-color="#F98816"/>
</linearGradient>
</defs>
</svg>
