<svg width="171" height="40" viewBox="0 0 171 40" fill="none" xmlns="http://www.w3.org/2000/svg">
<path d="M67.7429 10.4514H67.8669C68.589 10.4406 69.3099 10.5159 70.0143 10.6757C71.3082 10.9857 72.5751 11.69 73.3346 12.8085C73.4172 12.95 73.4771 13.09 73.5341 13.2428H73.6509L73.6965 13.1414C73.9274 12.7128 74.3349 12.3628 74.7111 12.0628L74.8807 11.9271C75.7654 11.2512 76.7956 10.7922 77.8889 10.5871L78.0584 10.5542C78.5829 10.4628 79.0987 10.4485 79.6288 10.4514H79.7627C80.4653 10.4542 81.145 10.4942 81.8333 10.6471L81.953 10.6728C83.5062 11.02 84.8329 11.8257 85.7221 13.1771C86.4004 14.3228 86.6127 15.6242 86.6085 16.9414V19.0685L86.607 20.4014L86.6042 24.6614V25.4428L86.6013 30.8285H81.5982L81.5953 29.6785C81.5916 27.6633 81.5859 25.648 81.5782 23.6328L81.5682 20.59L81.5639 19.2357C81.5639 18.0014 81.4599 16.8014 80.5978 15.84C79.8853 15.2014 79.0503 15.0928 78.1368 15.1242C77.2519 15.1757 76.4468 15.6442 75.8497 16.2814C75.437 16.7619 75.1115 17.3111 74.8878 17.9042L74.8194 18.0728C74.496 18.9614 74.4489 19.8842 74.4489 20.82V21.1485C74.4461 21.4438 74.4451 21.739 74.4461 22.0342C74.4461 22.3447 74.4447 22.6547 74.4418 22.9642L74.4361 24.72L74.4276 27.0942L74.4162 30.8285H69.413L69.4101 29.6714C69.4064 27.6457 69.4007 25.62 69.393 23.5942L69.383 20.5371L69.3802 19.1742C69.3802 17.9557 69.2634 16.7885 68.4112 15.84C67.646 15.1828 66.7326 15.0657 65.7636 15.1314C64.8159 15.2528 64.0692 15.8157 63.4608 16.5214C62.5017 17.7771 62.2638 19.3371 62.2638 20.8728V21.2014C62.2619 21.4947 62.2609 21.7885 62.2609 22.0828L62.2566 23.0071L62.2509 24.7514C62.249 25.54 62.2462 26.3276 62.2424 27.1142L62.231 30.8285H57.2292V10.9428H62.231L62.2908 12.5942L62.5587 12.3357C63.9894 11.0157 65.822 10.4414 67.7429 10.4514ZM11.8587 10.4514H11.9798C12.5982 10.4557 13.1882 10.4785 13.7867 10.6471L13.9306 10.6871C14.9352 10.9771 15.8544 11.4014 16.6709 12.0628L16.7678 12.1414C18.8383 13.83 19.947 16.2457 20.3787 18.8485L20.4001 18.9728C20.8334 21.7346 20.3339 24.5624 18.9808 27.0071C18.6019 27.6666 18.1423 28.2761 17.6128 28.8214L17.5344 28.9071C16.2477 30.2857 14.418 31.2228 12.5184 31.31C10.1415 31.3371 8.28475 30.9857 6.48783 29.2942L6.42798 29.2357L6.36955 37.1428H1.4248V10.9428H6.36955L6.42798 12.4171L6.75573 12.1557C8.23488 11.0042 9.98905 10.4428 11.8587 10.4514ZM7.60218 16.3485C6.55623 17.6114 6.22563 19.26 6.23133 20.8671V20.9871C6.2356 21.6442 6.27551 22.2785 6.42655 22.9214L6.45648 23.05C6.67165 23.9457 7.03788 24.7728 7.66345 25.4585L7.76178 25.5714C8.44578 26.3142 9.44185 26.6685 10.4308 26.7128C11.5608 26.7457 12.6381 26.5557 13.5159 25.7871L13.7853 25.5171L13.8964 25.4071C15.0022 24.2414 15.2701 22.4614 15.2715 20.9214V20.79C15.2715 20.1285 15.2416 19.4928 15.0806 18.8485L15.0507 18.7242C14.8426 17.8671 14.5006 17.0314 13.9021 16.3714L13.7881 16.2371C13.1361 15.5423 12.2441 15.1233 11.2944 15.0657C9.86935 15.0228 8.6239 15.27 7.60218 16.3485ZM99.1228 10.4542H99.271C102.026 10.4585 104.578 11.3414 106.556 13.3028C108.579 15.3542 109.349 18.25 109.34 21.0671C109.307 23.2042 108.809 25.46 107.556 27.2285L107.436 27.4C106.194 29.1142 104.511 30.2757 102.494 30.8871L102.372 30.9257C102.102 31.0038 101.829 31.07 101.552 31.1242L101.421 31.15C98.6283 31.6942 95.4862 31.2357 93.1064 29.6357C90.845 28.0671 89.5953 25.69 89.1065 23.0185C89.0663 22.7707 89.0354 22.5215 89.0139 22.2714L88.9939 22.0771C88.7516 19.2814 89.3159 16.2542 91.1001 14.0257L91.3679 13.7157L91.519 13.5414C93.058 11.7814 95.2083 10.8485 97.4898 10.5285L97.6223 10.51C98.121 10.45 98.6212 10.4557 99.1228 10.4542ZM96.0206 16.1942L95.8895 16.3085C95.0274 17.1114 94.5614 18.2485 94.3134 19.38L94.2735 19.5542C93.9442 21.3032 94.2726 23.1124 95.1955 24.6328C95.3409 24.8414 95.4962 25.0328 95.6658 25.2228L95.7883 25.36C96.5578 26.1885 97.6807 26.6671 98.8036 26.7142C100.153 26.7471 101.352 26.4228 102.356 25.4785C103.539 24.31 104.08 22.77 104.099 21.1242C104.103 19.3185 103.698 17.6671 102.417 16.3271C101.42 15.3585 100.184 15.0371 98.8307 15.0557C97.7894 15.0911 96.794 15.4944 96.0206 16.1942ZM44.0665 10.4571H44.2033L44.6422 10.4542H44.7933C47.5777 10.4585 50.0829 11.3514 52.1135 13.2914C53.5912 14.8285 54.4562 16.8714 54.7554 18.9671L54.7754 19.1114C55.1744 22.06 54.6158 25.2228 52.8231 27.6385C51.2129 29.7357 48.9001 30.8857 46.3123 31.2471C45.7809 31.3043 45.2464 31.3282 44.712 31.3185H44.5638C41.8136 31.3085 39.2158 30.4328 37.2536 28.4528C35.4966 26.6385 34.5689 24.01 34.5062 21.5042L34.5019 21.3714C34.4364 18.6285 35.0762 15.8171 36.9187 13.7142L37.047 13.5657C38.7669 11.59 41.463 10.4742 44.0665 10.4571ZM41.5699 16.1942L41.4388 16.3085C40.3088 17.3614 39.7844 18.9928 39.7288 20.5057C39.6918 22.2085 40.0437 23.9242 41.2165 25.2228L41.3405 25.3628C42.1257 26.1957 43.2286 26.6628 44.3658 26.72C45.7053 26.7528 46.9094 26.4157 47.904 25.4771C47.9506 25.4333 47.9976 25.3876 48.0451 25.34L48.1691 25.2171C49.2407 24.0885 49.6596 22.4171 49.6511 20.9V20.6885C49.6311 19.1914 49.1808 17.6742 48.162 16.5485L48.038 16.4085C47.2542 15.5896 46.1851 15.1059 45.054 15.0585C43.7544 15.0314 42.5603 15.2928 41.5699 16.1942Z" fill="black"/>
<path d="M140.482 10.5215C142.797 10.4786 145.081 11.1072 146.778 12.7357L146.938 12.8886L147.064 13.0029C147.918 13.8057 148.615 14.9715 148.998 16.0757V16.2529L148.736 16.3729L148.498 16.4815L147.82 16.7929C147.376 16.9948 146.934 17.1986 146.493 17.4043L145.923 17.6686L145.649 17.7972L145.268 17.9729L145.152 18.0286C145.062 18.0694 144.97 18.1071 144.877 18.1415C144.686 18.0457 144.652 17.8372 144.576 17.6472C144.154 16.6088 143.341 15.7786 142.314 15.3357C141.147 14.8839 139.851 14.9075 138.701 15.4015C137.443 15.9872 136.626 16.9557 136.122 18.2529C135.436 20.1833 135.516 22.3038 136.344 24.1772C136.834 25.1986 137.634 26.0357 138.697 26.4629C139.119 26.6029 139.546 26.7372 139.992 26.7572L140.169 26.7657C141.513 26.8029 142.674 26.3815 143.659 25.45C144.18 24.8972 144.539 24.2457 144.877 23.57L144.973 23.3843L145.172 22.98C146.467 23.6181 147.747 24.2877 149.011 24.9886C149.084 25.0286 149.158 25.0672 149.233 25.1043C149.178 25.4515 149.02 25.73 148.859 26.0372L148.763 26.2215C148.487 26.7383 148.173 27.2331 147.821 27.7015L147.696 27.87C146.208 29.78 144.157 30.8729 141.768 31.1686C141.432 31.2063 141.094 31.2306 140.756 31.2415L140.552 31.2486C137.879 31.2957 135.398 30.4386 133.451 28.58C131.64 26.7957 130.641 24.1286 130.619 21.6015L130.617 21.4443C130.589 18.17 131.391 15.3557 133.709 12.9872C134.415 12.3157 135.281 11.81 136.166 11.4143L136.274 11.3643C137.607 10.77 139.036 10.5757 140.482 10.5215ZM112.561 2.85718H117.329V11H121.567V14.4829H117.329L117.346 18.6072L117.353 20.5215L117.367 23.9072L117.369 24.2129C117.363 25.3057 117.363 25.3057 117.799 26.2843C118.321 26.7415 119.005 26.8015 119.672 26.7672C120.022 26.7386 120.37 26.6915 120.719 26.6429L120.897 26.6186L121.057 26.5957C121.225 26.5786 121.397 26.58 121.567 26.58V30.5343C119.826 30.8829 119.826 30.8829 119.153 30.9472L118.954 30.9672C117.262 31.11 115.23 31.08 113.861 29.9372C113.063 29.2143 112.691 28.2872 112.561 27.2286C112.554 27.0511 112.552 26.8734 112.554 26.6957V24.6129L112.555 23.5443V21.5215L112.558 19.22L112.561 14.4829H109.677V11H112.561V2.85718Z" fill="#EB0725"/>
<path d="M33.9767 10.47V15.5443L32.5047 15.6628C32.1264 15.7316 31.7525 15.8222 31.3846 15.9343C30.115 16.3385 29.1388 17.1185 28.5175 18.3114C27.9974 19.3971 27.9048 20.4943 27.9019 21.6771L27.9005 21.9771L27.8962 22.7885L27.892 23.6371L27.8834 25.2414L27.872 27.4128L27.8549 30.8285H22.9102V10.9428H27.8549L27.9133 13.2428L28.4434 12.5357C29.8713 10.8814 31.8763 10.47 33.9767 10.47Z" fill="black"/>
<path d="M124.274 3.03431H149.057V7.87145H124.274V3.03431ZM124.274 11H129.101V30.7714H124.274V11ZM156.206 25.0114L156.217 18.5357H156.998L163.185 11.1457H169.336L161.022 20.9314H159.751L156.206 25.0114ZM151.351 30.6129V3.02002H156.709V30.6143L151.351 30.6129ZM163.425 30.6129L157.739 22.1343L161.312 18.32L169.701 30.6129H163.425Z" fill="#EB0725"/>
</svg>
