<svg width="312" height="73" viewBox="0 0 312 73" fill="none" xmlns="http://www.w3.org/2000/svg">
<path d="M123.601 19.0739H123.827C125.145 19.0543 126.46 19.1917 127.745 19.4832C130.106 20.049 132.418 21.3343 133.803 23.3757C133.954 23.6338 134.063 23.8893 134.167 24.1683H134.381L134.464 23.9832C134.885 23.201 135.629 22.5623 136.315 22.0148L136.624 21.7671C138.238 20.5335 140.118 19.696 142.113 19.3216L142.422 19.2616C143.379 19.0948 144.32 19.0687 145.288 19.0739H145.532C146.814 19.0791 148.054 19.1521 149.31 19.4311L149.528 19.478C152.362 20.1116 154.783 21.582 156.405 24.0484C157.643 26.1393 158.03 28.5144 158.022 30.9182V34.8002L158.02 37.2327L158.015 45.0072V46.4333L158.009 56.2622H148.881L148.876 54.1635C148.869 50.4856 148.858 46.8078 148.844 43.13L148.826 37.5768L148.818 35.1052C148.818 32.8527 148.629 30.6627 147.056 28.9081C145.756 27.7427 144.232 27.5445 142.565 27.6019C140.951 27.6957 139.482 28.5509 138.392 29.7137C137.639 30.5906 137.045 31.593 136.637 32.6754L136.513 32.983C135.922 34.6047 135.837 36.2889 135.837 37.9966V38.5962C135.831 39.135 135.83 39.6738 135.831 40.2126C135.831 40.7793 135.829 41.345 135.824 41.9099L135.813 45.1141L135.798 49.4471L135.777 56.2622H126.648L126.643 54.1504C126.636 50.4535 126.626 46.7566 126.612 43.0596L126.594 37.4804L126.588 34.9931C126.588 32.7692 126.375 30.6392 124.82 28.9081C123.424 27.7088 121.758 27.495 119.99 27.6149C118.261 27.8365 116.898 28.8637 115.788 30.1517C114.038 32.4434 113.604 35.2904 113.604 38.093V38.6927C113.601 39.228 113.599 39.7642 113.599 40.3013L113.591 41.9881L113.581 45.1714C113.577 46.6106 113.572 48.048 113.565 49.4836L113.544 56.2622H104.418V19.9708H113.544L113.653 22.9846L114.142 22.5127C116.753 20.1037 120.096 19.0557 123.601 19.0739ZM21.6368 19.0739H21.8578C22.9862 19.0817 24.0626 19.1235 25.1546 19.4311L25.4172 19.5041C27.2502 20.0334 28.9272 20.8077 30.417 22.0148L30.5938 22.1582C34.3716 25.2398 36.3944 29.6485 37.1822 34.3987L37.2212 34.6255C38.0118 39.6659 37.1003 44.8266 34.6316 49.2881C33.9403 50.4917 33.1018 51.604 32.1356 52.5992L31.9926 52.7556C29.6448 55.2715 26.3064 56.9818 22.8406 57.1408C18.5038 57.1904 15.116 56.549 11.8374 53.4621L11.7282 53.3552L11.6216 67.7858H2.59961V19.9708H11.6216L11.7282 22.6614L12.3262 22.1842C15.025 20.0829 18.2256 19.0583 21.6368 19.0739ZM13.8706 29.8362C11.9622 32.1409 11.359 35.1496 11.3694 38.0826V38.3016C11.3772 39.5009 11.45 40.6585 11.7256 41.8317L11.7802 42.0663C12.1728 43.701 12.841 45.2105 13.9824 46.462L14.1618 46.6679C15.4098 48.0236 17.2272 48.6702 19.0316 48.751C21.0934 48.811 23.059 48.4642 24.6606 47.0616L25.152 46.5689L25.3548 46.3681C27.3724 44.2407 27.8612 40.9922 27.8638 38.1817V37.9418C27.8638 36.7347 27.8092 35.5745 27.5154 34.3987L27.4608 34.1719C27.0812 32.6076 26.4572 31.0824 25.3652 29.8779L25.1572 29.6329C23.9676 28.3649 22.3401 27.6002 20.6072 27.495C18.0072 27.4168 15.7348 27.8678 13.8706 29.8362ZM180.856 19.0791H181.126C186.152 19.087 190.808 20.6982 194.417 24.2778C198.109 28.0216 199.513 33.3063 199.498 38.4476C199.438 42.3479 198.528 46.4646 196.242 49.6922L196.024 50.0051C193.757 53.1336 190.686 55.2532 187.007 56.3691L186.784 56.4395C186.291 56.582 185.793 56.7028 185.289 56.8019L185.049 56.8488C179.953 57.8421 174.22 57.0052 169.878 54.0852C165.752 51.2226 163.472 46.8843 162.58 42.009C162.507 41.5567 162.45 41.1019 162.411 40.6454L162.375 40.2909C161.933 35.1887 162.962 29.6641 166.218 25.597L166.706 25.0312L166.982 24.7132C169.79 21.5012 173.713 19.7987 177.876 19.2147L178.118 19.1808C179.028 19.0713 179.94 19.0817 180.856 19.0791ZM175.195 29.5546L174.956 29.7632C173.383 31.2284 172.533 33.3037 172.081 35.3686L172.008 35.6866C171.407 38.8784 172.006 42.1802 173.69 44.955C173.955 45.3357 174.239 45.685 174.548 46.0318L174.772 46.2821C176.176 47.7942 178.224 48.6676 180.273 48.7536C182.735 48.8136 184.922 48.2218 186.755 46.4985C188.913 44.3658 189.901 41.5553 189.935 38.5519C189.943 35.2565 189.204 32.2426 186.867 29.7971C185.047 28.0295 182.793 27.4429 180.323 27.4767C178.423 27.5414 176.607 28.2774 175.195 29.5546ZM80.402 19.0844H80.6516L81.4524 19.0791H81.728C86.8084 19.087 91.3792 20.7164 95.0842 24.2569C97.7804 27.0622 99.3586 30.7904 99.9046 34.6151L99.941 34.8784C100.669 40.2596 99.6498 46.0318 96.379 50.4405C93.441 54.2677 89.2212 56.3665 84.4996 57.0261C83.53 57.1305 82.5548 57.1741 81.5798 57.1565H81.3094C76.2914 57.1382 71.5516 55.54 67.9714 51.9265C64.7656 48.6155 63.073 43.8183 62.9586 39.2454L62.9508 39.0029C62.8312 33.9972 63.9986 28.8664 67.3604 25.0286L67.5944 24.7575C70.7326 21.1518 75.6518 19.1156 80.402 19.0844ZM75.8468 29.5546L75.6076 29.7632C73.5458 31.6847 72.589 34.662 72.4876 37.423C72.42 40.5307 73.0622 43.6619 75.202 46.0318L75.4282 46.2873C76.8608 47.8072 78.8732 48.6598 80.948 48.7641C83.392 48.824 85.589 48.2087 87.4038 46.4959C87.4887 46.4159 87.5745 46.3325 87.6612 46.2456L87.8874 46.0214C89.8426 43.9617 90.607 40.9114 90.5914 38.1426V37.7567C90.555 35.0244 89.7334 32.2556 87.8744 30.2012L87.6482 29.9457C86.2182 28.4511 84.2676 27.5684 82.2038 27.482C79.8326 27.4324 77.6538 27.9095 75.8468 29.5546ZM256.318 19.2017C260.54 19.1235 264.708 20.2706 267.805 23.2427L268.096 23.5217L268.327 23.7303C269.885 25.1955 271.156 27.3229 271.856 29.3382V29.6615L271.377 29.8805L270.943 30.0787L269.705 30.647C268.896 31.0155 268.089 31.3875 267.285 31.7629L266.245 32.2452L265.746 32.4799L265.049 32.8005L264.838 32.9022C264.673 32.9767 264.506 33.0454 264.336 33.1082C263.988 32.9335 263.926 32.5529 263.788 32.2061C263.017 30.311 261.534 28.7959 259.659 27.9877C257.531 27.1631 255.165 27.2061 253.068 28.1077C250.772 29.1766 249.282 30.9442 248.362 33.3115C247.111 36.8346 247.257 40.7045 248.768 44.1234C249.662 45.9875 251.121 47.5152 253.06 48.2948C253.83 48.5503 254.61 48.7954 255.424 48.8319L255.746 48.8475C258.198 48.9153 260.317 48.1462 262.113 46.4463C263.065 45.4374 263.72 44.2485 264.336 43.0153L264.511 42.6764L264.875 41.9386C267.237 43.1031 269.572 44.325 271.879 45.6042C272.012 45.6772 272.148 45.7476 272.285 45.8154C272.183 46.4489 271.895 46.9573 271.601 47.5179L271.427 47.8542C270.924 48.7974 270.349 49.7004 269.708 50.5552L269.479 50.8628C266.765 54.3486 263.023 56.343 258.663 56.8827C258.05 56.9514 257.434 56.9958 256.817 57.0157L256.445 57.0287C251.568 57.1147 247.041 55.5505 243.49 52.1586C240.185 48.9022 238.362 44.0347 238.321 39.4227L238.318 39.1359C238.266 33.1603 239.73 28.0242 243.96 23.7016C245.247 22.4762 246.828 21.5533 248.443 20.8311L248.64 20.7399C251.071 19.6553 253.679 19.3007 256.318 19.2017ZM205.374 5.21436H214.073V20.0751H221.806V26.4313H214.073L214.104 33.9581L214.117 37.4517L214.143 43.6306L214.146 44.1885C214.136 46.183 214.136 46.183 214.931 47.9689C215.883 48.8032 217.131 48.9127 218.348 48.8501C218.987 48.798 219.622 48.7119 220.259 48.6233L220.584 48.579L220.875 48.5372C221.182 48.506 221.496 48.5086 221.806 48.5086V55.7251C218.628 56.3613 218.628 56.3613 217.401 56.4786L217.037 56.5151C213.951 56.7758 210.243 56.7211 207.745 54.6353C206.289 53.3161 205.61 51.6241 205.374 49.6922C205.362 49.3682 205.357 49.044 205.361 48.7197V44.9185L205.363 42.9684V39.2767L205.368 35.0766L205.374 26.4313H200.111V20.0751H205.374V5.21436ZM61.9914 19.1078V28.3684L59.3056 28.5848C58.6155 28.7103 57.9331 28.8757 57.262 29.0801C54.9454 29.818 53.1644 31.2415 52.0308 33.4184C51.0818 35.3999 50.9128 37.4021 50.9076 39.5609L50.905 40.1084L50.8972 41.5892L50.8894 43.1379L50.8738 46.0657L50.853 50.0285L50.8218 56.2622H41.7998V19.9708H50.8218L50.9284 24.1683L51.8956 22.8777C54.5008 19.8587 58.159 19.1078 61.9914 19.1078ZM226.746 5.53764H271.962V14.3654H226.746V5.53764ZM226.746 20.0751H235.552V56.1579H226.746V20.0751ZM285.006 45.6459L285.027 33.8277H286.452L297.741 20.341H308.963L293.794 38.1999H291.475L285.006 45.6459ZM276.148 55.8685V5.51157H285.924V55.8711L276.148 55.8685ZM298.178 55.8685L287.804 40.3951L294.322 33.4341L309.628 55.8685H298.178Z" fill="white"/>
</svg>
