<svg width="242" height="180" viewBox="0 0 242 180" fill="none" xmlns="http://www.w3.org/2000/svg">
<path d="M241.572 158.182H0V158.302H241.572V158.182Z" fill="#EBEBEB"/>
<path d="M217.366 165.955H175.381V166.076H217.366V165.955Z" fill="#EBEBEB"/>
<path d="M176.999 161.473H172.801V161.593H176.999V161.473Z" fill="#EBEBEB"/>
<path d="M144.609 165.477H135.338V165.597H144.609V165.477Z" fill="#EBEBEB"/>
<path d="M35.7816 162.283H25.3457V162.404H35.7816V162.283Z" fill="#EBEBEB"/>
<path d="M53.5762 162.283H40.082V162.404H53.5762V162.283Z" fill="#EBEBEB"/>
<path d="M122.964 164.264H100.334V164.384H122.964V164.264Z" fill="#EBEBEB"/>
<path d="M114.505 136.633H21.2149C20.484 136.632 19.7836 136.341 19.2672 135.823C18.7509 135.306 18.4609 134.605 18.4609 133.874V2.73459C18.4673 2.00796 18.7601 1.31317 19.2757 0.801158C19.7914 0.289141 20.4882 0.00124477 21.2149 0H114.505C115.237 0 115.938 0.290653 116.456 0.808019C116.973 1.32539 117.264 2.02708 117.264 2.75875V133.874C117.264 134.606 116.973 135.308 116.456 135.825C115.938 136.342 115.237 136.633 114.505 136.633ZM21.2149 0.0966291C20.5161 0.0979089 19.8463 0.3764 19.3527 0.870976C18.859 1.36555 18.5817 2.0358 18.5817 2.73459V133.874C18.5817 134.573 18.859 135.243 19.3527 135.738C19.8463 136.232 20.5161 136.511 21.2149 136.512H114.505C115.204 136.511 115.875 136.233 116.369 135.738C116.863 135.244 117.142 134.574 117.143 133.874V2.73459C117.142 2.03535 116.863 1.36512 116.369 0.870681C115.875 0.376243 115.204 0.0979062 114.505 0.0966291H21.2149Z" fill="#EBEBEB"/>
<path d="M219.015 136.633H125.72C124.988 136.632 124.287 136.341 123.77 135.824C123.253 135.307 122.962 134.606 122.961 133.874V2.73459C122.969 2.00752 123.262 1.31274 123.779 0.800855C124.295 0.288972 124.993 0.00123119 125.72 0H219.015C219.741 0.00251452 220.436 0.290973 220.951 0.802853C221.465 1.31473 221.757 2.00879 221.764 2.73459V133.874C221.764 134.604 221.474 135.304 220.959 135.822C220.444 136.339 219.745 136.63 219.015 136.633ZM125.72 0.0966291C125.02 0.0979062 124.35 0.376243 123.856 0.870681C123.361 1.36512 123.083 2.03535 123.082 2.73459V133.874C123.083 134.574 123.361 135.244 123.856 135.738C124.35 136.233 125.02 136.511 125.72 136.512H219.015C219.714 136.511 220.384 136.233 220.879 135.738C221.373 135.244 221.651 134.574 221.653 133.874V2.73459C221.651 2.03535 221.373 1.36512 220.879 0.870681C220.384 0.376243 219.714 0.0979062 219.015 0.0966291H125.72Z" fill="#EBEBEB"/>
<path d="M124.941 127.955H93.7298L90.7536 76.2587C90.7322 75.9601 90.773 75.6603 90.8733 75.3782C90.9737 75.0962 91.1315 74.838 91.3367 74.6201C91.542 74.4021 91.7902 74.2291 92.0657 74.112C92.3412 73.9949 92.638 73.9362 92.9374 73.9396H119.51C120.136 73.9467 120.735 74.1895 121.189 74.6194C121.643 75.0493 121.919 75.6347 121.96 76.2587L124.941 127.955Z" fill="#E0E0E0"/>
<path d="M128.091 127.955H96.8651L93.8841 76.2587C93.8634 75.9598 93.9048 75.6599 94.0057 75.3779C94.1067 75.0958 94.2649 74.8377 94.4706 74.6198C94.6762 74.402 94.9247 74.2291 95.2004 74.112C95.4762 73.9949 95.7732 73.9362 96.0727 73.9396H122.646C123.271 73.9467 123.872 74.1893 124.326 74.6191C124.781 75.0489 125.058 75.6343 125.1 76.2587L128.091 127.955Z" fill="#EBEBEB"/>
<path d="M97.4891 121.506H119.231V127.956H95.1797V123.825C95.1797 123.212 95.4227 122.623 95.8555 122.189C96.2883 121.754 96.8757 121.508 97.4891 121.506Z" fill="#E0E0E0"/>
<path d="M114.438 121.506H142.113C142.728 121.506 143.318 121.75 143.753 122.185C144.187 122.62 144.432 123.21 144.432 123.825V127.956H112.119V123.825C112.119 123.21 112.363 122.62 112.798 122.185C113.233 121.75 113.823 121.506 114.438 121.506Z" fill="#EBEBEB"/>
<path d="M95.8513 127.955H93.7109V158.181H95.8513V127.955Z" fill="#E0E0E0"/>
<path d="M111.568 127.955H109.428V158.181H111.568V127.955Z" fill="#E0E0E0"/>
<path d="M128.226 127.955H126.086V158.181H128.226V127.955Z" fill="#E0E0E0"/>
<path d="M143.937 127.955H141.797V158.181H143.937V127.955Z" fill="#E0E0E0"/>
<path d="M91.5367 104.084H43.8359V106.862H91.5367V104.084Z" fill="#E6E6E6"/>
<path d="M91.542 106.863H47.0059V154.82H91.542V106.863Z" fill="#EBEBEB"/>
<path d="M91.5373 154.818H198.916V106.862L91.5373 106.862V154.818Z" fill="#F5F5F5"/>
<path d="M47.0051 108.92L198.92 108.92V106.862L47.0051 106.862V108.92Z" fill="#E0E0E0"/>
<path d="M91.5359 106.863L202.084 106.863V104.085L91.5359 104.085V106.863Z" fill="#F0F0F0"/>
<path d="M47.0059 154.818V158.181L55.8764 154.818H47.0059Z" fill="#EBEBEB"/>
<path d="M91.541 154.818V158.181L100.412 154.818H91.541Z" fill="#F5F5F5"/>
<path d="M198.919 154.818V158.181L190.049 154.818H198.919Z" fill="#F5F5F5"/>
<path d="M91.5414 154.818V158.181L82.666 154.818H91.5414Z" fill="#EBEBEB"/>
<path d="M154.384 154.818V158.181L145.514 154.818H154.384Z" fill="#E0E0E0"/>
<path d="M154.383 154.818V158.181L163.258 154.818H154.383Z" fill="#E0E0E0"/>
<path d="M139.392 10.7891H99.7598V60.9345H139.392V10.7891Z" fill="#E6E6E6"/>
<path d="M141.812 10.7891H102.18V60.9345H141.812V10.7891Z" fill="#F5F5F5"/>
<path d="M137.469 58.673V13.0449L106.528 13.0449V58.673H137.469Z" fill="white"/>
<path d="M137.465 58.673V13.0449H135.634V58.673H137.465Z" fill="#E6E6E6"/>
<path d="M140.014 33.4219H103.977V36.4512H140.014V33.4219Z" fill="#F5F5F5"/>
<path d="M140.014 23.3457H103.977V26.375H140.014V23.3457Z" fill="#F5F5F5"/>
<path d="M192.822 10.7891H153.189V60.9345H192.822V10.7891Z" fill="#E6E6E6"/>
<path d="M195.248 10.7891H155.615V60.9345H195.248V10.7891Z" fill="#F5F5F5"/>
<path d="M190.9 58.673V13.0449L159.96 13.0449V58.673H190.9Z" fill="white"/>
<path d="M190.9 58.673V13.0449H189.069V58.673H190.9Z" fill="#E6E6E6"/>
<path d="M193.45 47.793H157.412V50.8223H193.45V47.793Z" fill="#F5F5F5"/>
<path d="M193.45 23.3457H157.412V26.375H193.45V23.3457Z" fill="#F5F5F5"/>
<path d="M85.9565 10.7891H46.3242V60.9345H85.9565V10.7891Z" fill="#E6E6E6"/>
<path d="M88.3823 10.7891H48.75V60.9345H88.3823V10.7891Z" fill="#F5F5F5"/>
<path d="M84.0332 58.673V13.0449L53.0927 13.0449V58.673H84.0332Z" fill="white"/>
<path d="M84.0332 58.673V13.0449H82.2021V58.673H84.0332Z" fill="#E6E6E6"/>
<path d="M86.5846 51.4453H50.5469V54.4746H86.5846V51.4453Z" fill="#F5F5F5"/>
<path d="M86.5846 28.6309H50.5469V31.6602H86.5846V28.6309Z" fill="#F5F5F5"/>
<path d="M178.676 85.5156H171.033C171.033 85.5156 172.361 89.661 172.361 92.096C172.361 94.5311 166.539 104.093 174.859 104.093C183.179 104.093 177.357 94.5359 177.357 92.096C177.357 89.6562 178.676 85.5156 178.676 85.5156Z" fill="#E6E6E6"/>
<path d="M150.398 100.098C150.398 102.291 154.713 104.084 159.994 104.084H164.753C170.033 104.084 174.348 102.291 174.348 100.098H150.398Z" fill="#F0F0F0"/>
<path d="M68.2876 94.0527H59.8809V104.083H68.2876V94.0527Z" fill="#E6E6E6"/>
<path d="M68.2925 104.084H76.6992V94.0539H68.2925V104.084Z" fill="#F5F5F5"/>
<path d="M77.9455 96.1113H71.2637V104.083H77.9455V96.1113Z" fill="#E6E6E6"/>
<path d="M77.9509 104.084H84.6328V96.1121H77.9509V104.084Z" fill="#F5F5F5"/>
<path d="M120.786 179.997C172.522 179.997 214.463 177.548 214.463 174.528C214.463 171.507 172.522 169.059 120.786 169.059C69.0499 169.059 27.1094 171.507 27.1094 174.528C27.1094 177.548 69.0499 179.997 120.786 179.997Z" fill="#F5F5F5"/>
<path d="M138.547 146.081H73.4387C71.8819 146.061 70.3903 145.452 69.265 144.376C68.1397 143.3 67.4644 141.837 67.3752 140.283L61.9688 22.71C61.9286 21.9604 62.0422 21.2106 62.3025 20.5066C62.5628 19.8026 62.9644 19.1593 63.4826 18.6162C64.0007 18.0732 64.6245 17.6418 65.3155 17.3488C66.0066 17.0558 66.7503 16.9072 67.5008 16.9122H132.619C134.172 16.9365 135.659 17.5479 136.78 18.6234C137.902 19.6989 138.574 21.1589 138.663 22.71L144.06 140.273C144.101 141.022 143.989 141.771 143.731 142.475C143.472 143.179 143.073 143.823 142.556 144.366C142.04 144.91 141.418 145.343 140.729 145.638C140.039 145.932 139.297 146.083 138.547 146.081Z" fill="#263238"/>
<path d="M93.9727 14.8887H84.1504V15.3718H93.9727V14.8887Z" fill="#E4022C"/>
<path d="M80.928 14.8887H78.2852V15.3718H80.928V14.8887Z" fill="#E4022C"/>
<path d="M139.228 145.744H74.1146C72.5577 145.724 71.0662 145.115 69.9409 144.039C68.8156 142.963 68.1403 141.5 68.0511 139.946L62.6544 22.3779C62.6142 21.6284 62.7277 20.8786 62.988 20.1746C63.2484 19.4706 63.6499 18.8272 64.1681 18.2842C64.6863 17.7411 65.3101 17.3098 66.0011 17.0168C66.6921 16.7237 67.4358 16.5752 68.1864 16.5802H133.3C134.856 16.5997 136.348 17.2088 137.473 18.2848C138.599 19.3608 139.274 20.8235 139.363 22.3779L144.76 139.946C144.8 140.696 144.686 141.445 144.426 142.149C144.166 142.853 143.764 143.497 143.246 144.04C142.728 144.583 142.104 145.014 141.413 145.307C140.722 145.6 139.978 145.749 139.228 145.744Z" fill="#E4022C"/>
<path d="M74.0031 143.326C73.0941 143.318 72.2225 142.964 71.5655 142.335C70.9085 141.707 70.5156 140.852 70.4665 139.944L65.0697 22.3763C65.0446 21.939 65.1095 21.5013 65.2605 21.0901C65.4114 20.679 65.6452 20.3033 65.9473 19.9862C66.2495 19.6691 66.6135 19.4174 67.0169 19.2468C67.4202 19.0762 67.8544 18.9902 68.2923 18.9943H133.41C134.319 19.0028 135.191 19.3572 135.848 19.9854C136.505 20.6137 136.898 21.4686 136.947 22.3763L142.344 139.944C142.368 140.382 142.303 140.819 142.152 141.23C142 141.641 141.767 142.016 141.465 142.333C141.163 142.65 140.799 142.902 140.396 143.072C139.993 143.243 139.559 143.33 139.121 143.326H74.0031Z" fill="white"/>
<path d="M101.843 49.4223C98.8731 49.3913 96.0258 48.2319 93.8788 46.1791C91.7318 44.1263 90.4459 41.3339 90.2817 38.368C90.2024 36.9365 90.4174 35.5038 90.9135 34.1587C91.4096 32.8135 92.1762 31.5842 93.1659 30.5469C94.1557 29.5096 95.3476 28.6863 96.6681 28.1277C97.9885 27.5691 99.4095 27.2871 100.843 27.2992C103.813 27.3314 106.66 28.4912 108.806 30.5437C110.953 32.5963 112.24 35.3881 112.405 38.3535C112.486 39.7854 112.272 41.2186 111.776 42.5645C111.28 43.9103 110.514 45.1401 109.524 46.1777C108.534 47.2153 107.341 48.0386 106.02 48.5968C104.699 49.1549 103.277 49.4359 101.843 49.4223ZM100.843 27.6471C99.4566 27.6357 98.0824 27.9087 96.8055 28.4491C95.5285 28.9896 94.3759 29.7861 93.4188 30.7894C92.4616 31.7927 91.7203 32.9815 91.2406 34.2825C90.7609 35.5835 90.5529 36.969 90.6295 38.3535C90.7888 41.2301 92.0361 43.9384 94.1185 45.9293C96.2009 47.9201 98.9625 49.0446 101.843 49.0745C103.23 49.0859 104.604 48.8129 105.881 48.2724C107.158 47.732 108.311 46.9355 109.268 45.9322C110.225 44.9289 110.966 43.74 111.446 42.439C111.926 41.138 112.134 39.7525 112.057 38.368C111.898 35.4915 110.65 32.7832 108.568 30.7923C106.486 28.8014 103.724 27.677 100.843 27.6471Z" fill="#E0E0E0"/>
<path d="M93.5425 45.9603H94.6585C94.5165 46.1168 94.4067 46.2998 94.3354 46.4988C94.2641 46.6977 94.2327 46.9088 94.243 47.1199C94.2676 47.575 94.4646 48.0037 94.794 48.3187C95.1234 48.6337 95.5604 48.8114 96.0162 48.8157C96.236 48.818 96.4539 48.7752 96.6565 48.6898C96.859 48.6044 97.0419 48.4783 97.1936 48.3192C97.3454 48.1602 97.4629 47.9717 97.5388 47.7654C97.6146 47.559 97.6473 47.3393 97.6347 47.1199C97.6083 46.6826 97.4227 46.2701 97.1129 45.9603H106.293C106.008 46.2772 105.86 46.6942 105.882 47.1199C105.906 47.575 106.104 48.0037 106.433 48.3187C106.762 48.6337 107.199 48.8114 107.655 48.8157C107.874 48.8174 108.092 48.774 108.294 48.6883C108.496 48.6026 108.678 48.4764 108.829 48.3174C108.981 48.1585 109.098 47.9702 109.173 47.7642C109.249 47.5582 109.281 47.3389 109.269 47.1199C109.246 46.6826 109.062 46.2693 108.752 45.9603H109.863L109.815 44.8926H93.4941L93.5425 45.9603Z" fill="#E4022C"/>
<path d="M113.988 31.0332H111.819H110.369H90.1934L93.9909 43.2181H109.142L111.582 32.101H114.037L113.988 31.0332Z" fill="#E4022C"/>
<path d="M102.877 115.816H76.9221C76.8794 115.816 76.8383 115.8 76.8076 115.77C76.777 115.74 76.7591 115.7 76.7578 115.657L75.5645 89.7023C75.564 89.6581 75.5794 89.6153 75.608 89.5815C75.6239 89.5659 75.6428 89.5536 75.6635 89.5453C75.6842 89.537 75.7064 89.5329 75.7287 89.5332H101.683C101.725 89.5331 101.766 89.5491 101.796 89.5779C101.827 89.6066 101.845 89.646 101.847 89.6878L103.041 115.642C103.042 115.665 103.038 115.687 103.03 115.708C103.021 115.729 103.009 115.747 102.993 115.763C102.978 115.78 102.96 115.793 102.94 115.802C102.92 115.811 102.899 115.816 102.877 115.816ZM77.0767 115.488H102.683L101.509 89.8811H75.9027L77.0767 115.488Z" fill="#E0E0E0"/>
<path d="M94.4599 93.3751H83.2896C83.2537 93.3743 83.218 93.381 83.1848 93.3948C83.1516 93.4085 83.1215 93.4289 83.0966 93.4547C83.0716 93.4806 83.0523 93.5113 83.0398 93.545C83.0273 93.5787 83.0218 93.6146 83.0238 93.6504L83.0577 94.3848L83.3089 99.8637L83.8452 111.498C83.8452 111.626 83.8961 111.749 83.9867 111.839C84.0773 111.93 84.2002 111.981 84.3283 111.981H88.092C88.151 111.982 88.2096 111.971 88.2643 111.949C88.3191 111.927 88.369 111.894 88.4112 111.853C88.4533 111.811 88.487 111.762 88.5101 111.708C88.5333 111.654 88.5455 111.595 88.5462 111.536L88.7926 99.8685H89.5221L90.8411 111.536C90.8508 111.658 90.906 111.771 90.9956 111.853C91.0852 111.936 91.2025 111.981 91.3243 111.981H95.0928C95.1549 111.981 95.2165 111.968 95.2735 111.944C95.3306 111.919 95.382 111.883 95.4246 111.838C95.4672 111.793 95.5 111.739 95.521 111.68C95.5421 111.622 95.5509 111.56 95.5469 111.498L95.0106 99.8637L94.7594 94.3848L94.7256 93.6504C94.7223 93.5801 94.6935 93.5134 94.6446 93.4627C94.5957 93.412 94.53 93.3808 94.4599 93.3751Z" fill="#E0E0E0"/>
<path d="M133.662 115.816H107.707C107.665 115.816 107.623 115.8 107.593 115.77C107.562 115.74 107.544 115.7 107.543 115.657L106.35 89.7023C106.349 89.6581 106.365 89.6153 106.393 89.5815C106.409 89.5659 106.428 89.5536 106.449 89.5453C106.469 89.537 106.492 89.5329 106.514 89.5332H132.468C132.51 89.5331 132.551 89.5491 132.581 89.5779C132.612 89.6066 132.63 89.646 132.633 89.6878L133.831 115.642C133.832 115.665 133.828 115.687 133.82 115.708C133.811 115.729 133.799 115.747 133.783 115.763C133.768 115.78 133.749 115.794 133.728 115.803C133.707 115.812 133.685 115.817 133.662 115.816ZM107.862 115.488H133.468L132.294 89.8811H106.688L107.862 115.488Z" fill="#E0E0E0"/>
<path d="M126.305 112.303H114.758L113.922 94.0547H125.464L126.305 112.303Z" fill="#E0E0E0"/>
<path d="M111.949 102.833L109.379 97.7507L113.92 94.0547L116.438 97.9778L111.949 102.833Z" fill="#E0E0E0"/>
<path d="M128.241 102.833L130.348 97.7507L125.463 94.0547L123.309 97.9778L128.241 102.833Z" fill="#E0E0E0"/>
<path d="M116.844 94.0547C116.885 94.8196 117.217 95.54 117.771 96.0695C118.324 96.599 119.059 96.8978 119.825 96.9052C120.194 96.9092 120.561 96.8371 120.901 96.6935C121.241 96.5499 121.549 96.3379 121.804 96.0706C122.059 95.8033 122.256 95.4864 122.384 95.1396C122.511 94.7928 122.566 94.4236 122.545 94.0547H116.844Z" fill="#EBEBEB"/>
<path d="M132.246 85.1097H106.292C106.229 85.1097 106.169 85.0856 106.124 85.0424C106.079 84.9992 106.053 84.9402 106.05 84.8778L104.842 58.9475C104.84 58.915 104.845 58.8824 104.855 58.8517C104.866 58.821 104.883 58.7927 104.905 58.7687C104.928 58.7446 104.956 58.7253 104.987 58.712C105.017 58.6988 105.05 58.6917 105.084 58.6914H131.038C131.101 58.6914 131.161 58.7155 131.206 58.7587C131.251 58.8019 131.277 58.8609 131.28 58.9233L132.468 84.8778C132.471 84.9103 132.466 84.9429 132.455 84.9736C132.445 85.0043 132.428 85.0325 132.406 85.0566C132.36 85.092 132.304 85.1108 132.246 85.1097ZM106.524 84.6266H131.995L130.826 59.1504H105.354L106.524 84.6266Z" fill="#E4022C"/>
<path d="M126.981 69.0444L124.164 68.8367L124.227 68.6241C124.277 68.4421 124.285 68.2509 124.25 68.0653C124.214 67.8798 124.137 67.7049 124.022 67.5544C123.908 67.4038 123.761 67.2816 123.592 67.1973C123.423 67.113 123.237 67.0689 123.048 67.0684H120.12C119.93 67.0678 119.744 67.1154 119.578 67.2066C119.411 67.2979 119.271 67.4298 119.17 67.5901C119.068 67.7503 119.009 67.9337 118.998 68.123C118.987 68.3123 119.024 68.5013 119.105 68.6724L119.468 69.4937L119.226 69.5566L118.555 69.7353L117.434 70.0252L116.762 70.1991L115.646 70.489L114.975 70.663L112.201 71.3877C111.051 71.7162 110.085 72.4071 110.143 73.6198C110.179 74.2268 110.443 74.7977 110.882 75.2186C111.321 75.6395 111.903 75.8795 112.511 75.8906H126.101C126.351 75.8938 126.599 75.8452 126.83 75.7479C127.06 75.6506 127.268 75.5066 127.44 75.3251C127.612 75.1435 127.744 74.9284 127.829 74.6931C127.914 74.4578 127.949 74.2075 127.932 73.958L127.744 69.8319C127.73 69.6317 127.646 69.4428 127.506 69.2987C127.367 69.1545 127.18 69.0645 126.981 69.0444Z" fill="#E4022C"/>
<path opacity="0.3" d="M120.966 70.3973L120.304 70.5761L118.555 69.7354L119.231 69.5566L120.966 70.3973Z" fill="white"/>
<path opacity="0.3" d="M119.197 70.8738L118.535 71.0525L116.762 70.1974L117.433 70.0234L119.197 70.8738Z" fill="white"/>
<path opacity="0.3" d="M117.429 71.3551L116.767 71.5338L114.975 70.6642L115.646 70.4902L117.429 71.3551Z" fill="white"/>
<path opacity="0.3" d="M127.903 72.8366L127.952 73.972C127.968 74.2215 127.933 74.4718 127.848 74.7071C127.764 74.9423 127.631 75.1575 127.459 75.339C127.287 75.5206 127.079 75.6645 126.849 75.7619C126.619 75.8592 126.371 75.9078 126.121 75.9045H123.869C123.985 75.0436 124.411 74.2545 125.068 73.6859C125.724 73.1173 126.566 72.8084 127.435 72.8173C127.591 72.8139 127.748 72.8204 127.903 72.8366Z" fill="white"/>
<path d="M101.461 85.0359H75.5061C75.4637 85.0348 75.4233 85.0177 75.3929 84.9882C75.3624 84.9587 75.3442 84.9188 75.3418 84.8765L74.1485 58.922C74.1481 58.8997 74.1522 58.8775 74.1605 58.8568C74.1688 58.836 74.1811 58.8171 74.1968 58.8012C74.2112 58.7846 74.229 58.7713 74.249 58.7621C74.269 58.7529 74.2907 58.7481 74.3127 58.748H100.272C100.314 58.7492 100.355 58.7662 100.385 58.7957C100.416 58.8253 100.434 58.8652 100.436 58.9075L101.625 84.862C101.626 84.884 101.623 84.906 101.615 84.9268C101.608 84.9475 101.596 84.9666 101.581 84.9827C101.55 85.0156 101.506 85.0347 101.461 85.0359ZM75.6655 84.7074H101.272L100.093 59.0766H74.4867L75.6655 84.7074Z" fill="#E0E0E0"/>
<path d="M97.112 67.5864L97.2135 69.7413C97.2282 69.9614 97.1939 70.1821 97.1131 70.3873C97.0323 70.5926 96.907 70.7775 96.7462 70.9286C96.5854 71.0796 96.3932 71.1932 96.1832 71.2611C95.9733 71.329 95.751 71.3495 95.5322 71.3211C95.3447 71.2978 95.1558 71.2865 94.9669 71.2873C94.3634 71.2845 93.7672 71.4183 93.2227 71.6787C92.5343 72.0179 91.9604 72.5516 91.5722 73.2137C91.1841 73.8758 90.9987 74.6373 91.0389 75.4037V75.5052C91.0591 75.9057 90.9671 76.304 90.7732 76.655C90.5888 76.9815 90.3204 77.2526 89.9959 77.4404C89.6713 77.6281 89.3025 77.7256 88.9276 77.7228H87.4105C87.0251 77.719 86.6467 77.6195 86.3093 77.4331C85.972 77.2467 85.6863 76.9793 85.4779 76.655C85.2515 76.3125 85.1213 75.9153 85.1011 75.5052V75.4037C85.0612 74.5682 84.7755 73.7632 84.2798 73.0895C83.8377 72.4826 83.2493 71.9973 82.5694 71.6787C82.0138 71.4209 81.4088 71.2873 80.7963 71.2873C80.6073 71.2863 80.4185 71.2976 80.231 71.3211C80.006 71.3444 79.7786 71.3214 79.5628 71.2534C79.347 71.1855 79.1474 71.0741 78.9763 70.9261C78.8052 70.778 78.6662 70.5966 78.5679 70.3928C78.4696 70.189 78.4141 69.9673 78.4047 69.7413L78.3081 67.5864C78.3021 67.4964 78.3148 67.4061 78.3455 67.3212C78.3762 67.2363 78.4241 67.1587 78.4863 67.0933C78.5486 67.0279 78.6237 66.9761 78.7069 66.9413C78.7902 66.9064 78.8798 66.8892 78.97 66.8907H96.3922C96.5779 66.8941 96.7554 66.9678 96.889 67.0969C97.0226 67.226 97.1023 67.4009 97.112 67.5864Z" fill="#E0E0E0"/>
<path d="M90.7601 76.653C90.5757 76.9794 90.3073 77.2506 89.9828 77.4383C89.6582 77.6261 89.2894 77.7236 88.9145 77.7208H87.3974C87.012 77.717 86.6336 77.6174 86.2962 77.431C85.9589 77.2447 85.6732 76.9773 85.4648 76.653C85.6536 76.1253 86.0022 75.6696 86.4619 75.3493C86.9217 75.0289 87.47 74.8597 88.0303 74.8654C88.6085 74.8718 89.1728 75.0435 89.6565 75.3602C90.1402 75.677 90.5231 76.1256 90.7601 76.653Z" fill="#EBEBEB"/>
<path d="M116.246 137.153H96.3116C95.1825 137.14 94.1004 136.699 93.2842 135.918C92.468 135.138 91.9786 134.077 91.915 132.949L91.6541 127.345C91.6251 126.801 91.7077 126.257 91.8966 125.746C92.0856 125.235 92.3771 124.768 92.7531 124.374C93.1291 123.98 93.5818 123.667 94.0832 123.454C94.5847 123.241 95.1243 123.133 95.669 123.137H115.604C116.733 123.151 117.815 123.593 118.631 124.374C119.447 125.155 119.937 126.217 120 127.345L120.261 132.949C120.29 133.493 120.208 134.037 120.018 134.548C119.829 135.058 119.538 135.525 119.162 135.919C118.786 136.312 118.333 136.625 117.832 136.837C117.33 137.049 116.791 137.157 116.246 137.153Z" fill="#E4022C"/>
<path d="M96.4082 127.158H99.7902C100.268 127.129 100.74 127.279 101.114 127.578C101.266 127.708 101.389 127.867 101.477 128.047C101.564 128.227 101.613 128.422 101.621 128.622C101.643 128.945 101.541 129.265 101.336 129.516C101.169 129.699 100.955 129.834 100.718 129.907C101.089 129.973 101.428 130.157 101.684 130.434C101.905 130.694 102.026 131.024 102.027 131.366C102.046 131.651 101.986 131.935 101.853 132.187C101.725 132.428 101.532 132.628 101.298 132.767C101.085 132.873 100.853 132.936 100.616 132.956C100.348 132.999 100.077 133.026 99.8047 133.038H96.6788L96.4082 127.158ZM98.3408 129.462H99.1331C99.339 129.484 99.546 129.433 99.7177 129.317C99.7726 129.262 99.8142 129.195 99.8393 129.122C99.8644 129.048 99.8724 128.969 99.8627 128.892C99.8635 128.816 99.8475 128.741 99.8158 128.671C99.7841 128.602 99.7374 128.54 99.6791 128.491C99.5061 128.379 99.3001 128.328 99.0945 128.346H98.2925L98.3408 129.462ZM98.4471 131.772H99.3747C99.6062 131.796 99.8387 131.737 100.032 131.608C100.093 131.551 100.14 131.481 100.169 131.403C100.198 131.325 100.209 131.241 100.201 131.158C100.2 131.078 100.181 130.999 100.145 130.927C100.109 130.855 100.057 130.792 99.9931 130.743C99.7908 130.618 99.5535 130.562 99.3167 130.583H98.3939L98.4471 131.772Z" fill="white"/>
<path d="M106.408 127.157H108.224L108.388 130.66C108.403 130.986 108.362 131.313 108.268 131.626C108.173 131.93 108.007 132.206 107.784 132.433C107.588 132.645 107.347 132.81 107.079 132.916C106.672 133.057 106.244 133.124 105.813 133.114C105.5 133.113 105.187 133.092 104.876 133.051C104.577 133.026 104.286 132.945 104.016 132.815C103.772 132.685 103.553 132.513 103.369 132.307C103.185 132.112 103.042 131.882 102.948 131.631C102.833 131.31 102.762 130.975 102.736 130.636L102.576 127.133H104.388L104.552 130.718C104.55 130.999 104.66 131.27 104.857 131.471C104.957 131.564 105.075 131.636 105.204 131.682C105.332 131.729 105.469 131.749 105.605 131.742C105.738 131.75 105.871 131.73 105.996 131.685C106.12 131.639 106.234 131.568 106.33 131.476C106.419 131.373 106.485 131.252 106.525 131.121C106.565 130.991 106.578 130.853 106.562 130.718L106.408 127.157Z" fill="white"/>
<path d="M108.834 127.156H110.849L112.124 129.137L113.221 127.156H115.231L113.1 130.572L113.216 133.036H111.395L111.279 130.572L108.834 127.156Z" fill="white"/>
<path d="M165.433 65.8445C165.916 66.4291 166.278 66.9461 166.665 67.5065C167.051 68.067 167.404 68.6226 167.756 69.1879C168.459 70.3304 169.104 71.5075 169.689 72.7148C169.984 73.3139 170.254 73.9275 170.52 74.5459C170.786 75.1643 171.003 75.7924 171.235 76.435C171.684 77.714 172.047 79.0214 172.322 80.3485V80.4403C172.351 80.5637 172.361 80.6908 172.351 80.8171C172.281 81.8325 172.158 82.8436 171.984 83.8464C171.815 84.8417 171.593 85.8225 171.332 86.7888C171.071 87.7551 170.766 88.7214 170.433 89.6345C170.091 90.5774 169.699 91.5015 169.259 92.4029C169.151 92.6282 168.964 92.8058 168.733 92.9016C168.502 92.9974 168.244 93.0047 168.009 92.9221C167.773 92.8395 167.576 92.6729 167.455 92.454C167.335 92.2352 167.299 91.9796 167.355 91.7362V91.6927C167.549 90.8085 167.747 89.8712 167.897 88.9533C168.046 88.0353 168.206 87.1077 168.312 86.1848C168.418 85.262 168.515 84.3489 168.578 83.4358C168.641 82.5226 168.65 81.6143 168.655 80.7157L168.703 81.1988C168.385 80.0511 168.002 78.9221 167.558 77.8168C167.104 76.7056 166.592 75.6088 166.051 74.5363C165.51 73.4637 164.891 72.4056 164.249 71.3765C163.925 70.8644 163.601 70.3522 163.258 69.8546C162.915 69.357 162.558 68.8448 162.244 68.4052L162.2 68.352C161.868 67.9247 161.72 67.383 161.787 66.8462C161.855 66.3093 162.133 65.8213 162.56 65.4894C162.988 65.1575 163.529 65.009 164.066 65.0765C164.603 65.144 165.091 65.422 165.423 65.8493L165.433 65.8445Z" fill="#FF8B7B"/>
<path d="M167.888 90.7949L165.443 93.9982L169.497 93.8049C169.497 93.8049 170.623 91.5003 169.652 90.1523L167.888 90.7949Z" fill="#FF8B7B"/>
<path d="M165.482 97.3558L168.869 97.0079L169.497 93.8047L165.443 93.9979L165.482 97.3558Z" fill="#FF8B7B"/>
<path d="M158.717 56.3125C158.331 58.6992 158.017 63.0523 159.727 64.5743C158.456 66.7861 156.516 68.5371 154.186 69.5748C150.948 67.7002 152.369 64.811 152.369 64.811C154.988 64.0911 154.852 62.1344 154.33 60.3081L158.717 56.3125Z" fill="#FF8B7B"/>
<path d="M150.157 51.6646C150.113 51.9835 149.905 52.2154 149.673 52.1864C149.441 52.1574 149.335 51.8772 149.379 51.5583C149.422 51.2395 149.63 51.0027 149.838 51.0317C150.045 51.0607 150.205 51.3457 150.157 51.6646Z" fill="#263238"/>
<path d="M149.953 51.0658L149.219 50.7324C149.219 50.7324 149.523 51.3895 149.953 51.0658Z" fill="#263238"/>
<path d="M149.978 52.3867C149.592 53.073 149.112 53.7023 148.553 54.2565C148.699 54.3961 148.873 54.5021 149.064 54.5672C149.255 54.6323 149.458 54.6549 149.659 54.6333L149.978 52.3867Z" fill="#FF5652"/>
<path d="M151.288 50.0788C151.333 50.0955 151.382 50.0955 151.428 50.0788C151.449 50.0663 151.468 50.0496 151.484 50.0297C151.499 50.0097 151.51 49.9869 151.516 49.9626C151.523 49.9383 151.524 49.913 151.52 49.8881C151.517 49.8633 151.508 49.8394 151.495 49.8179C151.349 49.5521 151.141 49.3255 150.889 49.1572C150.637 48.989 150.347 48.8842 150.046 48.8516C149.996 48.8503 149.948 48.8681 149.911 48.9013C149.874 48.9346 149.851 48.9808 149.848 49.0304C149.846 49.0806 149.864 49.1294 149.897 49.1671C149.93 49.2048 149.977 49.2284 150.027 49.2333C150.262 49.2625 150.488 49.3474 150.685 49.4809C150.881 49.6145 151.043 49.793 151.157 50.0015C151.172 50.023 151.191 50.0409 151.214 50.0543C151.236 50.0676 151.262 50.076 151.288 50.0788Z" fill="#263238"/>
<path d="M161.065 51.881C160.268 55.7462 160.012 57.4275 157.751 59.1523C154.345 61.7565 149.75 59.9254 149.373 55.8863C149.03 52.2482 150.392 46.5085 154.446 45.4939C155.339 45.2661 156.276 45.2704 157.166 45.5064C158.057 45.7424 158.873 46.2022 159.536 46.8421C160.199 47.4821 160.688 48.2809 160.956 49.1629C161.223 50.0448 161.261 50.9805 161.065 51.881Z" fill="#FF8B7B"/>
<path d="M150.693 89.5098C150.693 89.5098 149.726 119.581 149.963 131.756C150.234 144.419 150.354 173.997 150.354 173.997H152.567C152.567 173.997 158.65 149.415 157.143 131.756C159.423 118.194 160.969 89.5098 160.969 89.5098H150.693Z" fill="#FF8B7B"/>
<path d="M151.354 89.5098C151.354 89.5098 159.301 119.581 162.335 131.756C165.485 144.419 172.327 173.997 172.327 173.997H174.54C174.54 173.997 175.023 149.415 169.52 131.756C168.723 118.194 163.751 89.5098 163.751 89.5098H151.354Z" fill="#FF8B7B"/>
<path d="M145.952 68.0832C145.968 67.3431 146.24 66.6314 146.724 66.0706C147.207 65.5098 147.87 65.1349 148.6 65.0104C149.89 64.793 151.586 64.5273 153.171 64.392C155.622 64.2131 158.083 64.2131 160.534 64.392C161.5 64.45 162.394 64.5176 163.225 64.6142C163.716 64.6701 164.19 64.8281 164.617 65.0781C165.044 65.328 165.413 65.6645 165.702 66.0658C165.991 66.467 166.193 66.9243 166.295 67.4082C166.396 67.8921 166.396 68.3919 166.293 68.8755C164.012 79.5917 164.302 83.5438 164.549 89.5106C171.226 99.2798 169.525 113.141 170.346 124.978L148.962 132.467C147.842 112.953 148.33 92.4964 149.02 89.5106C146.986 77.002 145.909 70.9821 145.952 68.0832Z" fill="#E4022C"/>
<path opacity="0.2" d="M158.9 117.069L159.867 103.541L163.843 100.99L158.9 117.069Z" fill="#263238"/>
<path d="M164.699 89.8102L148.861 90.9891C148.811 90.9959 148.76 90.992 148.711 90.9778C148.662 90.9636 148.617 90.9393 148.579 90.9065C148.54 90.8737 148.508 90.8331 148.486 90.7874C148.464 90.7417 148.452 90.6919 148.451 90.6412L148.393 89.3222C148.394 89.1888 148.444 89.0604 148.532 88.9609C148.621 88.8614 148.743 88.7975 148.876 88.7811L164.752 87.6023C164.802 87.5962 164.852 87.6006 164.9 87.6151C164.949 87.6297 164.993 87.6541 165.031 87.6868C165.069 87.7196 165.1 87.7599 165.122 87.8052C165.144 87.8505 165.156 87.8999 165.158 87.9501L165.22 89.2691C165.217 89.4083 165.162 89.5411 165.065 89.6413C164.968 89.7415 164.838 89.8018 164.699 89.8102Z" fill="#263238"/>
<path d="M154.553 64.1236L158.312 65.0222L159.089 64.1912L157.853 63.8965L154.553 64.1236Z" fill="#FF8B7B"/>
<path d="M149.804 67.7726C149.804 68.4732 149.804 69.0529 149.804 69.681C149.804 70.3091 149.731 70.9082 149.678 71.517C149.567 72.7393 149.364 73.9327 149.132 75.1502C148.657 77.5811 147.891 79.9462 146.852 82.1944L146.422 83.0593C146.34 83.2139 146.296 83.325 146.185 83.5086C146.074 83.6956 145.953 83.8762 145.823 84.0497C145.278 84.8254 144.494 85.4006 143.59 85.6869C142.687 85.9732 141.714 85.9548 140.822 85.6344C140.134 85.3931 139.484 85.0565 138.889 84.6343C137.853 83.8831 136.912 83.0086 136.087 82.0302C135.677 81.547 135.309 81.0639 134.952 80.5807C134.594 80.0976 134.256 79.6145 133.928 79.0588C133.795 78.8453 133.747 78.5902 133.792 78.3429C133.837 78.0957 133.972 77.8739 134.171 77.7206C134.37 77.5672 134.619 77.4932 134.869 77.5128C135.12 77.5325 135.354 77.6443 135.527 77.8268L135.551 77.851C136.305 78.6385 137.141 79.4309 137.967 80.1411C138.753 80.8384 139.615 81.4446 140.537 81.948C140.912 82.1683 141.317 82.3312 141.74 82.4312C141.974 82.4998 142.225 82.4862 142.45 82.3925C142.626 82.2744 142.771 82.1173 142.875 81.9335L142.982 81.7403C143.016 81.6726 143.078 81.5132 143.122 81.4069L143.426 80.687C144.214 78.6563 144.798 76.5524 145.17 74.4062C145.359 73.3239 145.484 72.2272 145.596 71.1353C145.649 70.5893 145.687 70.0385 145.711 69.4974C145.736 68.9563 145.755 68.3814 145.755 67.9175V67.8402C145.771 67.3148 145.989 66.8158 146.364 66.4469C146.738 66.078 147.241 65.8677 147.766 65.8596C148.292 65.8515 148.8 66.0463 149.186 66.4035C149.572 66.7606 149.805 67.2527 149.838 67.7774L149.804 67.7726Z" fill="#FF8B7B"/>
<path d="M135.918 78.3393L133.425 75.1699L132.604 79.1462C132.604 79.1462 134.536 80.813 136.097 80.2091L135.918 78.3393Z" fill="#FF8B7B"/>
<path d="M130.168 74.3691L129.656 77.7367L132.599 79.1474L133.43 75.1712L130.168 74.3691Z" fill="#FF8B7B"/>
<path d="M152.451 53.2497C153.616 54.6992 148.586 55.8974 150.403 59.9896C152.219 64.0818 147.504 62.4053 150.152 68.0001C152.761 73.5128 162.143 76.402 167.545 74.136C165.453 73.7543 163.776 71.1695 165.54 69.8989C168.067 68.0677 168.695 65.4394 167.332 63.0285C165.97 60.6177 162.626 56.825 164.163 53.873C166.042 50.2639 166.095 47.7226 162.23 44.8962C158.278 41.9973 149.403 39.5816 149.668 44.959C149.934 50.3364 152.451 53.2497 152.451 53.2497Z" fill="#263238"/>
<path d="M162.447 57.2015L157.828 56.7522C157.595 56.7351 157.368 56.666 157.165 56.5499C156.962 56.4338 156.788 56.2737 156.655 56.0814C156.522 55.8891 156.434 55.6694 156.397 55.4385C156.36 55.2077 156.375 54.9714 156.441 54.7472C156.578 54.2493 156.883 53.8139 157.303 53.5146C157.724 53.2153 158.235 53.0704 158.751 53.1045L163.365 53.5586C163.598 53.5758 163.824 53.6449 164.027 53.761C164.23 53.877 164.405 54.0371 164.538 54.2294C164.671 54.4218 164.759 54.6414 164.796 54.8723C164.833 55.1032 164.818 55.3395 164.751 55.5637C164.613 56.0594 164.308 56.4925 163.889 56.7906C163.469 57.0887 162.96 57.2338 162.447 57.2015Z" fill="#E4022C"/>
<path d="M153.64 52.882C153.378 53.6023 152.841 54.1895 152.147 54.515C151.225 54.9354 150.601 54.1478 150.727 53.1961C150.838 52.3361 151.457 51.0799 152.447 51.0606C152.663 51.06 152.876 51.1135 153.067 51.2161C153.257 51.3186 153.419 51.4671 153.537 51.648C153.656 51.8288 153.727 52.0364 153.745 52.2519C153.763 52.4674 153.727 52.684 153.64 52.882Z" fill="#FF8B7B"/>
<path d="M150.204 173.311H152.828C152.898 173.31 152.966 173.334 153.02 173.378C153.075 173.422 153.113 173.484 153.127 173.552L153.634 176.084C153.652 176.16 153.652 176.24 153.634 176.316C153.617 176.393 153.582 176.464 153.533 176.525C153.483 176.586 153.421 176.635 153.35 176.668C153.278 176.701 153.201 176.718 153.122 176.717C151.726 176.693 151.301 176.61 149.547 176.61C148.04 176.61 147.706 176.722 145.295 176.722C143.846 176.722 144.203 175.543 144.812 175.451C146.986 175.132 147.9 174.968 149.494 173.808C149.774 173.625 149.895 173.311 150.204 173.311Z" fill="#263238"/>
<path d="M171.937 173.311H174.56C174.631 173.311 174.699 173.335 174.754 173.379C174.81 173.422 174.848 173.484 174.865 173.552L175.348 176.084C175.365 176.16 175.365 176.239 175.348 176.315C175.331 176.391 175.296 176.462 175.247 176.523C175.199 176.584 175.137 176.633 175.066 176.667C174.996 176.7 174.919 176.717 174.841 176.717C173.439 176.693 173.874 176.717 172.135 176.717H169.627C168.178 176.717 168.54 175.581 169.144 175.446C170.347 175.175 170.652 174.745 171.217 173.803C171.282 173.664 171.383 173.546 171.51 173.459C171.636 173.372 171.784 173.321 171.937 173.311Z" fill="#263238"/>
</svg>
