<svg width="198" height="180" viewBox="0 0 198 180" fill="none" xmlns="http://www.w3.org/2000/svg">
<path d="M67.7744 61.2274C68.5564 66.5225 67.75 71.9305 65.4572 76.7671C63.1644 81.6036 59.4883 85.6513 54.8942 88.3978C50.3001 91.1442 44.9945 92.4661 39.6488 92.196C34.3032 91.9259 29.1578 90.0761 24.8639 86.8805C20.57 83.685 17.3206 79.2874 15.5269 74.2444C13.7333 69.2014 13.4761 63.7397 14.7878 58.5504C16.0995 53.3611 18.9211 48.6776 22.8957 45.0926C26.8702 41.5077 31.8189 39.1824 37.1156 38.411C44.2068 37.3712 51.4207 39.1909 57.1703 43.4698C62.9199 47.7487 66.7343 54.1363 67.7744 61.2274Z" fill="#F5F5F5"/>
<path d="M61.4069 62.1556C62.0019 66.1904 61.3865 70.3111 59.6386 73.9961C57.8907 77.6811 55.0889 80.7647 51.5878 82.8567C48.0867 84.9487 44.0436 85.9551 39.9704 85.7484C35.8971 85.5417 31.9767 84.1313 28.7053 81.6957C25.4339 79.2601 22.9586 75.9087 21.5927 72.0657C20.2268 68.2227 20.0316 64.0609 21.0319 60.107C22.0322 56.153 24.183 52.5847 27.2121 49.8536C30.2412 47.1225 34.0124 45.3514 38.0484 44.7644C40.7241 44.3724 43.4508 44.5112 46.0729 45.173C48.6949 45.8349 51.1608 47.0067 53.3299 48.6217C55.499 50.2366 57.3288 52.2631 58.7146 54.5852C60.1005 56.9074 61.0153 59.4798 61.4069 62.1556Z" fill="#EBEBEB"/>
<path d="M61.3053 61.5169C61.1854 61.5169 60.9677 60.6549 60.4167 59.1442C59.6404 57.0168 58.5403 55.0219 57.1553 53.2301C56.1992 52.0109 55.113 50.8994 53.9161 49.9154C52.5399 48.7987 51.0256 47.8638 49.4106 47.1339C48.5407 46.7354 47.6421 46.4027 46.7224 46.1386C45.7672 45.8557 44.791 45.6492 43.8031 45.521C42.7831 45.3795 41.7535 45.3186 40.7239 45.3388C39.6619 45.3645 38.6031 45.4669 37.5558 45.6454C36.5118 45.839 35.4829 46.1063 34.4766 46.4452C33.5002 46.7826 32.551 47.194 31.6373 47.676C30.755 48.1406 29.9098 48.6724 29.1091 49.2667C28.3373 49.8298 27.6095 50.4507 26.9319 51.124C25.6671 52.3603 24.5679 53.7553 23.6616 55.2741C22.8752 56.6089 22.2374 58.0259 21.7598 59.4997C21.0767 61.6552 20.7305 63.9034 20.7334 66.1646C20.7334 67.7776 20.8356 68.6795 20.7334 68.7018C20.6312 68.724 20.3335 67.8486 20.1425 66.1957C19.8936 63.8421 20.0865 61.4626 20.7112 59.1797C21.1401 57.5928 21.7561 56.0624 22.5463 54.6209C23.4618 52.9604 24.5978 51.4314 25.9232 50.0754C26.6365 49.3368 27.4077 48.6563 28.2293 48.0404C29.0794 47.386 29.9815 46.802 30.9264 46.2941C31.9074 45.7704 32.9281 45.3247 33.979 44.9611C35.0612 44.5811 36.1708 44.284 37.2981 44.0725C38.4274 43.8793 39.5696 43.7708 40.715 43.7481C41.8269 43.7327 42.9383 43.8055 44.0386 43.9658C45.1014 44.1199 46.1503 44.3576 47.1756 44.6768C48.1589 44.972 49.1173 45.345 50.0415 45.792C51.7536 46.6101 53.347 47.6564 54.7781 48.9024C56.0161 49.9837 57.1214 51.2083 58.0706 52.5503C59.4428 54.4798 60.4433 56.6481 61.021 58.9442C61.4075 60.5794 61.4075 61.4947 61.3053 61.5169Z" fill="#E0E0E0"/>
<path d="M45.0774 76.9522L45.6462 80.5069L42.4825 81.0134L41.9271 77.5654C38.7635 77.8764 35.5998 77.3743 33.6403 76.2946L34.7467 72.1579C36.7682 73.1329 39.0078 73.5677 41.2473 73.4198L40.3986 68.1322C36.7506 67.8434 32.6361 67.2969 31.9119 62.7692C31.3742 59.4145 33.3515 56.1442 38.2614 54.7712L37.6971 51.2565L40.8651 50.75L41.4161 54.198C43.7001 53.9601 46.008 54.2645 48.1522 55.0867L47.1924 59.2367C45.5669 58.603 43.8311 58.3009 42.0871 58.3481L42.9491 63.7289C46.5926 63.9911 50.6449 64.542 51.3603 69.0076C51.9023 72.3223 49.9517 75.557 45.0774 76.9522ZM39.6743 63.4668L38.9545 58.9701C37.3372 59.6189 36.8173 60.6453 36.9861 61.6894C37.155 62.7336 38.208 63.2713 39.6743 63.4668ZM46.3393 70.225C46.1616 69.1142 45.1485 68.661 43.7089 68.4033L44.4109 72.7755C45.9394 72.1579 46.5037 71.2381 46.3393 70.225Z" fill="#E0E0E0"/>
<path d="M165.998 36.9064C168.022 40.228 169.015 44.0755 168.852 47.9619C168.688 51.8483 167.376 55.5988 165.08 58.7387C162.784 61.8787 159.608 64.2668 155.954 65.6009C152.3 66.935 148.332 67.155 144.553 66.2331C140.774 65.3112 137.354 63.2889 134.725 60.4221C132.095 57.5553 130.376 53.9729 129.784 50.1285C129.192 46.284 129.753 42.3502 131.398 38.8252C133.043 35.3001 135.696 32.3422 139.022 30.3258C141.226 28.9863 143.671 28.0939 146.219 27.6996C148.767 27.3053 151.368 27.4169 153.873 28.028C156.378 28.6391 158.738 29.7377 160.819 31.2611C162.899 32.7845 164.659 34.7027 165.998 36.9064Z" fill="#F5F5F5"/>
<path d="M162 39.332C163.543 41.8635 164.301 44.796 164.177 47.7584C164.053 50.7208 163.053 53.5799 161.304 55.9736C159.554 58.3674 157.134 60.1882 154.349 61.2056C151.564 62.223 148.539 62.3912 145.659 61.6889C142.778 60.9867 140.171 59.4455 138.166 57.2606C136.162 55.0756 134.851 52.3451 134.399 49.4147C133.948 46.4844 134.376 43.4858 135.629 40.7988C136.883 38.1117 138.905 35.857 141.44 34.3199C144.832 32.2599 148.902 31.6307 152.757 32.5705C156.613 33.5103 159.937 35.9423 162 39.332Z" fill="#EBEBEB"/>
<path d="M161.755 38.932C161.679 38.9853 161.284 38.4566 160.479 37.599C159.359 36.3947 158.058 35.3723 156.623 34.5687C155.637 34.0216 154.594 33.585 153.512 33.2668C152.275 32.9099 150.997 32.7128 149.709 32.6802C149.014 32.6623 148.319 32.695 147.629 32.778C146.91 32.8603 146.199 32.9984 145.501 33.1912C144.777 33.3851 144.07 33.6362 143.386 33.9421C141.974 34.5742 140.67 35.4227 139.52 36.4571C138.963 36.958 138.446 37.5018 137.974 38.0833C137.074 39.1823 136.342 40.4086 135.801 41.7224C135.305 42.9115 134.966 44.1602 134.793 45.437C134.645 46.5521 134.62 47.68 134.717 48.8006C134.87 50.4381 135.277 52.0419 135.921 53.5549C136.366 54.6347 136.703 55.2123 136.628 55.2612C136.552 55.31 136.117 54.8168 135.521 53.7549C134.689 52.2498 134.143 50.603 133.913 48.8983C133.75 47.7203 133.728 46.527 133.846 45.3437C134.068 43.2257 134.728 41.1769 135.784 39.3274C136.177 38.6493 136.622 38.003 137.117 37.3946C137.619 36.7575 138.173 36.163 138.774 35.6173C140.004 34.4898 141.412 33.574 142.942 32.9069C143.682 32.5799 144.447 32.3139 145.23 32.1115C145.983 31.9113 146.752 31.7716 147.527 31.6938C148.265 31.6146 149.008 31.5938 149.749 31.6316C152.327 31.7311 154.836 32.4965 157.031 33.8533C158.496 34.7543 159.78 35.9206 160.817 37.2924C161.541 38.2833 161.826 38.8964 161.755 38.932Z" fill="#E0E0E0"/>
<path d="M155.271 53.8608L156.653 56.0825L154.681 57.3177L153.348 55.1671C151.317 56.2691 149.06 56.8334 147.438 56.6645L147.016 53.5542C148.646 53.6358 150.269 53.2913 151.726 52.5545L149.66 49.2575C147.136 50.0973 144.23 50.9016 142.461 48.0756C141.151 45.9828 141.546 43.2324 144.443 40.9263L143.07 38.7313L145.047 37.4961L146.38 39.6511C147.848 38.8455 149.488 38.4022 151.161 38.3581L151.695 41.4062C150.428 41.4483 149.182 41.7413 148.029 42.2682L150.131 45.6274C152.645 44.7653 155.511 43.9922 157.24 46.7737C158.524 48.8265 158.137 51.5459 155.271 53.8608ZM147.829 46.3872L146.074 43.5834C145.185 44.4721 145.119 45.3074 145.527 45.9606C145.936 46.6138 146.789 46.636 147.829 46.3872ZM154.205 49.0176C153.761 48.3289 152.965 48.3111 151.93 48.5466L153.636 51.2704C154.489 50.4172 154.601 49.6352 154.205 48.9998V49.0176Z" fill="#E0E0E0"/>
<path d="M139.53 18.7093C137.839 19.7818 135.867 20.3284 133.865 20.2798C131.862 20.2312 129.919 19.5896 128.282 18.4363C126.644 17.2829 125.386 15.6696 124.665 13.8006C123.945 11.9316 123.796 9.89091 124.236 7.93689C124.676 5.98287 125.686 4.20335 127.138 2.8236C128.59 1.44384 130.418 0.525885 132.392 0.185926C134.366 -0.154033 136.397 0.0992913 138.226 0.913831C140.056 1.72837 141.603 3.0675 142.672 4.76172C143.381 5.88376 143.863 7.13461 144.089 8.44282C144.315 9.75104 144.282 11.091 143.99 12.3862C143.698 13.6814 143.154 14.9064 142.389 15.9913C141.624 17.0763 140.652 17.9998 139.53 18.7093Z" fill="#F5F5F5"/>
<path d="M138.246 16.6749C136.957 17.4917 135.454 17.9076 133.929 17.8702C132.403 17.8327 130.923 17.3435 129.675 16.4645C128.427 15.5854 127.469 14.356 126.92 12.9319C126.371 11.5077 126.257 9.95283 126.593 8.46396C126.928 6.97509 127.698 5.61916 128.804 4.56776C129.91 3.51636 131.303 2.81675 132.807 2.55746C134.311 2.29817 135.858 2.49085 137.253 3.11113C138.647 3.73141 139.826 4.7514 140.641 6.04203C141.182 6.89736 141.55 7.85095 141.722 8.8483C141.895 9.84566 141.869 10.8672 141.647 11.8547C141.424 12.8421 141.009 13.776 140.426 14.6031C139.842 15.4302 139.102 16.1342 138.246 16.6749Z" fill="#EBEBEB"/>
<path d="M138.446 16.5465C138.424 16.5065 138.69 16.2976 139.126 15.8755C139.735 15.2874 140.249 14.6084 140.65 13.8627C140.922 13.3503 141.137 12.8093 141.29 12.2498C141.463 11.611 141.553 10.9522 141.556 10.2903C141.563 9.93212 141.54 9.57403 141.49 9.21943C141.44 8.84976 141.363 8.48436 141.259 8.12637C141.15 7.75656 141.013 7.3956 140.85 7.04665C140.679 6.68693 140.483 6.33952 140.263 6.00691C140.039 5.67562 139.791 5.36082 139.521 5.06493C139.258 4.78356 138.975 4.52216 138.673 4.28291C138.38 4.05181 138.069 3.84383 137.744 3.66084C137.435 3.48804 137.112 3.33948 136.78 3.21651C136.161 2.97624 135.515 2.81356 134.856 2.73219C134.28 2.66777 133.699 2.66777 133.123 2.73219C132.28 2.82459 131.457 3.04796 130.684 3.39425C130.402 3.5517 130.104 3.67833 129.795 3.77193C130.007 3.52581 130.269 3.32743 130.564 3.18985C131.33 2.74297 132.172 2.44168 133.047 2.30119C133.656 2.20757 134.273 2.18669 134.887 2.23898C135.593 2.29346 136.288 2.44292 136.953 2.68332C137.315 2.81563 137.665 2.97608 138.002 3.16319C138.354 3.35518 138.689 3.57509 139.006 3.8208C139.336 4.07527 139.647 4.35453 139.935 4.65615C140.224 4.97212 140.491 5.30764 140.734 5.66034C140.981 6.02204 141.2 6.40235 141.388 6.79782C141.567 7.17621 141.716 7.5685 141.832 7.97086C141.942 8.35629 142.021 8.75009 142.067 9.14834C142.114 9.5301 142.131 9.91476 142.121 10.2992C142.086 11.6289 141.711 12.9277 141.032 14.0715C140.581 14.833 139.992 15.5036 139.295 16.0488C139.051 16.274 138.762 16.4438 138.446 16.5465Z" fill="#E0E0E0"/>
<path d="M130.723 13.3405L129.594 14.0737L128.945 13.0606L130.038 12.3497C129.485 11.4385 129.2 10.3897 129.216 9.32378L130.803 9.07495C130.777 9.91503 130.968 10.7476 131.358 11.4921L133.015 10.3946C132.571 9.10161 132.127 7.6131 133.557 6.67557C134.624 5.98241 136.041 6.16014 137.259 7.63088L138.374 6.90662L139.027 7.91081L137.934 8.61729C138.361 9.36302 138.606 10.1987 138.65 11.0567L137.085 11.3588C137.047 10.7159 136.884 10.0866 136.606 9.50596L134.895 10.6212C135.361 11.9053 135.784 13.3761 134.371 14.2958C133.322 14.9668 131.922 14.7935 130.723 13.3405ZM134.508 9.43931L135.939 8.51065C135.473 8.06632 135.05 8.03522 134.708 8.25294C134.366 8.47066 134.344 8.90611 134.491 9.43931H134.508ZM133.211 12.7496C133.566 12.5185 133.566 12.1053 133.437 11.5721L132.047 12.4608C132.469 12.9051 132.873 12.9584 133.193 12.7496H133.211Z" fill="#E0E0E0"/>
<path d="M197.461 179.885C197.461 179.952 153.254 180.001 98.7349 180.001C44.2154 180.001 0 179.952 0 179.885C0 179.818 44.1976 179.77 98.7349 179.77C153.272 179.77 197.461 179.823 197.461 179.885Z" fill="#263238"/>
<path d="M26.4206 166.241C26.9227 164.3 25.6474 162.345 24.1989 160.936C22.7504 159.528 21.0619 158.27 20.3199 156.399C19.1158 153.378 20.7331 149.468 18.6803 146.949C17.4717 145.464 15.3034 144.967 14.237 143.394C13.6727 142.563 13.4905 141.541 13.2684 140.563C12.1338 135.542 9.66899 130.917 6.13239 127.176C5.8964 131.645 6.86631 136.096 8.94056 140.061C9.77146 141.643 10.7934 143.172 11.0689 144.949C11.5132 147.819 9.91365 150.779 10.6246 153.596C11.4288 156.822 15.0679 158.981 15.2234 162.3C15.37 165.108 12.9218 167.57 13.1039 170.374C13.253 171.566 13.6807 172.706 14.3525 173.702C16.5297 177.327 19.7067 179.811 24.5277 179.731L30.4462 179.936L26.4206 166.241Z" fill="#E4022C"/>
<g opacity="0.3">
<path d="M26.4206 166.241C26.9227 164.3 25.6474 162.345 24.1989 160.936C22.7504 159.528 21.0619 158.27 20.3199 156.399C19.1158 153.378 20.7331 149.468 18.6803 146.949C17.4717 145.464 15.3034 144.967 14.237 143.394C13.6727 142.563 13.4905 141.541 13.2684 140.563C12.1338 135.542 9.66899 130.917 6.13239 127.176C5.8964 131.645 6.86631 136.096 8.94056 140.061C9.77146 141.643 10.7934 143.172 11.0689 144.949C11.5132 147.819 9.91365 150.779 10.6246 153.596C11.4288 156.822 15.0679 158.981 15.2234 162.3C15.37 165.108 12.9218 167.57 13.1039 170.374C13.253 171.566 13.6807 172.706 14.3525 173.702C16.5297 177.327 19.7067 179.811 24.5277 179.731L30.4462 179.936L26.4206 166.241Z" fill="black"/>
</g>
<path d="M31.6359 179.897C32.1771 179.982 32.729 179.971 33.2666 179.866C33.9204 179.766 34.5632 179.604 35.1861 179.382C36.0452 179.082 36.8486 178.642 37.5633 178.08C37.9921 177.734 38.3281 177.286 38.5408 176.778C38.7208 176.202 38.8137 175.603 38.8163 175C38.8296 174.36 38.8771 173.721 38.9585 173.085C39.0721 172.411 39.3167 171.765 39.6783 171.184C40.3759 169.957 41.5356 168.798 41.8999 167.131C42.2643 165.465 42.0155 163.723 41.74 161.946C41.4645 160.169 41.1979 158.236 41.8777 156.387C42.5576 154.539 43.8106 152.864 44.4593 150.78C45.108 148.696 44.8059 146.403 44.9392 144.168C44.983 143.034 45.2455 141.919 45.7123 140.885C46.1922 139.836 46.8542 138.85 47.3741 137.743C48.4227 135.522 48.6094 132.989 48.8982 130.514C49.0374 129.264 49.1855 128.004 49.3425 126.733C49.4319 125.452 49.6523 124.183 50.0001 122.947C50.3996 121.7 50.8729 120.477 51.4175 119.286C51.6972 118.667 51.926 118.027 52.1018 117.371C52.2023 116.696 52.266 116.017 52.2929 115.336C52.3585 113.968 52.3065 112.598 52.1373 111.239C51.9774 109.875 51.7286 108.52 51.5819 107.151L51.5553 106.916L51.5242 106.645L51.2842 106.765C50.0297 107.404 48.9396 108.324 48.0984 109.453C47.2777 110.557 46.618 111.771 46.1389 113.061C45.1525 115.602 44.8059 118.268 44.2993 120.81C43.7928 123.351 43.1885 125.862 41.8555 127.977C41.2112 129.03 40.4248 129.99 39.7361 131.021C39.004 132.023 38.5032 133.174 38.2698 134.393C37.9187 136.895 39.2962 139.094 39.0118 141.311C38.8756 142.4 38.5074 143.447 37.9321 144.382C37.3944 145.328 36.7635 146.203 36.1547 147.088C35.5428 147.947 35.0104 148.86 34.564 149.816C34.1474 150.754 33.9022 151.759 33.8398 152.784C33.6931 154.779 33.9775 156.672 33.8398 158.458C33.6764 160.159 33.1813 161.812 32.3824 163.323C31.6626 164.776 30.8672 166.096 30.2007 167.371C29.8675 168.011 29.5564 168.633 29.312 169.255C29.0754 169.861 28.9013 170.489 28.7922 171.13C28.6176 172.248 28.6042 173.385 28.7522 174.507C28.9099 176.068 29.4975 177.553 30.4495 178.799C30.5936 178.985 30.7526 179.159 30.925 179.319C31.044 179.442 31.175 179.552 31.316 179.648C31.5337 179.813 31.6537 179.884 31.6537 179.884C31.2293 179.551 30.8446 179.171 30.5073 178.751C29.5938 177.498 29.0379 176.02 28.8988 174.476C28.7682 173.367 28.7936 172.246 28.9744 171.144C29.0883 170.519 29.2639 169.907 29.4987 169.317C29.7519 168.709 30.063 168.087 30.3873 167.456C31.0627 166.194 31.8669 164.883 32.609 163.417C33.435 161.883 33.9485 160.201 34.1197 158.467C34.2752 156.641 34.0042 154.743 34.1553 152.793C34.2187 151.803 34.4595 150.832 34.8662 149.927C35.3072 148.992 35.8338 148.099 36.4391 147.261C37.0345 146.372 37.6744 145.506 38.2164 144.537C38.818 143.565 39.2044 142.476 39.3495 141.342C39.6339 138.979 38.2653 136.766 38.6208 134.442C38.8476 133.275 39.3318 132.173 40.0382 131.216C40.7136 130.203 41.5045 129.243 42.171 128.164C43.504 125.986 44.166 123.44 44.6592 120.885C45.1525 118.33 45.5168 115.691 46.4899 113.198C46.9553 111.944 47.5972 110.762 48.3961 109.688C49.2008 108.605 50.2456 107.723 51.4486 107.111L51.1731 106.96L51.1998 107.2C51.3509 108.582 51.5953 109.941 51.7552 111.288C51.9221 112.626 51.9741 113.976 51.9107 115.322C51.8869 115.984 51.8261 116.644 51.7286 117.3C51.5596 117.932 51.3381 118.548 51.0665 119.144C50.5194 120.349 50.0432 121.584 49.6402 122.845C49.2845 124.101 49.0611 125.39 48.9737 126.693C48.8315 127.969 48.6923 129.231 48.556 130.478C48.2717 132.962 48.085 135.451 47.0764 137.588C46.5743 138.659 45.9123 139.649 45.4191 140.734C44.9372 141.806 44.6672 142.962 44.6237 144.137C44.4948 146.421 44.7925 148.656 44.1794 150.678C43.5662 152.699 42.2776 154.37 41.6245 156.281C40.9713 158.191 41.2157 160.209 41.4956 161.977C41.7755 163.746 42.0688 165.492 41.6867 167.069C41.3045 168.647 40.2204 169.806 39.5094 171.068C39.1376 171.673 38.8884 172.345 38.7763 173.045C38.697 173.688 38.6555 174.335 38.6519 174.983C38.6511 175.565 38.5658 176.144 38.3986 176.702C38.2007 177.187 37.8845 177.615 37.4789 177.946C36.7833 178.506 36.0014 178.948 35.1639 179.257C34.549 179.487 33.9137 179.658 33.2666 179.768C32.8691 179.84 32.4664 179.881 32.0625 179.888C31.7959 179.893 31.6359 179.897 31.6359 179.897Z" fill="#263238"/>
<path d="M50.3518 110.184C50.326 110.242 50.3066 110.303 50.294 110.366C50.2585 110.508 50.2185 110.681 50.1651 110.899C50.0496 111.366 49.9074 112.068 49.6853 112.947C49.4631 113.827 48.9166 114.814 48.4589 116.035C47.9186 117.41 47.4485 118.812 47.0504 120.234C46.606 121.812 46.1973 123.567 45.7796 125.442C45.3619 127.317 44.9176 129.325 43.8867 131.218C43.4024 132.178 42.8559 133.151 42.4204 134.217C41.9944 135.308 41.7092 136.449 41.5718 137.612C41.2731 140.019 40.8459 142.409 40.2921 144.77C39.1057 149.622 37.9771 154.239 36.9463 158.447L34.1426 169.6C33.365 172.754 32.7296 175.318 32.2852 177.122C32.0809 178.011 31.9165 178.677 31.7965 179.175C31.752 179.393 31.7121 179.57 31.681 179.713C31.6633 179.772 31.6543 179.833 31.6543 179.895C31.6825 179.839 31.7048 179.781 31.7209 179.721L31.872 179.193C32.0098 178.699 32.1919 178.02 32.4274 177.162C32.9029 175.358 33.5783 172.808 34.4047 169.662L37.2884 158.531C38.3282 154.323 39.4656 149.707 40.6653 144.855C41.2174 142.483 41.6431 140.083 41.9406 137.665C42.0711 136.537 42.3413 135.43 42.7448 134.369C43.1625 133.333 43.7001 132.365 44.1844 131.392C45.2286 129.463 45.6596 127.393 46.0773 125.526C46.495 123.66 46.8638 121.896 47.2948 120.319C47.7258 118.741 48.1834 117.342 48.6278 116.129C49.0721 114.916 49.5831 113.907 49.8008 112.996C50.0185 112.085 50.1207 111.401 50.214 110.926C50.2496 110.708 50.2807 110.53 50.3073 110.388C50.3301 110.322 50.345 110.253 50.3518 110.184Z" fill="#263238"/>
<path d="M32.6982 179.938C36.5639 177.641 37.6747 170.843 36.0618 166.644C34.4488 162.445 31.6185 158.61 31.1741 154.136C30.8364 150.697 31.965 147.164 31.1741 143.801C30.0988 139.255 25.6689 135.749 25.7222 131.084C25.7488 128.467 27.2373 126.005 27.1218 123.388C26.9752 120.184 24.5136 117.638 22.9895 114.812C20.6524 110.489 20.5013 105.375 19.7015 100.527C18.9017 95.6796 17.0355 90.4853 12.761 88.0859C12.1256 92.2004 11.0415 95.022 11.3836 100.598C11.5036 102.602 13.8319 106.432 14.1473 110.818C14.3384 113.444 14.4673 116.07 14.6272 118.696C14.7827 121.251 14.9471 123.85 15.8669 126.25C16.569 128.085 17.6931 129.746 18.2174 131.639C19.195 135.194 17.9064 139.051 18.6973 142.654C19.3682 145.707 21.4833 148.337 21.9143 151.434C22.523 155.784 19.6926 160.321 21.1456 164.453C21.8609 166.515 23.5583 168.168 24.0382 170.292C24.4114 171.945 24.0026 173.691 24.3403 175.348C24.8868 178.014 29.9789 180.094 32.6982 179.925" fill="#E4022C"/>
<path d="M13.8236 92.1875C13.8166 92.2658 13.8166 92.3447 13.8236 92.423C13.8236 92.5963 13.8769 92.8184 13.9124 93.0984C14.0013 93.6938 14.0991 94.5647 14.299 95.6933C14.499 96.8219 15.1032 98.106 15.5698 99.6478C16.0363 101.19 16.5518 102.958 16.9872 104.94C17.4227 106.922 17.7959 109.121 18.1825 111.48C18.569 113.84 18.9956 116.417 20.1642 118.878C20.7063 120.114 21.315 121.349 21.7727 122.669C22.2187 124.021 22.492 125.424 22.5858 126.845C22.8029 129.864 23.1826 132.869 23.7233 135.847C24.9052 141.948 26.0338 147.756 27.0602 153.048C28.0866 158.34 29.1175 163.058 29.935 167.053C30.7526 171.047 31.4369 174.238 31.9079 176.49C32.1434 177.584 32.33 178.441 32.4633 179.054C32.5255 179.33 32.5788 179.547 32.6188 179.716C32.6316 179.792 32.6525 179.867 32.681 179.938C32.6839 179.861 32.6749 179.783 32.6543 179.707C32.6232 179.539 32.5877 179.316 32.5388 179.036C32.4233 178.423 32.2589 177.561 32.0545 176.459C31.6102 174.202 30.9792 170.976 30.2016 167C29.424 163.023 28.4554 158.251 27.4023 152.976L24.0965 135.785C23.5637 132.817 23.1899 129.822 22.9768 126.814C22.8764 125.364 22.5927 123.932 22.1326 122.553C21.6616 121.22 21.0484 119.967 20.5019 118.741C19.3377 116.319 18.9289 113.786 18.5113 111.431C18.0936 109.077 17.7248 106.873 17.2671 104.886C16.8095 102.9 16.3029 101.123 15.7875 99.5856C15.2721 98.0482 14.6945 96.773 14.4545 95.6666C14.2146 94.5602 14.1079 93.676 14.0102 93.0895C13.9569 92.814 13.9169 92.5918 13.8858 92.4185C13.8756 92.3391 13.8546 92.2614 13.8236 92.1875Z" fill="#263238"/>
<path d="M182.265 153.476C182.866 153.762 183.402 154.166 183.843 154.665C184.283 155.164 184.619 155.746 184.829 156.377C185.24 157.645 185.357 158.99 185.171 160.309C184.882 162.864 183.429 165.437 181.87 167.477C179.719 165.601 179.204 162.331 179.079 160.656C178.848 157.99 180.035 153.08 182.265 153.476Z" fill="#E4022C"/>
<path d="M184.363 171.691C184.22 170.964 184.27 170.211 184.509 169.509C184.749 168.807 185.169 168.181 185.727 167.692C186.296 167.214 186.954 166.853 187.664 166.631C188.373 166.409 189.119 166.33 189.86 166.399C190.203 166.395 190.542 166.466 190.855 166.607C191.168 166.747 191.447 166.954 191.672 167.212C191.841 167.487 191.933 167.801 191.938 168.123C191.944 168.445 191.863 168.763 191.703 169.043C191.377 169.599 190.91 170.059 190.348 170.376C188.487 171.545 186.469 172.336 184.363 171.709" fill="#E4022C"/>
<path d="M181.607 179.502C181.618 179.325 181.643 179.15 181.683 178.978C181.75 178.609 181.838 178.133 181.945 177.56C182.183 175.979 182.677 174.446 183.407 173.024C184.163 171.604 185.284 170.412 186.655 169.571C187.074 169.321 187.521 169.124 187.988 168.985C188.113 168.945 188.241 168.912 188.37 168.887C188.459 168.887 188.508 168.86 188.508 168.887C187.445 169.23 186.461 169.782 185.614 170.511C184.767 171.24 184.074 172.13 183.576 173.13C182.861 174.529 182.357 176.027 182.083 177.574C181.95 178.169 181.843 178.649 181.763 178.978C181.73 179.157 181.677 179.333 181.607 179.502Z" fill="#263238"/>
<path d="M181.689 157.289C181.703 157.365 181.712 157.443 181.715 157.52C181.715 157.689 181.738 157.907 181.755 158.178C181.786 158.746 181.818 159.573 181.853 160.599C181.915 162.643 181.969 165.487 181.955 168.597C181.942 171.708 181.866 174.547 181.782 176.595C181.742 177.617 181.698 178.444 181.662 179.017C181.662 179.283 181.631 179.501 181.618 179.674C181.617 179.751 181.608 179.827 181.591 179.901C181.584 179.824 181.584 179.747 181.591 179.67C181.591 179.501 181.591 179.283 181.591 179.012C181.591 178.417 181.626 177.595 181.649 176.591C181.702 174.547 181.755 171.703 181.769 168.593C181.782 165.483 181.769 162.648 181.72 160.595C181.72 159.591 181.693 158.769 181.68 158.173V157.516C181.676 157.44 181.679 157.364 181.689 157.289Z" fill="#263238"/>
<path d="M180.644 173.228C180.384 171.682 179.76 170.219 178.823 168.962C177.886 167.705 176.662 166.689 175.254 165.999C174.538 165.652 173.596 165.43 173.01 165.964C172.423 166.497 172.566 167.461 172.837 168.185C173.469 169.726 174.544 171.044 175.924 171.976C177.304 172.907 178.929 173.409 180.595 173.419" fill="#E4022C"/>
<path d="M175.6 168.422C175.754 168.472 175.903 168.537 176.044 168.617C176.221 168.699 176.393 168.791 176.559 168.893C176.785 169.019 177.005 169.157 177.217 169.306C177.477 169.481 177.728 169.669 177.968 169.87C178.247 170.098 178.514 170.34 178.768 170.595C179.344 171.186 179.853 171.84 180.283 172.545C180.701 173.258 181.037 174.017 181.283 174.807C181.386 175.152 181.471 175.502 181.536 175.856C181.595 176.164 181.638 176.476 181.665 176.789C181.691 177.045 181.703 177.304 181.7 177.562C181.712 177.756 181.712 177.95 181.7 178.144C181.699 178.311 181.681 178.478 181.647 178.641C181.603 178.641 181.678 177.931 181.554 176.802C181.519 176.494 181.469 176.189 181.403 175.887C181.333 175.54 181.244 175.197 181.136 174.86C180.888 174.085 180.554 173.34 180.141 172.639C179.719 171.944 179.222 171.298 178.661 170.71C178.414 170.456 178.155 170.214 177.883 169.986C177.653 169.78 177.411 169.587 177.159 169.408C176.231 168.751 175.6 168.457 175.6 168.422Z" fill="#263238"/>
<path d="M150.79 82.4718C150.79 82.4718 130.044 67.7689 127.418 66.3248C124.917 64.9474 116.977 63.9477 116.266 63.7744L102.047 60.6641L80.3282 61.3128L74.1076 65.0585L58.3427 72.3366C54.046 74.3159 50.6593 77.8503 48.8651 82.2275L38.9121 106.537L63.6303 113.842L64.399 139.484L58.5738 179.883H130.858L127.219 102.458L134.745 104.115L150.79 82.4718Z" fill="#263238"/>
<path d="M64.0738 103.519C64.0738 103.519 63.8116 103.71 63.3095 104.003C62.6019 104.433 61.8169 104.72 60.999 104.847C59.7741 104.933 58.5451 104.754 57.3955 104.323C55.9778 103.851 54.6041 103.256 53.2898 102.546C51.8813 101.812 50.5616 101.07 49.3264 100.475C48.237 99.931 47.1045 99.4777 45.9406 99.1199C45.1545 98.8835 44.3484 98.7199 43.5323 98.6311C43.2435 98.6 43.0213 98.5866 42.8658 98.5822H42.6348C42.9313 98.5715 43.2283 98.5819 43.5234 98.6133C44.3434 98.6801 45.1547 98.829 45.945 99.0576C47.1155 99.4042 48.2541 99.8501 49.3486 100.391C50.5927 100.986 51.9124 101.724 53.3209 102.461C54.6313 103.167 55.9988 103.762 57.4088 104.239C58.5425 104.667 59.7539 104.85 60.9634 104.776C61.7741 104.657 62.5542 104.383 63.2606 103.967C63.5139 103.825 63.705 103.71 63.8383 103.63C63.9716 103.55 64.0738 103.519 64.0738 103.519Z" fill="white"/>
<path d="M63.015 91.5377H62.8506L62.3796 91.5154C61.9708 91.4932 61.3798 91.4488 60.6511 91.3777C56.8554 90.9955 53.1231 90.1356 49.5428 88.8184C48.8541 88.5651 48.3032 88.3474 47.9255 88.1874L47.4811 88.0008L47.3301 87.9297L47.49 87.983L47.9344 88.1519C48.3165 88.3029 48.8719 88.5118 49.5606 88.7561C53.1504 90.0404 56.8788 90.8979 60.6689 91.311C61.3932 91.391 62.0019 91.4488 62.3885 91.4799L62.8595 91.5199L63.015 91.5377Z" fill="white"/>
<path d="M78.5542 66.3281C78.5542 66.3281 78.3675 66.6303 77.9765 67.1368C77.4189 67.8482 76.7791 68.491 76.0704 69.0519C75.0089 69.8741 73.8528 70.5663 72.6268 71.1136C71.1266 71.7845 69.5809 72.3488 68.0013 72.802C66.3262 73.2997 64.7266 73.7396 63.2914 74.2106C62.0153 74.6145 60.7708 75.112 59.5679 75.6991C58.7573 76.0938 57.9815 76.5561 57.2485 77.0809C56.9819 77.2587 56.8041 77.4231 56.662 77.5253C56.5198 77.6275 56.4531 77.6764 56.4531 77.6764C56.4531 77.6764 56.7153 77.4364 57.2263 77.0498C57.955 76.5142 58.728 76.0415 59.5368 75.6369C60.7405 75.0434 61.9866 74.5399 63.2647 74.1306C64.6999 73.6507 66.3039 73.2108 67.9746 72.7132C69.5504 72.2622 71.093 71.7025 72.5912 71.038C73.8123 70.4946 74.9663 69.8117 76.0304 69.003C76.747 68.454 77.3984 67.8249 77.9721 67.1279C78.1809 66.888 78.3098 66.6836 78.4164 66.5458C78.5231 66.4081 78.5542 66.3281 78.5542 66.3281Z" fill="white"/>
<path d="M123.01 69.6384C123.01 69.6384 122.943 69.6073 122.819 69.5362C122.694 69.4651 122.526 69.3585 122.286 69.2385C121.624 68.8856 120.935 68.5884 120.224 68.3499C119.167 67.9952 118.086 67.7176 116.989 67.519C115.754 67.2835 114.381 67.1013 112.941 66.8969L105.574 65.8527L103.353 65.5239L102.744 65.4306L102.535 65.3906L102.748 65.4128L103.357 65.4884L105.579 65.7861L112.95 66.8036C114.39 67.0036 115.763 67.1902 117.003 67.4301C118.101 67.632 119.182 67.9172 120.237 68.2832C120.951 68.5296 121.641 68.8389 122.299 69.2074C122.77 69.4696 123.01 69.6384 123.01 69.6384Z" fill="white"/>
<path d="M112.949 74.543C112.949 74.543 112.785 74.623 112.469 74.7607C112.154 74.8984 111.683 75.0984 111.074 75.3428C109.852 75.8271 108.07 76.498 105.813 77.1556C103.172 77.9386 100.478 78.5326 97.7529 78.933C94.6737 79.404 91.239 79.404 87.6621 79.284C84.0852 79.164 80.6594 79.0129 77.558 79.2084C74.8106 79.3417 72.0929 79.8377 69.4756 80.6836C67.7124 81.2637 66.0377 82.0846 64.4991 83.123C63.9704 83.5051 63.5571 83.8073 63.2994 84.0383C63.0417 84.2694 62.8906 84.3716 62.8906 84.3716C62.8906 84.3716 63.0239 84.2472 63.2861 84.025C63.5482 83.8028 63.9481 83.4829 64.4813 83.0919C66.0142 82.0386 67.6881 81.2069 69.4534 80.6214C72.0751 79.7654 74.7991 79.2618 77.5536 79.124C80.6639 78.9241 84.0808 79.0752 87.6621 79.1907C91.2434 79.3062 94.6692 79.3151 97.744 78.8485C100.466 78.447 103.157 77.8531 105.795 77.0712C108.048 76.4225 109.834 75.7604 111.061 75.2939C111.674 75.054 112.145 74.8496 112.46 74.7251L112.949 74.543Z" fill="white"/>
<path d="M119.758 78.8882C119.733 78.9059 119.706 78.9194 119.678 78.9282L119.442 79.0126C119.238 79.0881 118.94 79.1859 118.553 79.2925C117.58 79.5703 116.575 79.7197 115.563 79.7369C114.55 79.7378 113.542 79.5881 112.573 79.2925C112.199 79.1814 111.902 79.0792 111.684 78.9993L111.453 78.906L111.373 78.866H111.462L111.697 78.9415C111.902 79.0126 112.199 79.1059 112.586 79.2081C113.554 79.4779 114.554 79.6124 115.559 79.608C116.565 79.579 117.565 79.4299 118.536 79.1637C118.904 79.0615 119.207 78.9771 119.424 78.9104L119.66 78.8438L119.758 78.8882Z" fill="white"/>
<path d="M105.738 91.4648C105.738 91.4648 103.605 91.9092 100.126 92.4335C98.3842 92.6956 96.3047 92.9534 93.9897 93.1844C91.6747 93.4155 89.1021 93.5888 86.4361 93.6909C83.7701 93.7931 81.193 93.7842 78.8825 93.7354C76.5719 93.6865 74.4391 93.5621 72.7062 93.4288C69.196 93.1622 67.041 92.8689 67.041 92.8689L67.432 92.9L68.5606 93.0111C69.5382 93.1133 70.9556 93.2377 72.7107 93.3621C74.4658 93.4866 76.5586 93.5887 78.8825 93.6465C81.2063 93.7043 83.7701 93.6909 86.4361 93.5976C89.1021 93.5043 91.6659 93.3133 93.9897 93.1C96.3136 92.8867 98.3842 92.6201 100.126 92.3668C101.868 92.1136 103.272 91.8914 104.24 91.7181L105.356 91.5226L105.738 91.4648Z" fill="white"/>
<path d="M123.138 90.1985H122.978H122.533C122.129 90.1985 121.547 90.1985 120.827 90.1985C119.387 90.1985 117.397 90.1408 115.211 89.9541C113.025 89.7675 111.047 89.4698 109.634 89.2121C108.923 89.0877 108.355 88.9722 107.959 88.8877L107.515 88.79L107.359 88.75H107.519L107.964 88.83L109.639 89.1277C111.056 89.3676 113.025 89.652 115.211 89.8386C117.397 90.0252 119.387 90.0874 120.823 90.1097H122.529H122.973L123.138 90.1985Z" fill="white"/>
<path d="M100.952 108.517C100.952 108.517 100.824 108.544 100.588 108.575L99.5394 108.722C99.0951 108.788 98.5263 108.864 97.8731 108.908C97.22 108.953 96.4824 109.041 95.6515 109.055C94.8206 109.068 93.9319 109.13 92.9855 109.113C92.5012 109.113 92.0035 109.113 91.4881 109.113L89.9018 109.059C87.7291 108.975 85.3474 108.81 82.8503 108.615C80.3532 108.419 77.9627 108.171 75.8077 108.042C73.6526 107.913 71.6887 107.815 70.0313 107.842H68.8628L67.8186 107.895C67.1698 107.922 66.6055 107.953 66.1523 108.011L65.0993 108.113L64.7305 108.144C64.7305 108.144 64.8593 108.122 65.0993 108.095L66.1479 107.971C66.5922 107.908 67.1654 107.877 67.8186 107.842L68.8628 107.784H70.0313C71.6754 107.753 73.6349 107.833 75.8077 107.966C77.9804 108.1 80.3532 108.322 82.8503 108.531C85.3474 108.739 87.7379 108.913 89.8974 109.006L91.4792 109.064C91.9946 109.064 92.4923 109.064 92.9766 109.064C93.9408 109.064 94.8384 109.042 95.6426 109.019C96.4468 108.997 97.2022 108.922 97.8643 108.882C98.5263 108.842 99.0728 108.775 99.5305 108.713L100.579 108.584L100.952 108.517Z" fill="white"/>
<path d="M127.102 103.3L126.906 103.331L126.338 103.389C125.849 103.442 125.134 103.5 124.254 103.562C122.477 103.682 120.046 103.767 117.349 103.7C114.652 103.633 112.212 103.411 110.457 103.198C109.569 103.091 108.871 102.993 108.382 102.918L107.822 102.829L107.627 102.789L107.822 102.811L108.387 102.882C108.876 102.949 109.586 103.038 110.466 103.136C112.221 103.331 114.652 103.536 117.349 103.607C120.046 103.678 122.485 103.607 124.249 103.496C125.138 103.447 125.845 103.393 126.338 103.353L126.902 103.309L127.102 103.3Z" fill="white"/>
<path d="M127.416 119.446L126.768 119.41C126.323 119.41 125.715 119.322 124.906 119.299C123.289 119.215 120.947 119.197 118.054 119.339C115.162 119.481 111.736 119.824 107.941 120.326C104.147 120.828 99.9878 121.481 95.62 122.032C91.4947 122.588 87.3406 122.904 83.1787 122.978C79.7852 123.036 76.3933 122.791 73.0435 122.245C70.786 121.873 68.5639 121.311 66.4008 120.566C66.0142 120.446 65.6809 120.317 65.3921 120.201L64.6545 119.908C64.2591 119.753 64.0547 119.664 64.0547 119.664L64.6634 119.89L65.401 120.175C65.6898 120.29 66.0275 120.415 66.4141 120.535C68.5791 121.265 70.8009 121.815 73.0568 122.179C76.4033 122.713 79.7903 122.953 83.1787 122.894C87.341 122.81 91.4949 122.487 95.62 121.925C99.9967 121.361 104.156 120.712 107.955 120.224C111.754 119.735 115.171 119.406 118.054 119.259C120.337 119.143 122.623 119.143 124.906 119.259C126.523 119.353 127.416 119.446 127.416 119.446Z" fill="white"/>
<path d="M102.984 136.037C102.984 136.037 100.847 136.402 97.3633 136.775C95.626 136.961 93.5465 137.13 91.236 137.264C88.9255 137.397 86.375 137.459 83.7046 137.446C81.0342 137.432 78.4881 137.308 76.1776 137.157C73.8671 137.006 71.7921 136.793 70.0547 136.579C66.5756 136.135 64.4473 135.762 64.4473 135.762L64.8383 135.811L65.9535 135.975C66.4334 136.051 67.0288 136.135 67.7309 136.219C68.4329 136.304 69.2061 136.424 70.0725 136.513C71.8143 136.717 73.8893 136.913 76.1954 137.072C78.5015 137.232 81.0475 137.326 83.7179 137.352C86.3884 137.379 88.9344 137.295 91.2449 137.179C93.5554 137.064 95.6304 136.89 97.3722 136.708C98.2609 136.628 99.0296 136.526 99.7183 136.45C100.407 136.375 101.002 136.295 101.496 136.228L102.611 136.082L102.984 136.037Z" fill="white"/>
<path d="M127.169 132.855C127.169 132.855 127.084 132.887 126.929 132.931L126.249 133.14C125.653 133.318 124.791 133.562 123.721 133.851C121.583 134.424 118.602 135.135 115.278 135.744C111.955 136.352 108.911 136.748 106.707 136.97C105.605 137.081 104.712 137.157 104.095 137.201L103.384 137.25H103.135L103.379 137.219L104.09 137.152C104.708 137.099 105.601 137.01 106.698 136.89C108.92 136.65 111.937 136.25 115.261 135.641C118.584 135.033 121.561 134.331 123.703 133.771C124.774 133.495 125.636 133.26 126.231 133.091L126.92 132.9L127.169 132.855Z" fill="white"/>
<path d="M86.0327 154.56C84.8876 154.738 83.7336 154.853 82.5758 154.903C81.505 154.96 80.2253 154.965 78.8034 154.903C75.7221 154.755 72.6691 154.244 69.708 153.379C68.3439 152.974 67.1353 152.552 66.1533 152.148C65.0759 151.72 64.0214 151.236 62.9941 150.699L63.2163 150.797L63.8428 151.086C64.1139 151.215 64.4471 151.37 64.8426 151.53C65.238 151.69 65.6735 151.894 66.1755 152.081C67.1709 152.481 68.3972 152.894 69.7302 153.294C71.2104 153.712 72.7113 154.053 74.2268 154.316C75.7446 154.556 77.2736 154.719 78.8079 154.805C80.2253 154.867 81.5005 154.871 82.5714 154.805C83.109 154.805 83.5933 154.747 84.0199 154.72C84.4465 154.694 84.8064 154.654 85.1085 154.623L85.7928 154.552L86.0327 154.56Z" fill="white"/>
<path d="M128.777 153.43L128.333 153.51L127.062 153.714C125.96 153.887 124.36 154.132 122.383 154.412C118.428 154.976 112.95 155.678 106.885 156.282C100.82 156.887 95.3054 157.269 91.3331 157.491C89.338 157.602 87.7207 157.682 86.6054 157.726L85.3213 157.775H84.877L85.3213 157.749L86.6054 157.682L91.3286 157.42C95.3276 157.18 100.82 156.78 106.88 156.18C112.941 155.58 118.433 154.887 122.379 154.341L127.062 153.67L128.333 153.483L128.777 153.43Z" fill="white"/>
<path d="M131.105 169.796C131.105 169.796 130.136 170 128.364 170.289C126.591 170.578 124.022 170.938 120.81 171.204C117.064 171.51 113.303 171.602 109.546 171.48C105.303 171.342 100.66 170.866 95.803 170.271C90.9464 169.676 86.3165 169.076 82.0909 168.747C78.3484 168.424 74.5892 168.34 70.836 168.494C68.3017 168.612 65.7781 168.9 63.2823 169.356C62.3937 169.525 61.7183 169.667 61.2606 169.778L60.5586 169.938C60.5586 169.938 60.7985 169.871 61.2562 169.76C61.7139 169.649 62.3937 169.498 63.2735 169.316C65.7676 168.844 68.2916 168.547 70.8271 168.427C74.5812 168.259 78.3422 168.334 82.0864 168.654C86.3209 168.983 90.9464 169.582 95.803 170.178C100.66 170.773 105.303 171.249 109.542 171.386C113.295 171.514 117.053 171.43 120.797 171.133C123.991 170.875 126.573 170.524 128.35 170.244C129.239 170.102 129.923 169.991 130.39 169.907L131.105 169.796Z" fill="white"/>
<path d="M144.142 78.4961C144.142 78.4961 144.013 78.8471 143.724 79.4603C143.308 80.3223 142.823 81.1499 142.276 81.9352C141.461 83.0962 140.57 84.202 139.61 85.2455C138.535 86.4363 137.299 87.6893 136.055 89.049C134.867 90.3137 133.782 91.6718 132.812 93.1102C132.021 94.2859 131.38 95.5562 130.905 96.8914C130.582 97.8011 130.371 98.7473 130.279 99.7085C130.234 100.042 130.248 100.308 130.234 100.486C130.221 100.664 130.234 100.757 130.234 100.757C130.223 100.406 130.232 100.054 130.261 99.704C130.337 98.7466 130.536 97.8028 130.852 96.8959C131.321 95.5528 131.958 94.2748 132.749 93.0924C133.72 91.6459 134.806 90.2803 135.997 89.009C137.25 87.6538 138.49 86.4008 139.552 85.2144C140.51 84.1752 141.401 83.0754 142.218 81.9219C142.772 81.144 143.263 80.3239 143.689 79.4692C143.849 79.167 143.942 78.9227 144.022 78.7627C144.102 78.6027 144.142 78.4961 144.142 78.4961Z" fill="white"/>
<path d="M123.676 86.1548L123.827 86.0437L124.271 85.7416C124.662 85.4883 125.209 85.0973 125.866 84.5907C126.524 84.0842 127.284 83.4532 128.088 82.7068C128.955 81.8932 129.778 81.0345 130.554 80.1341C131.32 79.2236 132.04 78.2745 132.709 77.2904C133.313 76.3751 133.824 75.513 134.215 74.7977C134.606 74.0823 134.908 73.4647 135.104 73.0203L135.331 72.536L135.415 72.3672C135.081 73.208 134.702 74.0298 134.278 74.8288C133.891 75.5664 133.389 76.4195 132.78 77.3348C132.118 78.327 131.4 79.2809 130.63 80.1919C129.851 81.096 129.024 81.9564 128.15 82.769C127.337 83.511 126.577 84.1464 125.929 84.6441C125.207 85.1896 124.454 85.6939 123.676 86.1548Z" fill="white"/>
<path d="M91.9199 106.928C91.9527 106.907 91.9887 106.89 92.0266 106.88L92.3465 106.755C92.6353 106.657 93.0396 106.48 93.5595 106.24C95.0047 105.512 96.3307 104.568 97.4918 103.44C99.2036 101.759 100.714 99.8852 101.993 97.8552C103.598 95.3917 105.063 92.8402 106.383 90.2127C108.75 85.4213 110.827 80.4922 112.604 75.452C113.301 73.5236 113.843 71.9507 114.225 70.871L114.67 69.6224C114.719 69.4891 114.759 69.3869 114.79 69.298C114.821 69.2092 114.834 69.1914 114.834 69.1914C114.832 69.2307 114.824 69.2696 114.812 69.3069C114.785 69.3958 114.75 69.5024 114.71 69.6357C114.616 69.9423 114.483 70.3644 114.31 70.8976C113.959 71.9907 113.421 73.5636 112.755 75.5054C111.018 80.5709 108.954 85.5179 106.574 90.3149C105.252 92.95 103.779 95.5062 102.162 97.9707C100.864 100.006 99.3311 101.881 97.594 103.556C96.4166 104.683 95.0666 105.615 93.5951 106.315C93.1946 106.501 92.7836 106.662 92.3643 106.8L92.0354 106.902C91.9985 106.917 91.9596 106.925 91.9199 106.928Z" fill="#455A64"/>
<path d="M91.1777 116.33C91.251 116.259 91.3314 116.197 91.4177 116.143L92.1375 115.65C92.7551 115.205 93.6482 114.579 94.7235 113.757C96.8785 112.117 99.7089 109.669 102.748 106.874C104.277 105.479 105.738 104.159 107 102.897C108.129 101.788 109.177 100.6 110.137 99.3428C110.782 98.492 111.355 97.5899 111.852 96.6457C112.039 96.3169 112.155 96.0459 112.243 95.8682C112.286 95.7757 112.335 95.6866 112.39 95.6016C112.368 95.7016 112.334 95.7986 112.288 95.8904C112.208 96.0726 112.106 96.3347 111.928 96.6857C111.459 97.6524 110.902 98.5732 110.262 99.4361C109.319 100.717 108.279 101.923 107.151 103.044C105.89 104.324 104.432 105.648 102.904 107.043C100.327 109.459 97.6294 111.743 94.8213 113.886C93.7326 114.699 92.8262 115.312 92.1864 115.725C91.8709 115.934 91.6176 116.081 91.4488 116.17C91.3621 116.229 91.2716 116.282 91.1777 116.33Z" fill="#455A64"/>
<path d="M79.1816 163.834L79.235 163.731C79.2838 163.66 79.3416 163.567 79.4127 163.452C79.5682 163.203 79.8082 162.847 80.1281 162.394C80.7723 161.505 81.7632 160.23 83.0695 158.746C85.7044 155.787 89.3924 151.757 93.458 147.291L103.904 135.894L107.09 132.455L107.979 131.526L108.21 131.291C108.263 131.238 108.29 131.211 108.294 131.215C108.299 131.22 108.272 131.246 108.228 131.304L108.01 131.557L107.175 132.513C106.419 133.348 105.353 134.539 104.042 135.996L93.6402 147.442L83.1806 158.848C81.8476 160.319 80.8523 161.563 80.1903 162.447C79.857 162.892 79.6082 163.238 79.4394 163.474L79.2483 163.745C79.2308 163.778 79.2083 163.808 79.1816 163.834Z" fill="#455A64"/>
<path d="M120.663 83.9764C120.591 83.7559 120.536 83.5301 120.499 83.3011C120.45 83.0833 120.397 82.8123 120.357 82.4968C120.317 82.1813 120.25 81.8214 120.232 81.4215C120.215 81.0216 120.166 80.5817 120.17 80.0885C120.175 79.5953 120.17 79.111 120.206 78.5778C120.36 76.2752 120.923 74.0184 121.868 71.9128C122.094 71.433 122.312 70.9753 122.543 70.5799C122.774 70.1844 122.987 69.7889 123.214 69.4512C123.44 69.1136 123.658 68.8159 123.827 68.5626C123.983 68.3389 124.15 68.1239 124.329 67.9183C124.464 67.7342 124.613 67.5604 124.773 67.3984C124.659 67.6006 124.526 67.7924 124.378 67.9716C124.245 68.1494 124.08 68.3671 123.911 68.6337C123.743 68.9003 123.525 69.1891 123.329 69.5223C123.134 69.8556 122.885 70.2377 122.685 70.6554C122.485 71.0731 122.241 71.544 122.036 71.9884C121.119 74.0835 120.563 76.3191 120.392 78.6C120.366 79.1243 120.326 79.622 120.335 80.0885C120.343 80.5551 120.335 80.9772 120.37 81.3904C120.406 81.8037 120.432 82.1458 120.463 82.4613C120.495 82.7767 120.53 83.0478 120.566 83.27C120.621 83.5017 120.654 83.7383 120.663 83.9764Z" fill="#455A64"/>
<path d="M127.13 99.9177C127.076 99.9177 126.276 98.1759 125.352 95.972C124.428 93.7681 123.717 91.973 123.77 91.9375C124.429 93.222 125.022 94.5389 125.548 95.8832C126.145 97.1994 126.673 98.5461 127.13 99.9177Z" fill="#455A64"/>
<path d="M63.6283 85.8276C63.5928 85.8499 63.2462 85.2145 62.593 84.2503C60.8866 81.7332 58.6817 79.5933 56.1147 77.963C55.1327 77.3409 54.4884 77.0121 54.5062 76.9766C54.6699 77.0243 54.8278 77.0899 54.9772 77.1721C55.2749 77.3098 55.6926 77.532 56.1991 77.8297C57.5144 78.6146 58.7341 79.5495 59.8338 80.6156C60.931 81.6857 61.9016 82.8785 62.7263 84.1703C63.0374 84.6679 63.2729 85.0812 63.4195 85.3744C63.5044 85.518 63.5743 85.6699 63.6283 85.8276Z" fill="#455A64"/>
<path d="M81.07 75.3255C81.0444 75.1785 81.0444 75.0281 81.07 74.8811C81.1455 74.0461 81.5045 73.2621 82.0875 72.6595L82.1142 72.6328V72.6639C82.1459 72.7259 82.1698 72.7916 82.1853 72.8594C82.1853 72.8594 82.1364 72.8017 82.0742 72.6861H82.1142C81.8261 73.0267 81.5909 73.4086 81.4166 73.8192C81.2318 74.3028 81.1151 74.8097 81.07 75.3255Z" fill="#455A64"/>
<path d="M86.9528 78.3833C86.8965 78.2416 86.865 78.0913 86.8595 77.9389C86.8208 77.575 86.8298 77.2075 86.8862 76.8459C86.9429 76.4846 87.0459 76.1322 87.1928 75.7973C87.2459 75.6561 87.3209 75.5242 87.4149 75.4062C87.2145 75.8746 87.0656 76.3632 86.9706 76.8637C86.9106 77.3681 86.9047 77.8775 86.9528 78.3833Z" fill="#455A64"/>
<path d="M93.3641 77.866C93.3434 77.4516 93.2869 77.0398 93.1953 76.6352C93.0712 76.2369 92.909 75.8515 92.7109 75.4844C92.8 75.5715 92.875 75.6719 92.9331 75.7821C93.0868 76.0405 93.2049 76.3185 93.2841 76.6085C93.3609 76.8986 93.4012 77.1971 93.4041 77.4972C93.4121 77.6215 93.3986 77.7463 93.3641 77.866Z" fill="#455A64"/>
<path d="M98.9707 75.4077C98.7818 75.0128 98.5588 74.6352 98.3042 74.2791C98.0197 73.9467 97.7076 73.639 97.3711 73.3594C97.4918 73.4085 97.6042 73.476 97.7043 73.5593C97.9552 73.7506 98.1807 73.9731 98.3753 74.2214C98.5688 74.4711 98.7301 74.7444 98.8552 75.0345C98.9134 75.1519 98.9524 75.2779 98.9707 75.4077Z" fill="#455A64"/>
<path d="M102.833 71.6003C102.691 71.133 102.425 70.7125 102.065 70.3829C101.69 70.071 101.236 69.8694 100.754 69.8008C100.754 69.8008 100.798 69.8008 100.874 69.8008C100.98 69.8044 101.086 69.8177 101.189 69.8408C101.536 69.9233 101.857 70.0879 102.127 70.3206C102.397 70.5522 102.606 70.8467 102.736 71.1782C102.777 71.2765 102.807 71.3794 102.824 71.4848C102.832 71.5227 102.835 71.5616 102.833 71.6003Z" fill="#455A64"/>
<path d="M104.899 64.568C104.557 64.2947 104.158 64.1032 103.731 64.0081C103.297 63.9418 102.854 63.9783 102.438 64.1148C102.839 63.905 103.299 63.8348 103.744 63.9152C104.19 63.9957 104.596 64.2222 104.899 64.5591V64.568Z" fill="#455A64"/>
<path d="M77.2129 70.586C77.2215 70.4542 77.2531 70.3249 77.3062 70.2039C77.5427 69.6086 77.9904 69.1213 78.5637 68.8353C78.6798 68.7723 78.8061 68.7301 78.9369 68.7109C78.5342 68.8853 78.1727 69.1423 77.8757 69.4653C77.5787 69.7884 77.3529 70.1702 77.2129 70.586Z" fill="#455A64"/>
<path d="M75.8086 65.9005C75.8621 65.7704 75.9372 65.6502 76.0308 65.5451C76.2388 65.274 76.4894 65.0384 76.7728 64.8475C77.0562 64.6527 77.3679 64.5029 77.697 64.4031C77.8298 64.3566 77.9695 64.3326 78.1102 64.332C77.1865 64.5693 76.3734 65.1187 75.8086 65.8872V65.9005Z" fill="#455A64"/>
<path d="M64.7617 93.2066C64.7617 93.2066 64.7617 93.1799 64.735 93.2066C64.7163 93.2523 64.7029 93.3 64.6951 93.3487C64.6728 93.4865 64.6506 93.6864 64.624 93.9486C64.5706 94.4685 64.5129 95.2238 64.4507 96.1703C64.3218 98.0409 64.1752 100.614 64.0374 103.488C63.8997 106.363 63.7931 108.936 63.7309 110.811C63.6998 111.7 63.6775 112.473 63.6598 113.033C63.6598 113.273 63.6598 113.477 63.6331 113.637C63.6397 113.706 63.6397 113.776 63.6331 113.846C63.6134 113.778 63.6059 113.707 63.6109 113.637C63.6109 113.473 63.6109 113.273 63.6109 113.033C63.6109 112.508 63.6109 111.749 63.6109 110.811C63.6109 108.936 63.7086 106.341 63.8508 103.479C63.993 100.618 64.1619 98.032 64.3307 96.1614C64.4151 95.2238 64.4995 94.4685 64.5795 93.9397C64.6195 93.682 64.6595 93.4954 64.6951 93.3443C64.7073 93.2909 64.7283 93.2398 64.7573 93.1932C64.7573 93.1532 64.7706 93.2154 64.7617 93.2066Z" fill="#263238"/>
<path d="M113.72 3.45826C110.014 2.32522 106.166 5.64437 102.345 4.8979C100.034 4.45357 98.2923 2.6007 96.2351 1.45433C93.1647 -0.26079 88.8192 -0.540717 85.6822 1.05443C82.5452 2.64958 80.5146 4.34693 80.0925 7.84381C77.2354 6.20423 72.4722 9.79887 70.8504 13.2691C69.2286 16.7393 69.6329 20.3206 70.5527 24.0397C72.1507 30.4541 74.9918 36.4926 78.915 41.8129C79.2616 42.2839 79.8037 42.8038 80.3413 42.555C80.5071 42.4389 80.6433 42.2856 80.7389 42.1073C80.8346 41.9291 80.8872 41.7308 80.8923 41.5286C81.4388 38.1294 81.0078 34.6592 80.7101 31.229C80.4124 27.7987 80.2658 24.2619 81.3544 21.0094C82.443 17.7568 84.9979 14.7621 88.3748 14.0956C90.872 13.6023 93.4624 14.411 95.6796 15.6596C97.8969 16.9082 99.8475 18.57 101.958 19.9874C104.069 21.4048 106.441 22.6001 108.983 22.7067C111.525 22.8133 114.253 21.6225 115.332 19.3209C116.412 17.0193 115.204 13.749 112.715 13.2202C113.874 13.1187 114.961 12.6166 115.79 11.8003C116.618 10.984 117.137 9.9045 117.256 8.74742C117.374 7.59033 117.086 6.42798 116.441 5.46026C115.796 4.49254 114.833 3.77991 113.72 3.44493V3.45826Z" fill="#263238"/>
<path d="M102.285 63.0665L101.926 55.7217C101.926 55.7217 111.621 53.8643 111.403 44.1113C111.296 39.4058 110.283 29.7238 109.27 20.9749C108.748 16.4345 106.534 12.2577 103.07 9.27666C99.6053 6.29567 95.1449 4.72946 90.5773 4.89015L89.6353 4.92126C79.5179 5.87212 74.6658 14.9987 75.8966 25.0895L78.2294 64.3683C78.4174 67.5449 79.8546 70.5179 82.2273 72.6383C84.5999 74.7587 87.7152 75.8542 90.8928 75.6855C94.0742 75.5154 97.0588 74.0923 99.1938 71.7275C101.329 69.3627 102.44 66.2487 102.285 63.0665Z" fill="#FFBE9D"/>
<path d="M101.94 55.7228C101.94 55.7228 95.7951 56.4381 89.1035 52.5547C89.1035 52.5547 92.356 59.4685 102.051 58.2466L101.94 55.7228Z" fill="#EB996E"/>
<path d="M105.987 27.5732C106.002 27.9353 105.875 28.2889 105.634 28.5593C105.393 28.8296 105.056 28.9955 104.694 29.0217C104.517 29.042 104.339 29.0268 104.168 28.9769C103.997 28.927 103.838 28.8435 103.701 28.7313C103.563 28.6191 103.449 28.4805 103.365 28.3236C103.282 28.1667 103.23 27.9946 103.214 27.8176C103.197 27.4552 103.322 27.1004 103.563 26.829C103.804 26.5575 104.141 26.3909 104.503 26.3646C104.68 26.3437 104.86 26.3587 105.031 26.4085C105.203 26.4584 105.362 26.5421 105.501 26.6549C105.639 26.7676 105.754 26.9069 105.837 27.0647C105.921 27.2225 105.972 27.3954 105.987 27.5732Z" fill="#263238"/>
<path d="M107.342 25.8011C107.173 25.9877 106.094 25.2456 104.596 25.3034C103.099 25.3612 102.028 26.1476 101.859 25.9699C101.775 25.8899 101.939 25.5567 102.406 25.1923C103.037 24.72 103.799 24.4546 104.587 24.4325C105.367 24.4018 106.136 24.6213 106.782 25.059C107.258 25.3923 107.422 25.7166 107.342 25.8011Z" fill="#263238"/>
<path d="M91.272 28.6152C91.288 28.978 91.1619 29.3328 90.9204 29.6041C90.679 29.8754 90.3413 30.0419 89.979 30.0681C89.8024 30.0884 89.6236 30.0732 89.453 30.0233C89.2824 29.9734 89.1234 29.8899 88.9856 29.7777C88.8477 29.6655 88.7337 29.5269 88.6502 29.37C88.5667 29.2131 88.5154 29.041 88.4994 28.864C88.4834 28.5012 88.6095 28.1464 88.851 27.8751C89.0924 27.6038 89.4302 27.4373 89.7924 27.411C89.969 27.3908 90.1479 27.406 90.3185 27.4559C90.4891 27.5058 90.648 27.5893 90.7859 27.7014C90.9237 27.8136 91.0378 27.9523 91.1212 28.1092C91.2047 28.2661 91.256 28.4382 91.272 28.6152Z" fill="#263238"/>
<path d="M92.6273 26.594C92.4629 26.7806 91.3788 26.0386 89.8814 26.0963C88.384 26.1541 87.3131 26.9406 87.1443 26.7628C87.0599 26.6828 87.2243 26.3496 87.6908 25.9852C88.3239 25.5129 89.0874 25.2475 89.8769 25.2254C90.6553 25.195 91.4229 25.4146 92.0675 25.8519C92.5429 26.1896 92.7117 26.5096 92.6273 26.594Z" fill="#263238"/>
<path d="M98.4513 37.5026C98.4513 37.4137 99.3666 37.2226 100.868 36.9783C101.251 36.9249 101.611 36.8361 101.668 36.5695C101.684 36.1733 101.581 35.7816 101.371 35.4453C100.98 34.5344 100.571 33.5747 100.14 32.5749C98.4202 28.4826 97.1628 25.1102 97.3316 25.0213C97.5004 24.9324 99.0201 28.216 100.735 32.3083C101.153 33.3155 101.548 34.2797 101.922 35.2009C102.178 35.6536 102.268 36.1819 102.175 36.6939C102.124 36.8306 102.043 36.9541 101.937 37.0549C101.832 37.1557 101.705 37.2313 101.566 37.276C101.356 37.3409 101.137 37.3782 100.917 37.387C99.4022 37.5603 98.4602 37.6003 98.4513 37.5026Z" fill="#263238"/>
<path d="M94.0795 38.7074C94.3239 38.6807 94.3861 40.3069 95.8169 41.4133C97.2476 42.5197 98.9716 42.2798 98.9938 42.5064C99.0205 42.6086 98.6206 42.8352 97.8875 42.8796C96.9298 42.933 95.9845 42.6431 95.2215 42.0621C94.4998 41.5045 94.0221 40.6892 93.8885 39.7871C93.8041 39.1072 93.9685 38.6985 94.0795 38.7074Z" fill="#263238"/>
<path d="M92.5113 18.9173C92.378 19.326 90.8761 19.1883 89.1255 19.4593C87.3748 19.7304 85.9707 20.2636 85.7263 19.9037C85.6152 19.7304 85.8463 19.3394 86.4062 18.9261C87.1536 18.4142 88.0082 18.08 88.9046 17.9491C89.8011 17.8182 90.7155 17.894 91.5782 18.1708C92.2269 18.3974 92.5646 18.7217 92.5113 18.9173Z" fill="#263238"/>
<path d="M106.641 21.507C106.387 21.8536 105.343 21.5381 104.103 21.5648C102.864 21.5914 101.82 21.8758 101.562 21.5248C101.451 21.3559 101.606 21.0094 102.055 20.6717C102.652 20.2536 103.366 20.0343 104.095 20.0452C104.82 20.0195 105.536 20.2198 106.143 20.6184C106.592 20.9694 106.752 21.3115 106.641 21.507Z" fill="#263238"/>
<path d="M76.9595 32.2803C76.7907 32.2136 70.1924 30.5341 70.6367 37.1679C71.081 43.8018 77.6749 42.0022 77.6749 41.8112C77.6749 41.6201 76.9595 32.2803 76.9595 32.2803Z" fill="#FFBE9D"/>
<path d="M75.4575 39.4451C75.4264 39.4451 75.3464 39.534 75.1554 39.6362C74.891 39.7784 74.5812 39.8103 74.2934 39.725C73.5691 39.5117 72.9026 38.4365 72.7915 37.2368C72.7363 36.668 72.8092 36.0941 73.0048 35.5572C73.0522 35.3443 73.1511 35.1462 73.2929 34.9804C73.4346 34.8147 73.6149 34.6862 73.8179 34.6063C73.9488 34.5617 74.0911 34.5644 74.2202 34.6139C74.3493 34.6635 74.457 34.7567 74.5244 34.8774C74.6266 35.0595 74.5911 35.1928 74.6266 35.2017C74.6621 35.2106 74.7643 35.0818 74.6888 34.8107C74.6403 34.6487 74.5386 34.5078 74.4 34.4108C74.2066 34.2864 73.9724 34.2418 73.7468 34.2864C73.4772 34.3581 73.2305 34.4979 73.0305 34.6924C72.8305 34.887 72.684 35.1297 72.6049 35.3972C72.3612 35.9935 72.2666 36.6402 72.3294 37.2812C72.4627 38.6142 73.2181 39.8272 74.2134 40.0405C74.3953 40.0809 74.584 40.0799 74.7655 40.0376C74.947 39.9953 75.1167 39.9128 75.262 39.7961C75.4575 39.6095 75.4797 39.4584 75.4575 39.4451Z" fill="#EB996E"/>
<path d="M111.261 18.8406C109.122 19.4702 106.864 19.583 104.672 19.1698C102.481 18.7565 100.419 17.8289 98.6557 16.4634C96.2119 14.535 94.2835 11.709 91.2798 10.8959C90.2564 10.6621 89.1968 10.634 88.1624 10.8133C87.1281 10.9925 86.1397 11.3755 85.2547 11.9401C83.4883 13.0779 81.9757 14.5678 80.8113 16.3168C82.8686 21.2044 81.7978 26.7808 80.6958 31.9661C80.6352 32.5548 80.3804 33.1067 79.9716 33.5346C79.2073 34.1655 78.0076 33.7345 77.3056 33.0414C76.1636 31.9261 75.6793 30.3132 75.3461 28.758C74.5207 25.2134 74.4104 21.5397 75.0217 17.9519C75.6472 14.3519 77.3158 11.0147 79.8205 8.35434C83.0816 5.11968 87.4733 3.28077 92.0663 3.22676C96.6353 3.20749 101.094 4.62851 104.81 7.28794C106.534 8.49653 108.133 9.95393 109.066 11.8601" fill="#263238"/>
<path d="M116.598 5.7098C116.626 5.90447 116.613 6.10286 116.558 6.29187C116.417 6.84189 116.106 7.33332 115.67 7.69596C114.969 8.25628 114.109 8.57988 113.212 8.62017C112.662 8.66894 112.107 8.65403 111.56 8.57574C110.931 8.49106 110.336 8.23772 109.84 7.84259C109.561 7.62165 109.336 7.33992 109.182 7.01885C109.028 6.69778 108.949 6.34581 108.951 5.98973C108.987 5.60214 109.13 5.23232 109.366 4.92267C109.602 4.61303 109.92 4.3761 110.284 4.23906C110.662 4.08213 111.071 4.0152 111.48 4.04356C111.904 4.0857 112.307 4.25094 112.639 4.51899C112.973 4.80118 113.242 5.15214 113.427 5.54785C113.613 5.94356 113.711 6.37469 113.715 6.81174C113.731 7.73397 113.384 8.62573 112.75 9.29555C112.103 9.98066 111.286 10.482 110.382 10.7485C108.551 11.3217 106.507 11.0462 104.668 10.3308C102.883 9.59707 101.189 8.65921 99.6204 7.536C98.1745 6.51061 96.645 5.60841 95.0482 4.83891C93.6092 4.15201 92.0251 3.82421 90.4316 3.8836C89.05 3.9842 87.7074 4.38772 86.4993 5.06552C84.7378 6.0685 83.263 7.50657 82.2159 9.24224C81.9194 9.70269 81.648 10.1788 81.4028 10.6685C81.3274 10.8462 81.2398 11.0184 81.1406 11.184C81.1487 11.1347 81.1637 11.0869 81.1851 11.0418C81.2162 10.9529 81.265 10.8152 81.3406 10.6419C81.5559 10.1303 81.8068 9.63435 82.0915 9.15781C83.1103 7.36743 84.5851 5.87881 86.366 4.84335C87.607 4.13737 88.9898 3.71691 90.4138 3.61256C92.0549 3.53593 93.6899 3.86079 95.1771 4.55898C96.7977 5.33554 98.3495 6.24821 99.8159 7.28718C101.364 8.39173 103.032 9.3174 104.788 10.0465C106.587 10.7396 108.551 11.0062 110.293 10.4641C111.141 10.1992 111.904 9.71659 112.506 9.0645C113.08 8.46755 113.398 7.67073 113.395 6.84285C113.395 6.44892 113.31 6.0596 113.146 5.70148C112.982 5.34337 112.742 5.02489 112.444 4.76782C112.155 4.53957 111.809 4.3952 111.444 4.35052C111.079 4.30585 110.708 4.3626 110.373 4.51455C110.051 4.62768 109.767 4.82944 109.554 5.09665C109.341 5.36387 109.207 5.68572 109.169 6.02528C109.169 6.34411 109.24 6.6589 109.378 6.94648C109.516 7.23407 109.716 7.48714 109.964 7.68708C110.429 8.05808 110.984 8.29883 111.573 8.38468C112.105 8.46772 112.644 8.49008 113.181 8.45133C114.063 8.43196 114.915 8.13324 115.616 7.59821C116.038 7.25172 116.347 6.78777 116.505 6.26521C116.548 6.08224 116.579 5.89673 116.598 5.7098Z" fill="#455A64"/>
<path d="M69.8496 19.052C70.5187 19.2632 71.2059 19.4119 71.9024 19.4963C72.6561 19.5369 73.4105 19.4313 74.1241 19.1853C75.0008 18.8741 75.8283 18.4386 76.5812 17.8923C77.9417 16.8771 78.9351 15.447 79.4116 13.8178C79.5783 13.1331 79.7015 12.4385 79.7804 11.7383C79.8288 11.9268 79.8468 12.1218 79.8337 12.3159C79.8321 12.8435 79.765 13.3689 79.6338 13.88C79.2082 15.5975 78.1961 17.1125 76.7723 18.1633C75.994 18.7359 75.1323 19.1854 74.2174 19.4963C73.4633 19.7445 72.6654 19.8308 71.8758 19.7496C71.3489 19.6892 70.8339 19.5514 70.3473 19.3408C70.1656 19.2747 69.9971 19.1769 69.8496 19.052Z" fill="#455A64"/>
<path d="M70.3203 23.8633C70.3203 23.8011 71.1112 23.9477 72.3687 23.8322C74.0031 23.6929 75.5701 23.1171 76.9059 22.1651C78.2417 21.2131 79.2973 19.9197 79.9623 18.4202C80.4822 17.2694 80.5977 16.4829 80.6599 16.4963C80.672 16.6831 80.654 16.8706 80.6066 17.0517C80.5089 17.5515 80.36 18.0398 80.1623 18.5091C79.5361 20.0849 78.4695 21.4471 77.0898 22.4328C75.7101 23.4185 74.0757 23.9861 72.382 24.0677C71.8744 24.0939 71.3654 24.0701 70.8624 23.9966C70.6758 23.981 70.4929 23.936 70.3203 23.8633Z" fill="#455A64"/>
<path d="M87.8711 33.141C87.8489 33.1455 87.826 33.1455 87.8038 33.1409C87.7816 33.1364 87.7606 33.1274 87.7419 33.1145C87.7233 33.1017 87.7074 33.0852 87.6952 33.0661C87.6831 33.047 87.6749 33.0256 87.6712 33.0033C87.6637 32.9817 87.6608 32.9588 87.6627 32.9361C87.6645 32.9134 87.6711 32.8913 87.682 32.8712C87.6928 32.8511 87.7077 32.8336 87.7258 32.8196C87.7438 32.8056 87.7645 32.7955 87.7867 32.79C87.8305 32.7856 87.8745 32.7972 87.9104 32.8226C87.9464 32.8481 87.9719 32.8858 87.9822 32.9286C87.9925 32.9715 87.9869 33.0166 87.9665 33.0557C87.946 33.0947 87.9122 33.125 87.8711 33.141Z" fill="#EB996E"/>
<path d="M90.7333 32.3893C90.6853 32.389 90.6389 32.3725 90.6014 32.3425C90.564 32.3125 90.5377 32.2708 90.5269 32.224C90.5162 32.1773 90.5214 32.1283 90.542 32.0849C90.5625 32.0415 90.597 32.0063 90.64 31.985C90.6891 31.981 90.7379 31.9958 90.7766 32.0263C90.8154 32.0567 90.8411 32.1007 90.8488 32.1494C90.8646 32.1966 90.8613 32.248 90.8398 32.2928C90.8182 32.3376 90.78 32.3723 90.7333 32.3893Z" fill="#EB996E"/>
<path d="M92.6392 32.2726C92.5459 32.2726 92.457 32.1793 92.4304 32.0327C92.4037 31.886 92.4615 31.7527 92.5503 31.7394C92.6392 31.7261 92.7325 31.8327 92.7592 31.9793C92.7858 32.126 92.7281 32.2593 92.6392 32.2726Z" fill="#EB996E"/>
<path d="M89.3427 34.8846C89.2538 34.8846 89.1738 34.8446 89.1738 34.7869C89.1738 34.7291 89.2449 34.6758 89.3338 34.6758C89.4227 34.6758 89.5026 34.7158 89.5026 34.7735C89.5026 34.8313 89.436 34.8802 89.3427 34.8846Z" fill="#EB996E"/>
<path d="M91.9458 34.1819C91.8993 34.1843 91.8538 34.1685 91.8189 34.1378C91.784 34.107 91.7626 34.0639 91.7592 34.0175C91.7547 33.9944 91.7548 33.9707 91.7595 33.9477C91.7642 33.9247 91.7735 33.9028 91.7867 33.8834C91.7999 33.864 91.8168 33.8474 91.8365 33.8346C91.8562 33.8217 91.8782 33.8129 91.9013 33.8087C91.9482 33.8074 91.9937 33.8242 92.0285 33.8557C92.0632 33.8871 92.0845 33.9308 92.088 33.9775C92.0958 34.0234 92.0852 34.0705 92.0586 34.1088C92.032 34.147 91.9915 34.1732 91.9458 34.1819Z" fill="#EB996E"/>
<path d="M105.551 32.0723C105.529 32.0768 105.505 32.0766 105.482 32.0719C105.46 32.0671 105.438 32.0578 105.419 32.0445C105.4 32.0313 105.384 32.0143 105.371 31.9946C105.359 31.975 105.351 31.9531 105.347 31.9301C105.34 31.9083 105.337 31.8851 105.338 31.8621C105.34 31.8391 105.347 31.8166 105.358 31.7962C105.368 31.7758 105.383 31.7579 105.401 31.7434C105.419 31.729 105.44 31.7185 105.463 31.7124C105.508 31.7067 105.554 31.7178 105.592 31.7437C105.629 31.7696 105.656 31.8084 105.667 31.8528C105.678 31.8972 105.672 31.9441 105.651 31.9846C105.63 32.0251 105.594 32.0563 105.551 32.0723Z" fill="#EB996E"/>
<path d="M107.493 31.8273C107.445 31.823 107.399 31.8024 107.364 31.7687C107.329 31.735 107.307 31.6903 107.301 31.6421C107.294 31.5939 107.305 31.545 107.33 31.5035C107.356 31.462 107.394 31.4305 107.44 31.4141C107.529 31.4141 107.613 31.4852 107.631 31.5962C107.642 31.6451 107.634 31.6962 107.608 31.7392C107.583 31.7822 107.542 31.8137 107.493 31.8273Z" fill="#EB996E"/>
<path d="M103.829 32.1715C103.801 32.1742 103.772 32.1688 103.747 32.1558C103.722 32.1429 103.701 32.123 103.687 32.0985C103.673 32.074 103.667 32.0459 103.668 32.0177C103.67 31.9895 103.679 31.9623 103.696 31.9395C103.712 31.9166 103.735 31.899 103.762 31.8888C103.788 31.8786 103.817 31.8762 103.844 31.882C103.872 31.8877 103.897 31.9013 103.918 31.9211C103.938 31.9409 103.952 31.9662 103.958 31.9937C103.963 32.0342 103.953 32.0752 103.929 32.1082C103.905 32.1412 103.869 32.1639 103.829 32.1715Z" fill="#EB996E"/>
<path d="M105.343 34.0869C105.299 34.102 105.25 34.0998 105.208 34.0809C105.165 34.0619 105.131 34.0276 105.112 33.9847C105.1 33.9644 105.092 33.9418 105.089 33.9185C105.086 33.8951 105.088 33.8713 105.094 33.8486C105.1 33.8258 105.111 33.8046 105.126 33.786C105.14 33.7674 105.158 33.7519 105.179 33.7403C105.223 33.7292 105.269 33.7337 105.31 33.753C105.351 33.7723 105.384 33.8052 105.403 33.8461C105.423 33.887 105.427 33.9334 105.416 33.9773C105.405 34.0212 105.379 34.06 105.343 34.0869Z" fill="#EB996E"/>
<path d="M106.996 33.6888C106.976 33.6861 106.957 33.6794 106.94 33.6692C106.922 33.659 106.907 33.6454 106.895 33.6293C106.883 33.6131 106.874 33.5947 106.87 33.5752C106.865 33.5557 106.864 33.5354 106.867 33.5155C106.881 33.4776 106.909 33.4466 106.946 33.4292C106.982 33.4118 107.024 33.4093 107.063 33.4222C107.102 33.4277 107.138 33.4486 107.162 33.4802C107.186 33.5118 107.197 33.5516 107.191 33.5911C107.178 33.6298 107.15 33.6618 107.114 33.6801C107.077 33.6984 107.035 33.7015 106.996 33.6888Z" fill="#EB996E"/>
<path d="M103.699 144.426L103.593 134.548C103.593 134.548 97.0031 125.417 99.5936 115.513C99.5936 115.513 103.89 112.492 115.412 114.26C115.412 114.26 129.875 100.17 149.261 103.756C168.647 107.342 170.451 124.231 170.638 128.83C170.824 133.429 170.78 142.36 164.106 151.091L163.662 159.755C163.662 159.755 162.071 163.017 157.472 162.795C152.873 162.572 153.131 161.906 153.131 161.906C153.131 161.906 147.355 166.567 147.106 167.784C146.857 169.002 145.951 173.618 145.951 173.618C145.951 173.618 143.947 176.342 139.623 176.662C137.913 176.783 136.203 176.433 134.678 175.649C134.1 175.356 133.585 174.951 133.165 174.458C132.745 173.964 132.427 173.392 132.23 172.774C131.817 171.406 131.119 170.142 130.182 169.063C129.246 167.984 128.092 167.115 126.796 166.514L123.81 165.732C123.81 165.732 122.606 166.829 118.415 167.278C114.225 167.727 114.208 166.243 114.208 166.243C114.208 166.243 107.689 167.749 102.793 161.355C98.9271 156.298 96.8254 147.203 103.699 144.426Z" fill="#E4022C"/>
<path d="M143.885 144.995C143.951 144.89 144.023 144.789 144.103 144.693C144.25 144.498 144.467 144.213 144.738 143.84C145.285 143.098 146.049 142.001 146.893 140.583C147.876 138.921 148.729 137.186 149.444 135.393C149.848 134.38 150.226 133.301 150.559 132.168C150.892 131.034 151.172 129.808 150.879 128.613C150.526 127.454 149.769 126.461 148.746 125.814C147.803 125.181 146.793 124.655 145.734 124.245C143.94 123.537 142.055 123.088 140.135 122.912C138.841 122.789 137.537 122.789 136.243 122.912C135.798 122.952 135.43 122.997 135.185 123.032C135.064 123.057 134.94 123.071 134.816 123.072C134.935 123.034 135.057 123.006 135.181 122.988C135.416 122.939 135.772 122.877 136.234 122.823C137.532 122.662 138.844 122.636 140.148 122.748C142.096 122.894 144.012 123.33 145.831 124.041C146.908 124.45 147.935 124.979 148.893 125.618C149.963 126.295 150.752 127.337 151.114 128.551C151.426 129.826 151.114 131.097 150.79 132.23C150.466 133.363 150.066 134.451 149.653 135.473C148.926 137.272 148.056 139.009 147.049 140.668C146.369 141.784 145.627 142.86 144.827 143.893C144.543 144.262 144.312 144.538 144.156 144.72C144.075 144.82 143.984 144.913 143.885 144.995Z" fill="#263238"/>
<path d="M116.781 114.691C116.815 114.763 116.837 114.84 116.848 114.918C116.891 115.145 116.901 115.377 116.879 115.607C116.767 116.457 116.376 117.246 115.768 117.851C115.044 118.65 113.942 119.304 112.866 120.183C111.688 121.131 110.601 122.185 109.618 123.334C107.829 125.421 106.386 127.783 105.344 130.327C104.944 131.305 104.682 132.105 104.504 132.682C104.428 132.945 104.362 133.162 104.308 133.336C104.29 133.412 104.264 133.487 104.229 133.558C104.229 133.478 104.241 133.399 104.264 133.322C104.309 133.144 104.357 132.927 104.42 132.656C104.631 131.846 104.889 131.049 105.193 130.27C106.197 127.683 107.635 125.286 109.445 123.183C110.437 122.025 111.538 120.965 112.733 120.019C113.831 119.13 114.932 118.504 115.652 117.74C116.249 117.164 116.647 116.414 116.79 115.598C116.819 115.296 116.816 114.992 116.781 114.691Z" fill="#263238"/>
<g opacity="0.5">
<path d="M124.529 115.901L130.426 117.407C130.426 117.407 139.059 107.707 148.541 105.25L144.986 104.41C137.194 106.167 130.084 110.161 124.529 115.901Z" fill="black"/>
</g>
<path d="M146.617 104.784C138.863 106.528 131.808 110.551 126.36 116.337L124.529 115.893C124.529 115.893 132.892 106.717 144.991 104.402L146.617 104.784Z" fill="#E4022C"/>
<g opacity="0.7">
<path d="M146.617 104.781C138.863 106.524 131.808 110.547 126.36 116.333L124.529 115.889C124.529 115.889 132.892 106.713 144.991 104.398L146.617 104.781Z" fill="black"/>
</g>
<path d="M100.852 146.44C104.117 141.766 112.311 143.196 116.048 147.4C119.785 151.603 121.442 157.388 119.011 162.374C117.972 164.502 115.981 166.373 113.613 166.328C114.794 165.003 115.641 163.413 116.082 161.693C116.522 159.973 116.544 158.172 116.145 156.442C115.386 152.954 113.186 149.875 110.405 147.635C108.996 146.498 107.41 145.249 105.606 145.071C103.802 144.894 102.358 144.84 100.852 146.44Z" fill="#E4022C"/>
<g opacity="0.3">
<path d="M100.852 146.44C104.117 141.766 112.311 143.196 116.048 147.4C119.785 151.603 121.442 157.388 119.011 162.374C117.972 164.502 115.981 166.373 113.613 166.328C114.794 165.003 115.641 163.413 116.082 161.693C116.522 159.973 116.544 158.172 116.145 156.442C115.386 152.954 113.186 149.875 110.405 147.635C108.996 146.498 107.41 145.249 105.606 145.071C103.802 144.894 102.358 144.84 100.852 146.44Z" fill="black"/>
</g>
<g opacity="0.3">
<path d="M144.214 144.719C144.152 145.71 145.058 146.586 146.04 146.701C146.536 146.731 147.032 146.643 147.487 146.443C147.942 146.244 148.343 145.939 148.658 145.555C149.276 144.778 149.73 143.883 149.991 142.924C151.012 139.721 151.541 134.926 151.004 131.625C149.591 135.922 147.067 141.28 144.139 144.728" fill="black"/>
</g>
<g opacity="0.3">
<path d="M147.31 129.946C146.675 128.067 144.729 126.969 142.867 126.321C140.958 125.654 138.964 125.262 136.944 125.156C136.309 125.087 135.666 125.149 135.056 125.339C134.753 125.437 134.48 125.611 134.263 125.845C134.046 126.078 133.893 126.362 133.816 126.672C133.776 126.925 133.815 127.185 133.928 127.416C134.041 127.646 134.222 127.836 134.447 127.96C137.667 131.687 140.069 136.048 141.499 140.761C141.559 140.969 141.675 141.156 141.833 141.303C141.991 141.45 142.186 141.552 142.397 141.597C142.608 141.643 142.828 141.63 143.033 141.561C143.237 141.492 143.42 141.37 143.56 141.206C145.071 139.482 145.942 137.158 146.724 134.954C147.284 133.337 147.861 131.568 147.31 129.946Z" fill="black"/>
</g>
<g opacity="0.3">
<path d="M104.827 130.813C102.808 127.671 101.768 123.999 101.842 120.264C101.842 119.478 101.957 118.625 102.504 118.065C103.166 117.385 104.241 117.372 105.17 117.434C107.787 117.597 110.388 117.963 112.95 118.527C113.15 118.571 113.394 118.638 113.456 118.829C113.527 118.976 113.548 119.142 113.516 119.302C113.485 119.462 113.403 119.608 113.283 119.718C109.306 122.157 106.485 126.645 104.983 131.035" fill="black"/>
</g>
<path d="M99.8742 115.867C99.8826 116.091 99.8722 116.316 99.8431 116.538C99.8075 116.982 99.7675 117.591 99.7409 118.36C99.606 121.469 99.9965 124.578 100.896 127.558C101.198 128.531 101.514 129.388 101.816 130.099C102.118 130.81 102.38 131.374 102.571 131.756C102.684 131.951 102.776 132.156 102.847 132.37C102.712 132.191 102.593 132 102.491 131.801C102.274 131.428 101.989 130.868 101.669 130.161C101.294 129.335 100.968 128.488 100.692 127.624C100.363 126.561 100.099 125.48 99.9008 124.385C99.5654 122.4 99.4566 120.383 99.5765 118.373C99.6253 117.605 99.6875 116.978 99.7542 116.551C99.7721 116.32 99.8123 116.091 99.8742 115.867Z" fill="#FAFAFA"/>
<path d="M144.644 104.091C144.571 104.127 144.493 104.156 144.413 104.175L143.747 104.371C143.453 104.451 143.098 104.548 142.689 104.682C142.28 104.815 141.801 104.944 141.307 105.126C140.281 105.468 139.086 105.926 137.775 106.486C136.464 107.046 135.056 107.739 133.62 108.539C132.185 109.338 130.87 110.196 129.701 111.009C128.533 111.822 127.524 112.622 126.702 113.32C126.28 113.653 125.92 113.986 125.596 114.266C125.271 114.546 125 114.795 124.783 115.004L124.267 115.47C124.147 115.577 124.081 115.63 124.076 115.621C124.123 115.555 124.176 115.494 124.236 115.439L124.72 114.937C124.929 114.719 125.191 114.461 125.511 114.173C125.831 113.884 126.178 113.542 126.596 113.195C127.409 112.48 128.417 111.676 129.577 110.836C130.845 109.938 132.157 109.104 133.509 108.339C134.867 107.585 136.263 106.901 137.69 106.29C139.023 105.739 140.223 105.295 141.245 104.957C141.761 104.784 142.232 104.664 142.645 104.544C143.058 104.424 143.418 104.335 143.716 104.269L144.391 104.117C144.474 104.096 144.559 104.087 144.644 104.091Z" fill="#FAFAFA"/>
<path d="M149.829 127.567C149.793 127.607 149.122 126.923 147.834 126.101C147.078 125.624 146.285 125.209 145.461 124.861C144.456 124.441 143.415 124.112 142.351 123.879C140.406 123.452 138.406 123.331 136.423 123.519C134.904 123.675 133.984 123.928 133.971 123.879C134.18 123.801 134.396 123.738 134.615 123.693C135.199 123.541 135.793 123.43 136.392 123.359C138.394 123.117 140.422 123.217 142.391 123.653C143.472 123.89 144.528 124.229 145.546 124.666C146.376 125.026 147.172 125.462 147.923 125.968L148.367 126.274L148.754 126.581C148.964 126.737 149.163 126.907 149.349 127.092C149.521 127.237 149.682 127.396 149.829 127.567Z" fill="#FAFAFA"/>
<path d="M110.084 165.607C110.01 165.598 109.938 165.579 109.87 165.549C109.67 165.488 109.473 165.417 109.279 165.336C108.56 165.052 107.866 164.707 107.204 164.305C104.999 162.986 103.163 161.13 101.867 158.91C100.572 156.691 99.858 154.18 99.7928 151.611C99.7669 150.839 99.807 150.066 99.9128 149.3C99.9439 149.029 99.9927 148.82 100.015 148.678C100.027 148.606 100.045 148.534 100.068 148.465C100.065 148.747 100.042 149.029 100.002 149.309C99.9309 150.073 99.9146 150.84 99.9528 151.606C100.063 154.138 100.789 156.606 102.067 158.794C103.345 160.983 105.137 162.827 107.289 164.168C107.939 164.575 108.616 164.939 109.315 165.256C109.808 165.469 110.088 165.589 110.084 165.607Z" fill="#FAFAFA"/>
<g opacity="0.2">
<path d="M111.249 155.346C110.903 155.229 110.531 155.214 110.177 155.305C109.824 155.396 109.504 155.588 109.258 155.857C109.018 156.132 108.843 156.457 108.745 156.809C108.647 157.16 108.63 157.529 108.694 157.888C108.761 158.583 109.06 159.236 109.543 159.741C109.943 160.129 110.457 160.379 111.009 160.456C111.354 160.448 111.69 160.346 111.981 160.16C112.271 159.975 112.505 159.713 112.658 159.403C112.849 159.048 112.964 158.656 112.997 158.254C113.029 157.852 112.977 157.447 112.845 157.065C112.712 156.684 112.502 156.334 112.227 156.038C111.953 155.742 111.619 155.507 111.249 155.346Z" fill="black"/>
</g>
<path d="M110.559 155.25C110.239 155.637 110.023 156.098 109.93 156.591C109.837 157.084 109.871 157.593 110.029 158.069C110.186 158.545 110.463 158.974 110.831 159.314C111.2 159.654 111.649 159.895 112.137 160.014C111.937 160.193 111.697 160.322 111.438 160.391C111.178 160.46 110.906 160.466 110.644 160.409C109.991 160.192 109.431 159.762 109.052 159.189C108.673 158.615 108.498 157.931 108.555 157.245C108.583 156.684 108.812 156.151 109.2 155.744C109.576 155.416 110.061 155.241 110.559 155.25Z" fill="#E4022C"/>
<g opacity="0.4">
<path d="M110.559 155.25C110.239 155.637 110.023 156.098 109.93 156.591C109.837 157.084 109.871 157.593 110.029 158.069C110.186 158.545 110.463 158.974 110.831 159.314C111.2 159.654 111.649 159.895 112.137 160.014C111.937 160.193 111.697 160.322 111.438 160.391C111.178 160.46 110.906 160.466 110.644 160.409C109.991 160.192 109.431 159.762 109.052 159.189C108.673 158.615 108.498 157.931 108.555 157.245C108.583 156.684 108.812 156.151 109.2 155.744C109.576 155.416 110.061 155.241 110.559 155.25Z" fill="black"/>
</g>
<g opacity="0.2">
<path d="M104.699 152.816C104.366 152.705 104.007 152.693 103.666 152.781C103.325 152.869 103.018 153.054 102.78 153.314C102.548 153.579 102.378 153.892 102.284 154.231C102.189 154.571 102.172 154.927 102.233 155.273C102.307 155.939 102.596 156.563 103.055 157.051C103.443 157.424 103.94 157.665 104.473 157.739C104.805 157.732 105.128 157.634 105.408 157.455C105.688 157.277 105.913 157.024 106.059 156.726C106.243 156.383 106.354 156.005 106.385 155.616C106.416 155.228 106.365 154.837 106.238 154.469C106.11 154.101 105.907 153.763 105.643 153.477C105.378 153.191 105.057 152.963 104.699 152.807" fill="black"/>
</g>
<path d="M104.037 152.735C103.726 153.107 103.516 153.552 103.426 154.029C103.335 154.505 103.368 154.996 103.521 155.456C103.673 155.916 103.941 156.33 104.298 156.658C104.655 156.985 105.09 157.217 105.561 157.329C105.368 157.503 105.136 157.628 104.885 157.695C104.634 157.762 104.371 157.77 104.117 157.716C103.488 157.505 102.947 157.09 102.582 156.535C102.217 155.981 102.049 155.32 102.104 154.659C102.13 154.119 102.349 153.606 102.722 153.215C103.09 152.894 103.566 152.722 104.055 152.735" fill="#E4022C"/>
<g opacity="0.4">
<path d="M104.037 152.739C103.726 153.111 103.516 153.556 103.426 154.033C103.335 154.509 103.368 155 103.521 155.46C103.673 155.92 103.941 156.334 104.298 156.661C104.655 156.989 105.09 157.221 105.561 157.333C105.368 157.507 105.136 157.632 104.885 157.699C104.634 157.766 104.371 157.773 104.117 157.72C103.488 157.509 102.947 157.094 102.582 156.539C102.217 155.985 102.049 155.324 102.104 154.663C102.13 154.123 102.349 153.61 102.722 153.219C103.09 152.897 103.566 152.726 104.055 152.739" fill="black"/>
</g>
<path d="M121.557 140.59C121.557 140.59 121.601 140.59 121.619 140.559H121.65L121.557 140.59Z" fill="#263238"/>
<path d="M124.916 141.973C124.705 141.405 124.296 140.932 123.765 140.64C123.343 140.429 122.877 140.32 122.405 140.324H122.365C122.103 140.34 121.847 140.416 121.619 140.546C121.125 140.792 120.703 141.16 120.392 141.615C120.081 142.07 119.891 142.597 119.841 143.146C119.81 143.848 119.988 144.543 120.352 145.144C120.715 145.745 121.249 146.225 121.885 146.523C122.305 146.739 122.785 146.811 123.249 146.727C123.71 146.595 124.112 146.312 124.391 145.923C124.816 145.368 125.089 144.711 125.181 144.018C125.273 143.325 125.181 142.62 124.916 141.973Z" fill="#263238"/>
<path d="M107.822 136.265C107.841 136.254 107.86 136.245 107.88 136.238H107.907L107.822 136.265Z" fill="#263238"/>
<path d="M110.729 137.476C110.55 136.976 110.195 136.559 109.729 136.303C109.366 136.119 108.964 136.025 108.556 136.027H108.507C108.28 136.042 108.06 136.109 107.863 136.223C107.435 136.435 107.068 136.753 106.798 137.148C106.528 137.542 106.364 138 106.321 138.476C106.295 139.084 106.45 139.686 106.766 140.205C107.083 140.725 107.546 141.139 108.099 141.395C108.456 141.607 108.882 141.671 109.287 141.575C109.691 141.479 110.043 141.23 110.267 140.879C110.632 140.401 110.866 139.835 110.947 139.239C111.028 138.642 110.953 138.035 110.729 137.476Z" fill="#263238"/>
<path d="M111.617 144.902C111.711 144.908 111.803 144.926 111.893 144.956C112.154 145.022 112.412 145.102 112.666 145.196C113.601 145.538 114.481 146.016 115.278 146.613C116.472 147.495 117.486 148.596 118.269 149.857C119.218 151.405 119.849 153.127 120.126 154.922C120.41 156.714 120.389 158.54 120.064 160.325C119.829 161.802 119.191 163.186 118.22 164.324C117.552 165.078 116.687 165.63 115.723 165.919C115.375 166.034 115.009 166.083 114.643 166.066C115 166.017 115.352 165.94 115.696 165.835C116.628 165.519 117.458 164.959 118.1 164.213C119.027 163.089 119.634 161.735 119.855 160.294C120.166 158.531 120.179 156.729 119.895 154.962C119.624 153.197 119.01 151.501 118.087 149.972C117.325 148.727 116.34 147.633 115.181 146.746C114.399 146.149 113.544 145.656 112.635 145.28C111.999 145.031 111.617 144.925 111.617 144.902Z" fill="#263238"/>
<path d="M107.373 139.646C107.351 139.646 107.235 139.566 107.115 139.357C106.971 139.083 106.893 138.779 106.889 138.469C106.89 138.159 106.966 137.854 107.111 137.58C107.231 137.371 107.342 137.273 107.369 137.291C107.239 137.677 107.155 138.077 107.12 138.482C107.16 138.878 107.245 139.269 107.373 139.646Z" fill="#FAFAFA"/>
<path d="M120.77 144.554C120.743 144.554 120.632 144.452 120.534 144.217C120.414 143.904 120.382 143.564 120.441 143.235C120.491 142.906 120.633 142.598 120.85 142.346C121.018 142.15 121.161 142.079 121.178 142.102C120.947 142.465 120.774 142.862 120.667 143.279C120.629 143.707 120.664 144.138 120.77 144.554Z" fill="#FAFAFA"/>
<path d="M129.2 168.032C129.178 168.068 128.64 167.695 127.698 167.224C126.464 166.628 125.189 166.123 123.881 165.713C122.348 165.215 120.953 164.789 119.953 164.433C119.456 164.26 119.065 164.109 118.78 163.989C118.635 163.939 118.497 163.872 118.367 163.789C118.922 163.923 119.469 164.086 120.007 164.278C121.011 164.593 122.415 164.993 123.952 165.495C125.272 165.905 126.551 166.436 127.774 167.082C128.009 167.202 128.218 167.33 128.391 167.441C128.546 167.533 128.694 167.634 128.836 167.744C128.969 167.824 129.092 167.921 129.2 168.032Z" fill="#263238"/>
<path d="M160.724 153.723C160.605 153.942 160.468 154.152 160.315 154.349C160.049 154.745 159.627 155.3 159.089 155.967C157.659 157.686 156.106 159.298 154.441 160.792C152.5 162.569 150.691 164.076 149.411 165.213L147.901 166.546C147.725 166.721 147.534 166.882 147.332 167.026C147.485 166.831 147.655 166.65 147.839 166.484C148.176 166.142 148.678 165.662 149.305 165.075C150.558 163.907 152.349 162.36 154.281 160.605C155.937 159.117 157.5 157.528 158.96 155.847C159.516 155.198 159.955 154.66 160.244 154.283C160.39 154.084 160.55 153.897 160.724 153.723Z" fill="#263238"/>
<g opacity="0.2">
<path d="M153.17 161.954C155.56 162.15 158.275 161.417 159.973 159.733C160.825 158.866 161.4 157.765 161.625 156.571C161.851 155.376 161.716 154.141 161.239 153.023C159.844 155.014 158.271 157.129 156.351 158.755C155.143 159.782 154.339 161.026 153.17 161.968" fill="black"/>
</g>
<g opacity="0.5">
<path d="M144.657 106.065C147.767 110.642 154.143 112.091 157.227 116.676C158.422 118.453 159.004 120.551 159.582 122.612L166.691 148.264C166.985 142.705 165.647 137.204 164.314 131.797C163.005 126.465 161.691 121.133 160.373 115.801C160.156 114.608 159.722 113.465 159.093 112.428C158.391 111.42 157.347 110.713 156.33 110.029C152.677 107.576 148.918 105.079 144.635 104.102" fill="black"/>
</g>
<g opacity="0.3">
<path d="M122.849 119.922C123.045 120.544 122.191 121.393 120.863 122.446C120.192 122.97 119.41 123.57 118.548 124.223C117.686 124.876 116.771 125.592 115.806 126.365C114.842 127.138 113.971 127.907 113.14 128.587C112.31 129.266 111.585 129.946 110.919 130.493C109.617 131.581 108.617 132.243 108.044 131.923C107.471 131.604 107.511 130.342 108.271 128.573C108.725 127.547 109.302 126.581 109.99 125.694C111.673 123.512 113.839 121.749 116.317 120.544C117.326 120.054 118.39 119.685 119.485 119.447C121.392 119.078 122.662 119.327 122.849 119.922Z" fill="white"/>
</g>
<path d="M110.965 154.988C110.638 155.106 110.3 155.188 109.956 155.233C109.629 155.346 109.291 155.425 108.947 155.468C109.209 155.221 109.544 155.065 109.903 155.024C110.244 154.901 110.616 154.889 110.965 154.988Z" fill="#FAFAFA"/>
<path d="M104.22 152.54C103.911 152.613 103.598 152.668 103.282 152.704C102.78 152.815 102.393 153.024 102.367 152.966C102.34 152.908 102.678 152.602 103.229 152.477C103.39 152.421 103.56 152.398 103.73 152.409C103.901 152.419 104.067 152.464 104.22 152.54Z" fill="#FAFAFA"/>
<path d="M134.132 173.204C134.07 173.235 133.479 172.24 132.657 171.071C131.835 169.902 131.102 169.009 131.151 168.965C131.807 169.539 132.378 170.203 132.848 170.938C133.379 171.63 133.811 172.393 134.132 173.204Z" fill="#FAFAFA"/>
<path d="M107.663 126.57C107.725 126.61 106.85 127.903 106.09 129.636C105.33 131.369 104.966 132.884 104.895 132.866C104.905 132.526 104.965 132.19 105.072 131.867C105.275 131.071 105.544 130.294 105.876 129.543C106.206 128.791 106.597 128.067 107.045 127.379C107.216 127.084 107.423 126.812 107.663 126.57Z" fill="#FAFAFA"/>
<path d="M129.204 117.967C128.349 117.884 127.509 117.679 126.712 117.358C125.889 117.108 125.104 116.746 124.379 116.283C124.41 116.221 125.459 116.674 126.787 117.136C128.116 117.598 129.222 117.9 129.204 117.967Z" fill="#FAFAFA"/>
<path d="M163.862 110.762C162.823 112.18 161.296 113.163 159.574 113.521C160.354 113.171 161.114 112.781 161.854 112.352C162.55 111.857 163.22 111.326 163.862 110.762Z" fill="#EB996E"/>
<path d="M176.877 107.792C174.486 102.282 150.608 82.7227 150.608 82.7227L137.145 100.203C137.34 99.9405 159.108 113.199 159.108 113.199L165.528 142.472L166.635 147.697C166.635 147.697 163.747 150.217 163.867 152.874C163.942 154.651 159.868 158.477 159.868 158.477C158.899 157.672 158.277 157.446 157.788 157.539L153.456 161.596L154.487 162.538C155.636 163.586 157.149 164.146 158.703 164.097L166.11 163.871C167.167 163.84 168.17 163.399 168.905 162.64C171.185 160.298 175.992 155.06 176.086 152.536C176.143 151.123 176.152 149.777 176.148 148.693C176.126 148.679 179.263 113.302 176.877 107.792Z" fill="#FFBE9D"/>
<path d="M169.784 154.602C169.661 154.712 169.522 154.802 169.371 154.868C169.1 155.019 168.682 155.197 168.198 155.464C167.64 155.785 167.147 156.209 166.745 156.712C166.236 157.347 165.637 157.903 164.967 158.365C163.729 159.189 162.259 159.594 160.773 159.52C160.512 159.52 160.254 159.475 160.009 159.387C159.91 159.352 159.823 159.289 159.76 159.205C159.697 159.121 159.659 159.021 159.653 158.916C159.649 158.851 159.661 158.785 159.688 158.726C159.715 158.666 159.757 158.614 159.809 158.574C159.884 158.529 159.933 158.538 159.933 158.543C159.933 158.547 159.893 158.543 159.835 158.609C159.797 158.649 159.768 158.697 159.752 158.749C159.736 158.802 159.732 158.857 159.742 158.912C159.755 158.995 159.791 159.074 159.847 159.138C159.903 159.201 159.976 159.248 160.057 159.271C160.291 159.341 160.534 159.371 160.777 159.36C162.221 159.388 163.639 158.976 164.843 158.178C165.495 157.73 166.079 157.191 166.58 156.579C167.004 156.064 167.525 155.637 168.113 155.321C168.62 155.068 169.042 154.917 169.326 154.788C169.473 154.713 169.626 154.65 169.784 154.602Z" fill="#EB996E"/>
<path d="M166.399 158.461C166.43 158.519 165.817 158.879 165.159 159.438C164.502 159.998 164.04 160.536 163.986 160.496C164.228 160.012 164.582 159.591 165.017 159.27C165.404 158.891 165.879 158.613 166.399 158.461Z" fill="#EB996E"/>
<path d="M169.381 146.332C169.381 146.399 168.728 146.439 168.012 146.776C167.297 147.114 166.844 147.589 166.795 147.541C167.074 147.122 167.463 146.787 167.919 146.572C168.374 146.358 168.88 146.272 169.381 146.323V146.332Z" fill="#EB996E"/>
<path d="M164.76 160.743C164.76 160.783 164.284 160.552 163.485 160.366C162.154 160.037 160.757 160.096 159.459 160.535C159.314 160.589 159.166 160.634 159.015 160.668C158.849 160.698 158.678 160.661 158.539 160.566L157.384 159.695C157.011 159.448 156.662 159.169 156.34 158.859C156.739 159.062 157.121 159.297 157.482 159.561L158.677 160.375C158.868 160.521 159.121 160.41 159.401 160.308C159.692 160.207 159.989 160.124 160.29 160.059C161.365 159.847 162.475 159.893 163.529 160.192C163.845 160.283 164.153 160.4 164.449 160.543C164.658 160.663 164.769 160.73 164.76 160.743Z" fill="#EB996E"/>
<path d="M114.518 92.8504C111.67 92.0373 110.408 91.6863 110.408 91.6863V90.3799H111.541C112.679 90.3799 114.314 88.9625 114.314 88.9625L116.744 85.2435L117.055 82.8574C116.798 79.9159 113.252 81.0801 113.252 81.0801C113.083 80.0537 108.542 79.0228 105.13 78.3874C103.987 78.1738 102.811 78.2169 101.686 78.5135C100.562 78.8102 99.5178 79.3529 98.629 80.1026L95.3543 82.8663L85.5435 91.4463L60.2166 112.841L43.5675 107.927C43.5675 107.927 38.2711 124.122 37.4135 129.925C35.7562 141.074 51.0811 148.503 57.8528 142.767C63.1048 138.323 93.737 105.318 98.8112 99.8486H98.8512C101.962 99.4532 107.24 96.294 107.24 96.294L109.946 96.6139C109.946 96.6139 117.135 97.9869 117.989 96.5784C118.628 95.4898 117.367 93.6635 114.518 92.8504Z" fill="#FFBE9D"/>
<path d="M99.7704 89.6133C99.7704 89.6133 99.8415 89.7155 99.9259 89.9243C100.049 90.2191 100.147 90.5238 100.219 90.8352C100.461 91.865 100.5 92.9319 100.335 93.9766C100.171 95.0219 99.8027 96.0245 99.2505 96.927C99.0865 97.2003 98.8992 97.459 98.6907 97.7001C98.544 97.8734 98.4552 97.9623 98.4418 97.9489C98.4285 97.9356 98.7262 97.5402 99.1083 96.847C100.117 95.0268 100.455 92.9102 100.064 90.8663C99.9081 90.0887 99.7304 89.6266 99.7704 89.6133Z" fill="#EB996E"/>
<path d="M101.605 80.5411C101.696 80.5178 101.788 80.5014 101.881 80.4922C102.068 80.4655 102.325 80.43 102.685 80.3989C103.678 80.2898 104.681 80.3003 105.671 80.43C106.358 80.5312 107.028 80.7318 107.657 81.0254C108.389 81.3585 109.034 81.8539 109.546 82.4739C110.128 83.1641 110.451 84.0367 110.457 84.94C110.448 85.4187 110.328 85.8889 110.106 86.313C109.869 86.7403 109.569 87.1297 109.217 87.4682C108.552 88.1105 107.824 88.6837 107.044 89.1789C106.675 89.4275 106.284 89.6417 105.875 89.8187C105.664 89.9029 105.437 89.9408 105.209 89.9298C105.091 89.9242 104.975 89.8935 104.869 89.8399C104.763 89.7863 104.67 89.7109 104.596 89.6188C104.459 89.4362 104.391 89.2111 104.405 88.9834C104.409 88.7759 104.447 88.5704 104.516 88.3746C104.644 88.0114 104.819 87.6664 105.036 87.3482C105.427 86.7743 105.952 86.3033 106.564 85.9753L106.591 86.1308L103.561 85.5531L102.739 85.3843C102.641 85.3704 102.546 85.3451 102.454 85.3088C102.553 85.3087 102.651 85.3176 102.747 85.3354L103.574 85.4643L106.618 85.9664L106.853 86.0064L106.644 86.1219C106.063 86.446 105.567 86.9027 105.196 87.4549C104.99 87.7603 104.827 88.0921 104.711 88.4413C104.636 88.6068 104.601 88.7881 104.61 88.9699C104.62 89.1517 104.673 89.3285 104.765 89.4855C104.902 89.6126 105.076 89.6931 105.262 89.7155C105.448 89.7378 105.636 89.7009 105.8 89.6099C106.192 89.439 106.567 89.2306 106.92 88.9878C107.686 88.5008 108.401 87.9365 109.052 87.3038C109.392 87.0048 109.669 86.6416 109.868 86.2352C110.067 85.8288 110.184 85.3872 110.212 84.9355C110.208 84.0844 109.908 83.2613 109.363 82.6072C108.874 82.0085 108.256 81.5272 107.555 81.1987C106.945 80.9054 106.295 80.7018 105.627 80.5944C104.65 80.4512 103.661 80.4154 102.676 80.4878L101.868 80.5366C101.781 80.5492 101.693 80.5507 101.605 80.5411Z" fill="#EB996E"/>
<path d="M113.288 81.2148C113.333 81.3711 113.359 81.5323 113.364 81.6947C113.408 82.1376 113.426 82.5827 113.417 83.0277C113.42 84.5012 113.039 85.95 112.311 87.2311C111.422 88.7196 110.032 89.6794 108.881 89.8304C108.652 89.8618 108.418 89.8378 108.2 89.7605C107.982 89.6832 107.786 89.5548 107.628 89.3861C107.545 89.2925 107.482 89.1839 107.441 89.0662C107.423 89.0274 107.415 88.9845 107.419 88.9418C107.495 89.0794 107.588 89.2077 107.694 89.3239C107.851 89.464 108.038 89.5665 108.241 89.6235C108.443 89.6805 108.656 89.6905 108.863 89.6527C109.92 89.4794 111.262 88.533 112.111 87.1022C112.817 85.8505 113.209 84.4463 113.253 83.0099C113.311 81.9036 113.248 81.2148 113.288 81.2148Z" fill="#EB996E"/>
<path d="M107 93.9072C106.973 93.8761 107.205 93.6761 107.48 93.2762C107.834 92.7622 108.054 92.1681 108.12 91.5478C108.176 90.9251 108.074 90.2983 107.822 89.726C107.631 89.2817 107.444 89.0417 107.476 89.0195C107.692 89.1857 107.861 89.4045 107.969 89.6549C108.282 90.2413 108.415 90.9072 108.351 91.5688C108.287 92.2305 108.029 92.8586 107.609 93.374C107.453 93.5993 107.244 93.7825 107 93.9072Z" fill="#EB996E"/>
<path d="M102.682 85.4883C102.842 85.7859 102.892 86.1304 102.824 86.4614C102.796 86.8261 102.69 87.1806 102.513 87.5011C102.312 87.8925 102.058 88.2543 101.758 88.5764C101.193 89.1406 100.512 89.5756 99.7626 89.8516C99.4678 89.9948 99.1556 90.0993 98.834 90.1626C99.1038 89.9828 99.3929 89.8337 99.696 89.7183C100.4 89.4068 101.041 88.9702 101.589 88.4298C101.876 88.1209 102.124 87.7776 102.326 87.4078C102.5 87.1142 102.614 86.7898 102.664 86.4525C102.703 86.1326 102.709 85.8094 102.682 85.4883Z" fill="#EB996E"/>
<path d="M121.575 86.7969L109.076 93.6085C109.076 93.6085 115.763 95.2658 121.837 101.686C125.139 105.184 127.724 109.294 129.444 113.786L141.886 105.503C141.886 105.503 135.19 90.3338 121.575 86.7969Z" fill="#455A64"/>
<path d="M111.279 93.3544L121.37 87.5781H121.401H121.432C123.217 88.0586 124.932 88.7649 126.538 89.6798C128.362 90.7354 130.064 91.9902 131.612 93.4211C133.328 94.9952 134.901 96.7185 136.313 98.5709C137.843 100.546 139.201 102.65 140.37 104.858L140.419 104.951L140.33 105.009L139.677 105.454L130.07 111.874L129.955 111.95L129.906 111.825C128.547 108.464 126.68 105.332 124.369 102.539C122.533 100.349 120.409 98.4183 118.055 96.798C116.52 95.7326 114.883 94.8217 113.168 94.0787C112.563 93.821 112.092 93.6344 111.768 93.5322L111.404 93.4078L111.279 93.3633L111.408 93.39L111.781 93.4966C112.11 93.5988 112.586 93.7632 113.194 94.0076C114.934 94.7243 116.596 95.6177 118.153 96.6736C120.531 98.2852 122.676 100.215 124.529 102.41C126.866 105.213 128.755 108.36 130.128 111.741L129.963 111.692L139.565 105.263L140.219 104.818L140.179 104.965C139.017 102.77 137.67 100.679 136.153 98.7131C134.752 96.8696 133.191 95.1537 131.487 93.5855C129.948 92.1604 128.257 90.9087 126.444 89.8531C124.856 88.9374 123.159 88.2268 121.392 87.7381H121.454L111.279 93.3544Z" fill="white"/>
<path d="M131.741 97.4597C131.413 99.3837 128.978 100.548 126.298 100.059C123.619 99.5703 121.704 97.6152 122.033 95.6913C122.362 93.7673 124.797 92.6032 127.476 93.0919C130.155 93.5807 132.057 95.5358 131.741 97.4597Z" fill="#FAFAFA"/>
<path d="M125.916 98.0809L125.472 98.5607L124.974 98.0764L125.392 97.6321C125.034 97.2567 124.775 96.7988 124.637 96.2991L125.477 95.9347C125.589 96.3992 125.827 96.8237 126.165 97.1611C126.507 97.4943 126.73 97.521 126.858 97.3788C127.303 96.8989 125.325 95.6415 126.339 94.5218C126.783 94.0508 127.458 93.9664 128.205 94.5218L128.649 94.0508L129.147 94.5351L128.725 94.9794C129.005 95.2889 129.214 95.6559 129.338 96.0547L128.511 96.4413C128.4 96.059 128.197 95.7096 127.92 95.4238C127.574 95.0905 127.338 95.0905 127.205 95.2371C126.787 95.6815 128.747 96.9567 127.743 98.0675C127.329 98.5252 126.654 98.6141 125.916 98.0809Z" fill="#455A64"/>
<path d="M114.131 91.75C114.131 91.75 116.251 92.8253 114.216 94.416L111.105 93.2074L114.131 91.75Z" fill="#FAFAFA"/>
<path d="M119.824 88.5533C119.824 88.5533 121.868 90.7127 123.823 88.4644L121.415 87.6602L119.824 88.5533Z" fill="#FAFAFA"/>
<path d="M128.742 108.939C128.742 108.939 131.493 106.718 133.097 109.721L130.026 111.774L128.742 108.939Z" fill="#FAFAFA"/>
<path d="M138.891 102.465C138.891 102.465 136.905 103.709 138.251 106.273L140.286 104.913L138.891 102.465Z" fill="#FAFAFA"/>
<path d="M131.528 109.671C131.522 109.835 131.469 109.994 131.374 110.128C131.279 110.262 131.146 110.364 130.993 110.423C130.84 110.483 130.672 110.495 130.512 110.459C130.352 110.424 130.205 110.342 130.091 110.224C129.977 110.105 129.901 109.956 129.871 109.795C129.841 109.633 129.86 109.466 129.925 109.315C129.989 109.164 130.097 109.036 130.234 108.946C130.372 108.855 130.533 108.808 130.697 108.809C130.808 108.81 130.918 108.834 131.02 108.878C131.122 108.923 131.214 108.987 131.291 109.067C131.369 109.147 131.429 109.242 131.47 109.345C131.51 109.449 131.53 109.559 131.528 109.671Z" fill="#455A64"/>
<path d="M139.862 104.37C139.856 104.533 139.802 104.69 139.707 104.823C139.613 104.955 139.481 105.057 139.328 105.115C139.176 105.173 139.01 105.185 138.851 105.15C138.692 105.114 138.547 105.033 138.434 104.915C138.321 104.798 138.245 104.65 138.215 104.49C138.185 104.329 138.204 104.164 138.267 104.014C138.331 103.864 138.437 103.736 138.573 103.646C138.709 103.556 138.869 103.508 139.031 103.508C139.143 103.51 139.253 103.533 139.355 103.578C139.457 103.622 139.549 103.686 139.626 103.766C139.703 103.846 139.764 103.941 139.805 104.044C139.845 104.148 139.865 104.259 139.862 104.37Z" fill="#455A64"/>
<path d="M122.693 88.4656C122.693 88.7722 122.249 89.021 121.738 89.021C121.227 89.021 120.787 88.7722 120.787 88.4656C120.787 88.159 121.231 87.9102 121.742 87.9102C122.253 87.9102 122.693 88.1545 122.693 88.4656Z" fill="#455A64"/>
<path d="M114.573 93.0775C114.616 93.2688 114.599 93.4688 114.523 93.6499C114.448 93.831 114.318 93.9842 114.152 94.0883C113.986 94.1925 113.792 94.2424 113.596 94.2313C113.4 94.2201 113.212 94.1484 113.059 94.0261C112.906 93.9038 112.794 93.7368 112.74 93.5484C112.686 93.3599 112.691 93.1593 112.756 92.9741C112.821 92.789 112.941 92.6285 113.101 92.5149C113.261 92.4013 113.452 92.3402 113.648 92.3399C113.868 92.3185 114.088 92.3836 114.26 92.5213C114.433 92.659 114.545 92.8585 114.573 93.0775Z" fill="#455A64"/>
<path d="M122.232 92.5992C122.232 93.0702 121.646 93.4523 120.922 93.4523C120.197 93.4523 119.615 93.0835 119.615 92.5992C119.615 92.1149 120.202 91.7461 120.926 91.7461C121.65 91.7461 122.232 92.1549 122.232 92.5992Z" fill="#FAFAFA"/>
<path d="M132.758 104.028C132.167 104.3 131.425 103.926 131.132 103.198C130.969 102.888 130.931 102.528 131.026 102.191C131.121 101.855 131.342 101.568 131.643 101.389C132.234 101.118 132.976 101.491 133.269 102.224C133.431 102.533 133.469 102.893 133.374 103.229C133.279 103.564 133.058 103.851 132.758 104.028Z" fill="#FAFAFA"/>
<path d="M114.318 88.9596L119.45 94.376C119.45 94.376 121.503 96.7265 122.885 95.6157C124.267 94.5048 122.325 92.4343 121.916 91.83C121.508 91.2257 116.478 85.125 116.478 85.125L114.318 88.9596Z" fill="#FFBE9D"/>
<path d="M116.949 84.0902C116.929 84.4109 116.861 84.7268 116.749 85.0278C116.537 85.7696 116.239 86.484 115.86 87.1561C115.474 87.8324 114.98 88.4417 114.398 88.9601C114.17 89.1871 113.902 89.3708 113.607 89.5022C113.821 89.2681 114.048 89.047 114.287 88.8401C114.818 88.3078 115.279 87.7106 115.66 87.0628C116.544 85.4898 116.887 84.0636 116.949 84.0902Z" fill="#EB996E"/>
<path d="M69.218 105.23C69.1461 105.317 69.0657 105.396 68.9781 105.466L68.2627 106.106L65.5967 108.421C63.335 110.362 60.1936 113.033 56.7101 115.943C53.2265 118.854 49.9873 121.48 47.6324 123.293C46.4593 124.217 45.4951 124.941 44.8198 125.439L44.0377 125.994C43.9508 126.064 43.857 126.125 43.7578 126.176C43.837 126.098 43.9217 126.025 44.0111 125.959L44.7664 125.363C45.4241 124.848 46.3705 124.106 47.5302 123.168C49.854 121.297 53.0354 118.676 56.5368 115.766C60.0381 112.855 63.1751 110.22 65.4856 108.296L68.2005 106.035L68.947 105.43C69.0311 105.356 69.1218 105.289 69.218 105.23Z" fill="#EB996E"/>
</svg>
